%TF.GenerationSoftware,KiCad,Pcbnew,9.0.3*%
%TF.CreationDate,2025-09-08T11:07:08-04:00*%
%TF.ProjectId,HMS Olfactometer,484d5320-4f6c-4666-9163-746f6d657465,4.1*%
%TF.SameCoordinates,Original*%
%TF.FileFunction,Soldermask,Top*%
%TF.FilePolarity,Negative*%
%FSLAX46Y46*%
G04 Gerber Fmt 4.6, Leading zero omitted, Abs format (unit mm)*
G04 Created by KiCad (PCBNEW 9.0.3) date 2025-09-08 11:07:08*
%MOMM*%
%LPD*%
G01*
G04 APERTURE LIST*
G04 Aperture macros list*
%AMRoundRect*
0 Rectangle with rounded corners*
0 $1 Rounding radius*
0 $2 $3 $4 $5 $6 $7 $8 $9 X,Y pos of 4 corners*
0 Add a 4 corners polygon primitive as box body*
4,1,4,$2,$3,$4,$5,$6,$7,$8,$9,$2,$3,0*
0 Add four circle primitives for the rounded corners*
1,1,$1+$1,$2,$3*
1,1,$1+$1,$4,$5*
1,1,$1+$1,$6,$7*
1,1,$1+$1,$8,$9*
0 Add four rect primitives between the rounded corners*
20,1,$1+$1,$2,$3,$4,$5,0*
20,1,$1+$1,$4,$5,$6,$7,0*
20,1,$1+$1,$6,$7,$8,$9,0*
20,1,$1+$1,$8,$9,$2,$3,0*%
%AMFreePoly0*
4,1,23,0.500000,-0.750000,0.000000,-0.750000,0.000000,-0.745722,-0.065263,-0.745722,-0.191342,-0.711940,-0.304381,-0.646677,-0.396677,-0.554381,-0.461940,-0.441342,-0.495722,-0.315263,-0.495722,-0.250000,-0.500000,-0.250000,-0.500000,0.250000,-0.495722,0.250000,-0.495722,0.315263,-0.461940,0.441342,-0.396677,0.554381,-0.304381,0.646677,-0.191342,0.711940,-0.065263,0.745722,0.000000,0.745722,
0.000000,0.750000,0.500000,0.750000,0.500000,-0.750000,0.500000,-0.750000,$1*%
%AMFreePoly1*
4,1,23,0.000000,0.745722,0.065263,0.745722,0.191342,0.711940,0.304381,0.646677,0.396677,0.554381,0.461940,0.441342,0.495722,0.315263,0.495722,0.250000,0.500000,0.250000,0.500000,-0.250000,0.495722,-0.250000,0.495722,-0.315263,0.461940,-0.441342,0.396677,-0.554381,0.304381,-0.646677,0.191342,-0.711940,0.065263,-0.745722,0.000000,-0.745722,0.000000,-0.750000,-0.500000,-0.750000,
-0.500000,0.750000,0.000000,0.750000,0.000000,0.745722,0.000000,0.745722,$1*%
G04 Aperture macros list end*
%ADD10R,1.600000X1.600000*%
%ADD11O,1.600000X1.600000*%
%ADD12R,1.700000X1.700000*%
%ADD13O,1.700000X1.700000*%
%ADD14C,3.200000*%
%ADD15C,1.600000*%
%ADD16R,0.838200X1.295400*%
%ADD17R,1.397000X2.260600*%
%ADD18C,2.000000*%
%ADD19R,2.600000X2.600000*%
%ADD20C,2.600000*%
%ADD21O,1.600000X2.500000*%
%ADD22O,3.500000X7.000000*%
%ADD23FreePoly0,90.000000*%
%ADD24FreePoly1,90.000000*%
%ADD25R,1.800000X1.800000*%
%ADD26C,1.800000*%
%ADD27R,1.700000X2.500000*%
%ADD28O,1.700000X2.500000*%
%ADD29RoundRect,0.102000X1.387500X-1.387500X1.387500X1.387500X-1.387500X1.387500X-1.387500X-1.387500X0*%
%ADD30C,2.979000*%
%ADD31RoundRect,0.101600X-0.674370X0.299720X-0.674370X-0.299720X0.674370X-0.299720X0.674370X0.299720X0*%
%ADD32RoundRect,0.101600X-0.999490X0.599440X-0.999490X-0.599440X0.999490X-0.599440X0.999490X0.599440X0*%
G04 APERTURE END LIST*
D10*
%TO.C,U8*%
X104775000Y-104140000D03*
D11*
X104775000Y-106680000D03*
X104775000Y-109220000D03*
X104775000Y-111760000D03*
X104775000Y-114300000D03*
X104775000Y-116840000D03*
X104775000Y-119380000D03*
X104775000Y-121920000D03*
X104775000Y-124460000D03*
X112395000Y-124460000D03*
X112395000Y-121920000D03*
X112395000Y-119380000D03*
X112395000Y-116840000D03*
X112395000Y-114300000D03*
X112395000Y-111760000D03*
X112395000Y-109220000D03*
X112395000Y-106680000D03*
X112395000Y-104140000D03*
%TD*%
D12*
%TO.C,J8*%
X254000000Y-43180000D03*
D13*
X254000000Y-45720000D03*
%TD*%
D12*
%TO.C,J5*%
X241229000Y-104140000D03*
D13*
X243769000Y-104140000D03*
X246309000Y-104140000D03*
X248849000Y-104140000D03*
X251389000Y-104140000D03*
X253929000Y-104140000D03*
X256469000Y-104140000D03*
X259009000Y-104140000D03*
X261549000Y-104140000D03*
X264089000Y-104140000D03*
X266629000Y-104140000D03*
X269169000Y-104140000D03*
X271709000Y-104140000D03*
X274249000Y-104140000D03*
X276789000Y-104140000D03*
X279329000Y-104140000D03*
X281869000Y-104140000D03*
X284409000Y-104140000D03*
X286949000Y-104140000D03*
X289489000Y-104140000D03*
X292029000Y-104140000D03*
X294569000Y-104140000D03*
X297109000Y-104140000D03*
X299649000Y-104140000D03*
%TD*%
D14*
%TO.C,H10*%
X189865000Y-126365000D03*
%TD*%
D15*
%TO.C,R4*%
X62230000Y-105410000D03*
D11*
X62230000Y-115570000D03*
%TD*%
D15*
%TO.C,R3*%
X48260000Y-166370000D03*
D11*
X58420000Y-166370000D03*
%TD*%
D10*
%TO.C,U14*%
X215900000Y-38100000D03*
D11*
X215900000Y-40640000D03*
X215900000Y-43180000D03*
X215900000Y-45720000D03*
X215900000Y-48260000D03*
X215900000Y-50800000D03*
X215900000Y-53340000D03*
X215900000Y-55880000D03*
X215900000Y-58420000D03*
X223520000Y-58420000D03*
X223520000Y-55880000D03*
X223520000Y-53340000D03*
X223520000Y-50800000D03*
X223520000Y-48260000D03*
X223520000Y-45720000D03*
X223520000Y-43180000D03*
X223520000Y-40640000D03*
X223520000Y-38100000D03*
%TD*%
D16*
%TO.C,J19*%
X68634999Y-149165399D03*
X67384999Y-149165399D03*
X66134999Y-149165399D03*
X64884999Y-149165399D03*
X63634999Y-149165399D03*
X62384999Y-149165399D03*
D17*
X70535000Y-151460398D03*
X60484998Y-151460398D03*
%TD*%
D14*
%TO.C,H4*%
X120015000Y-126365000D03*
%TD*%
D12*
%TO.C,J12*%
X254000000Y-55880000D03*
D13*
X254000000Y-58420000D03*
%TD*%
D14*
%TO.C,H12*%
X189865000Y-93345000D03*
%TD*%
D10*
%TO.C,U10*%
X216464000Y-104140000D03*
D11*
X216464000Y-106680000D03*
X216464000Y-109220000D03*
X216464000Y-111760000D03*
X216464000Y-114300000D03*
X216464000Y-116840000D03*
X216464000Y-119380000D03*
X216464000Y-121920000D03*
X216464000Y-124460000D03*
X224084000Y-124460000D03*
X224084000Y-121920000D03*
X224084000Y-119380000D03*
X224084000Y-116840000D03*
X224084000Y-114300000D03*
X224084000Y-111760000D03*
X224084000Y-109220000D03*
X224084000Y-106680000D03*
X224084000Y-104140000D03*
%TD*%
D10*
%TO.C,U7*%
X203129000Y-71120000D03*
D11*
X203129000Y-73660000D03*
X203129000Y-76200000D03*
X203129000Y-78740000D03*
X203129000Y-81280000D03*
X203129000Y-83820000D03*
X203129000Y-86360000D03*
X203129000Y-88900000D03*
X203129000Y-91440000D03*
X210749000Y-91440000D03*
X210749000Y-88900000D03*
X210749000Y-86360000D03*
X210749000Y-83820000D03*
X210749000Y-81280000D03*
X210749000Y-78740000D03*
X210749000Y-76200000D03*
X210749000Y-73660000D03*
X210749000Y-71120000D03*
%TD*%
D16*
%TO.C,J18*%
X68634999Y-133925399D03*
X67384999Y-133925399D03*
X66134999Y-133925399D03*
X64884999Y-133925399D03*
X63634999Y-133925399D03*
X62384999Y-133925399D03*
D17*
X70535000Y-136220398D03*
X60484998Y-136220398D03*
%TD*%
D14*
%TO.C,H18*%
X196850000Y-38100000D03*
%TD*%
D15*
%TO.C,U1*%
X60960000Y-40640000D03*
X60960000Y-43180000D03*
X60960000Y-45720000D03*
X60960000Y-48260000D03*
X60960000Y-50800000D03*
X60960000Y-53340000D03*
X60960000Y-55880000D03*
X60960000Y-58420000D03*
X60960000Y-60960000D03*
X60960000Y-63500000D03*
X60960000Y-66040000D03*
X60960000Y-68580000D03*
X60960000Y-71120000D03*
X60960000Y-73660000D03*
X76200000Y-73660000D03*
X76200000Y-71120000D03*
X76200000Y-68580000D03*
X76200000Y-66040000D03*
X76200000Y-63500000D03*
X76200000Y-60960000D03*
X76200000Y-58420000D03*
X76200000Y-55880000D03*
X76200000Y-53340000D03*
X76200000Y-50800000D03*
X76200000Y-48260000D03*
X76200000Y-45720000D03*
X76200000Y-43180000D03*
X76200000Y-40640000D03*
%TD*%
D18*
%TO.C,TP4*%
X83820000Y-40640000D03*
%TD*%
D14*
%TO.C,H16*%
X304800000Y-139700000D03*
%TD*%
D19*
%TO.C,J15*%
X40640000Y-82550000D03*
D20*
X34640000Y-82550000D03*
X37640000Y-87250000D03*
%TD*%
D10*
%TO.C,C1*%
X52070000Y-83780000D03*
D15*
X52070000Y-81280000D03*
%TD*%
D21*
%TO.C,J22*%
X154940000Y-48260000D03*
D22*
X149860000Y-43180000D03*
D21*
X152400000Y-48260000D03*
D22*
X160020000Y-43180000D03*
%TD*%
D15*
%TO.C,R2*%
X48260000Y-162560000D03*
D11*
X58420000Y-162560000D03*
%TD*%
D23*
%TO.C,JP1*%
X48260000Y-109220000D03*
D24*
X48260000Y-107920000D03*
%TD*%
D10*
%TO.C,U9*%
X91440000Y-104140000D03*
D11*
X91440000Y-106680000D03*
X91440000Y-109220000D03*
X91440000Y-111760000D03*
X91440000Y-114300000D03*
X91440000Y-116840000D03*
X91440000Y-119380000D03*
X91440000Y-121920000D03*
X91440000Y-124460000D03*
X99060000Y-124460000D03*
X99060000Y-121920000D03*
X99060000Y-119380000D03*
X99060000Y-116840000D03*
X99060000Y-114300000D03*
X99060000Y-111760000D03*
X99060000Y-109220000D03*
X99060000Y-106680000D03*
X99060000Y-104140000D03*
%TD*%
D15*
%TO.C,R16*%
X110490000Y-60960000D03*
D11*
X120650000Y-60960000D03*
%TD*%
D12*
%TO.C,J13*%
X271780000Y-55880000D03*
D13*
X271780000Y-58420000D03*
%TD*%
D12*
%TO.C,J9*%
X271780000Y-43180000D03*
D13*
X271780000Y-45720000D03*
%TD*%
D25*
%TO.C,D1*%
X62230000Y-100330000D03*
D26*
X62230000Y-97790000D03*
%TD*%
D18*
%TO.C,TP2*%
X68580000Y-101600000D03*
%TD*%
D21*
%TO.C,J20*%
X99060000Y-48260000D03*
D22*
X93980000Y-43180000D03*
D21*
X96520000Y-48260000D03*
D22*
X104140000Y-43180000D03*
%TD*%
D14*
%TO.C,H5*%
X231704000Y-126365000D03*
%TD*%
D15*
%TO.C,R7*%
X85090000Y-85090000D03*
D11*
X85090000Y-74930000D03*
%TD*%
D10*
%TO.C,U4*%
X216464000Y-137160000D03*
D11*
X216464000Y-139700000D03*
X216464000Y-142240000D03*
X216464000Y-144780000D03*
X216464000Y-147320000D03*
X216464000Y-149860000D03*
X216464000Y-152400000D03*
X216464000Y-154940000D03*
X216464000Y-157480000D03*
X224084000Y-157480000D03*
X224084000Y-154940000D03*
X224084000Y-152400000D03*
X224084000Y-149860000D03*
X224084000Y-147320000D03*
X224084000Y-144780000D03*
X224084000Y-142240000D03*
X224084000Y-139700000D03*
X224084000Y-137160000D03*
%TD*%
D12*
%TO.C,J4*%
X129540000Y-104140000D03*
D13*
X132080000Y-104140000D03*
X134620000Y-104140000D03*
X137160000Y-104140000D03*
X139700000Y-104140000D03*
X142240000Y-104140000D03*
X144780000Y-104140000D03*
X147320000Y-104140000D03*
X149860000Y-104140000D03*
X152400000Y-104140000D03*
X154940000Y-104140000D03*
X157480000Y-104140000D03*
X160020000Y-104140000D03*
X162560000Y-104140000D03*
X165100000Y-104140000D03*
X167640000Y-104140000D03*
X170180000Y-104140000D03*
X172720000Y-104140000D03*
X175260000Y-104140000D03*
X177800000Y-104140000D03*
X180340000Y-104140000D03*
X182880000Y-104140000D03*
X185420000Y-104140000D03*
X187960000Y-104140000D03*
%TD*%
D27*
%TO.C,U16*%
X61002500Y-82882500D03*
D28*
X63542500Y-82882500D03*
X66082500Y-82882500D03*
%TD*%
D12*
%TO.C,J2*%
X241229000Y-137160000D03*
D13*
X243769000Y-137160000D03*
X246309000Y-137160000D03*
X248849000Y-137160000D03*
X251389000Y-137160000D03*
X253929000Y-137160000D03*
X256469000Y-137160000D03*
X259009000Y-137160000D03*
X261549000Y-137160000D03*
X264089000Y-137160000D03*
X266629000Y-137160000D03*
X269169000Y-137160000D03*
X271709000Y-137160000D03*
X274249000Y-137160000D03*
X276789000Y-137160000D03*
X279329000Y-137160000D03*
X281869000Y-137160000D03*
X284409000Y-137160000D03*
X286949000Y-137160000D03*
X289489000Y-137160000D03*
X292029000Y-137160000D03*
X294569000Y-137160000D03*
X297109000Y-137160000D03*
X299649000Y-137160000D03*
%TD*%
D29*
%TO.C,SW1*%
X42103000Y-110110000D03*
D30*
X42103000Y-105410000D03*
X42103000Y-100710000D03*
X32573000Y-112015000D03*
X32573000Y-98805000D03*
%TD*%
D12*
%TO.C,J11*%
X236220000Y-55880000D03*
D13*
X236220000Y-58420000D03*
%TD*%
D10*
%TO.C,U13*%
X91440000Y-71120000D03*
D11*
X91440000Y-73660000D03*
X91440000Y-76200000D03*
X91440000Y-78740000D03*
X91440000Y-81280000D03*
X91440000Y-83820000D03*
X91440000Y-86360000D03*
X91440000Y-88900000D03*
X91440000Y-91440000D03*
X99060000Y-91440000D03*
X99060000Y-88900000D03*
X99060000Y-86360000D03*
X99060000Y-83820000D03*
X99060000Y-81280000D03*
X99060000Y-78740000D03*
X99060000Y-76200000D03*
X99060000Y-73660000D03*
X99060000Y-71120000D03*
%TD*%
D14*
%TO.C,H9*%
X301554000Y-93345000D03*
%TD*%
%TO.C,H7*%
X189865000Y-159385000D03*
%TD*%
D10*
%TO.C,U2*%
X104775000Y-137160000D03*
D11*
X104775000Y-139700000D03*
X104775000Y-142240000D03*
X104775000Y-144780000D03*
X104775000Y-147320000D03*
X104775000Y-149860000D03*
X104775000Y-152400000D03*
X104775000Y-154940000D03*
X104775000Y-157480000D03*
X112395000Y-157480000D03*
X112395000Y-154940000D03*
X112395000Y-152400000D03*
X112395000Y-149860000D03*
X112395000Y-147320000D03*
X112395000Y-144780000D03*
X112395000Y-142240000D03*
X112395000Y-139700000D03*
X112395000Y-137160000D03*
%TD*%
D31*
%TO.C,J25*%
X39232840Y-57180480D03*
X39232840Y-58181240D03*
X39232840Y-59176920D03*
X39232840Y-60177680D03*
D32*
X35560000Y-61478160D03*
X35560000Y-55880000D03*
%TD*%
D10*
%TO.C,U15*%
X203200000Y-38100000D03*
D11*
X203200000Y-40640000D03*
X203200000Y-43180000D03*
X203200000Y-45720000D03*
X203200000Y-48260000D03*
X203200000Y-50800000D03*
X203200000Y-53340000D03*
X203200000Y-55880000D03*
X203200000Y-58420000D03*
X210820000Y-58420000D03*
X210820000Y-55880000D03*
X210820000Y-53340000D03*
X210820000Y-50800000D03*
X210820000Y-48260000D03*
X210820000Y-45720000D03*
X210820000Y-43180000D03*
X210820000Y-40640000D03*
X210820000Y-38100000D03*
%TD*%
D18*
%TO.C,TP3*%
X81280000Y-162560000D03*
%TD*%
D14*
%TO.C,H8*%
X301554000Y-159385000D03*
%TD*%
D15*
%TO.C,R1*%
X48260000Y-158750000D03*
D11*
X58420000Y-158750000D03*
%TD*%
D10*
%TO.C,U11*%
X203129000Y-104140000D03*
D11*
X203129000Y-106680000D03*
X203129000Y-109220000D03*
X203129000Y-111760000D03*
X203129000Y-114300000D03*
X203129000Y-116840000D03*
X203129000Y-119380000D03*
X203129000Y-121920000D03*
X203129000Y-124460000D03*
X210749000Y-124460000D03*
X210749000Y-121920000D03*
X210749000Y-119380000D03*
X210749000Y-116840000D03*
X210749000Y-114300000D03*
X210749000Y-111760000D03*
X210749000Y-109220000D03*
X210749000Y-106680000D03*
X210749000Y-104140000D03*
%TD*%
D12*
%TO.C,J10*%
X289560000Y-43180000D03*
D13*
X289560000Y-45720000D03*
%TD*%
D10*
%TO.C,U5*%
X203129000Y-137160000D03*
D11*
X203129000Y-139700000D03*
X203129000Y-142240000D03*
X203129000Y-144780000D03*
X203129000Y-147320000D03*
X203129000Y-149860000D03*
X203129000Y-152400000D03*
X203129000Y-154940000D03*
X203129000Y-157480000D03*
X210749000Y-157480000D03*
X210749000Y-154940000D03*
X210749000Y-152400000D03*
X210749000Y-149860000D03*
X210749000Y-147320000D03*
X210749000Y-144780000D03*
X210749000Y-142240000D03*
X210749000Y-139700000D03*
X210749000Y-137160000D03*
%TD*%
D15*
%TO.C,R5*%
X42418000Y-44450000D03*
D11*
X42418000Y-54610000D03*
%TD*%
D10*
%TO.C,U3*%
X91440000Y-137160000D03*
D11*
X91440000Y-139700000D03*
X91440000Y-142240000D03*
X91440000Y-144780000D03*
X91440000Y-147320000D03*
X91440000Y-149860000D03*
X91440000Y-152400000D03*
X91440000Y-154940000D03*
X91440000Y-157480000D03*
X99060000Y-157480000D03*
X99060000Y-154940000D03*
X99060000Y-152400000D03*
X99060000Y-149860000D03*
X99060000Y-147320000D03*
X99060000Y-144780000D03*
X99060000Y-142240000D03*
X99060000Y-139700000D03*
X99060000Y-137160000D03*
%TD*%
D10*
%TO.C,U12*%
X104775000Y-71120000D03*
D11*
X104775000Y-73660000D03*
X104775000Y-76200000D03*
X104775000Y-78740000D03*
X104775000Y-81280000D03*
X104775000Y-83820000D03*
X104775000Y-86360000D03*
X104775000Y-88900000D03*
X104775000Y-91440000D03*
X112395000Y-91440000D03*
X112395000Y-88900000D03*
X112395000Y-86360000D03*
X112395000Y-83820000D03*
X112395000Y-81280000D03*
X112395000Y-78740000D03*
X112395000Y-76200000D03*
X112395000Y-73660000D03*
X112395000Y-71120000D03*
%TD*%
D12*
%TO.C,J6*%
X129540000Y-71120000D03*
D13*
X132080000Y-71120000D03*
X134620000Y-71120000D03*
X137160000Y-71120000D03*
X139700000Y-71120000D03*
X142240000Y-71120000D03*
X144780000Y-71120000D03*
X147320000Y-71120000D03*
X149860000Y-71120000D03*
X152400000Y-71120000D03*
X154940000Y-71120000D03*
X157480000Y-71120000D03*
X160020000Y-71120000D03*
X162560000Y-71120000D03*
X165100000Y-71120000D03*
X167640000Y-71120000D03*
X170180000Y-71120000D03*
X172720000Y-71120000D03*
X175260000Y-71120000D03*
X177800000Y-71120000D03*
X180340000Y-71120000D03*
X182880000Y-71120000D03*
X185420000Y-71120000D03*
X187960000Y-71120000D03*
%TD*%
D12*
%TO.C,J14*%
X289560000Y-55880000D03*
D13*
X289560000Y-58420000D03*
%TD*%
D21*
%TO.C,J21*%
X127000000Y-48260000D03*
D22*
X121920000Y-43180000D03*
D21*
X124460000Y-48260000D03*
D22*
X132080000Y-43180000D03*
%TD*%
D14*
%TO.C,H3*%
X231704000Y-93345000D03*
%TD*%
%TO.C,H14*%
X38100000Y-165100000D03*
%TD*%
%TO.C,H13*%
X38100000Y-38100000D03*
%TD*%
D10*
%TO.C,U6*%
X216464000Y-71120000D03*
D11*
X216464000Y-73660000D03*
X216464000Y-76200000D03*
X216464000Y-78740000D03*
X216464000Y-81280000D03*
X216464000Y-83820000D03*
X216464000Y-86360000D03*
X216464000Y-88900000D03*
X216464000Y-91440000D03*
X224084000Y-91440000D03*
X224084000Y-88900000D03*
X224084000Y-86360000D03*
X224084000Y-83820000D03*
X224084000Y-81280000D03*
X224084000Y-78740000D03*
X224084000Y-76200000D03*
X224084000Y-73660000D03*
X224084000Y-71120000D03*
%TD*%
D16*
%TO.C,J16*%
X45157001Y-133925399D03*
X43907001Y-133925399D03*
X42657001Y-133925399D03*
X41407001Y-133925399D03*
X40157001Y-133925399D03*
X38907001Y-133925399D03*
D17*
X47057002Y-136220398D03*
X37007000Y-136220398D03*
%TD*%
D15*
%TO.C,R6*%
X42418000Y-72390000D03*
D11*
X42418000Y-62230000D03*
%TD*%
D12*
%TO.C,J7*%
X236220000Y-43180000D03*
D13*
X236220000Y-45720000D03*
%TD*%
D14*
%TO.C,H2*%
X231704000Y-159385000D03*
%TD*%
D18*
%TO.C,TP1*%
X45720000Y-88900000D03*
%TD*%
D14*
%TO.C,H6*%
X120015000Y-93345000D03*
%TD*%
D12*
%TO.C,J24*%
X48260000Y-38100000D03*
D13*
X48260000Y-40640000D03*
X48260000Y-43180000D03*
X48260000Y-45720000D03*
X48260000Y-48260000D03*
X48260000Y-50800000D03*
X48260000Y-53340000D03*
X48260000Y-55880000D03*
X48260000Y-58420000D03*
X48260000Y-60960000D03*
X48260000Y-63500000D03*
X48260000Y-66040000D03*
X48260000Y-68580000D03*
X48260000Y-71120000D03*
X48260000Y-73660000D03*
X48260000Y-76200000D03*
%TD*%
D12*
%TO.C,J3*%
X241229000Y-71120000D03*
D13*
X243769000Y-71120000D03*
X246309000Y-71120000D03*
X248849000Y-71120000D03*
X251389000Y-71120000D03*
X253929000Y-71120000D03*
X256469000Y-71120000D03*
X259009000Y-71120000D03*
X261549000Y-71120000D03*
X264089000Y-71120000D03*
X266629000Y-71120000D03*
X269169000Y-71120000D03*
X271709000Y-71120000D03*
X274249000Y-71120000D03*
X276789000Y-71120000D03*
X279329000Y-71120000D03*
X281869000Y-71120000D03*
X284409000Y-71120000D03*
X286949000Y-71120000D03*
X289489000Y-71120000D03*
X292029000Y-71120000D03*
X294569000Y-71120000D03*
X297109000Y-71120000D03*
X299649000Y-71120000D03*
%TD*%
D14*
%TO.C,H11*%
X301554000Y-126365000D03*
%TD*%
D21*
%TO.C,J23*%
X182880000Y-48260000D03*
D22*
X177800000Y-43180000D03*
D21*
X180340000Y-48260000D03*
D22*
X187960000Y-43180000D03*
%TD*%
D15*
%TO.C,R8*%
X105410000Y-60960000D03*
D11*
X95250000Y-60960000D03*
%TD*%
D14*
%TO.C,H15*%
X304800000Y-38100000D03*
%TD*%
D10*
%TO.C,C2*%
X74930000Y-83780000D03*
D15*
X74930000Y-81280000D03*
%TD*%
D14*
%TO.C,H1*%
X120015000Y-159385000D03*
%TD*%
D12*
%TO.C,J1*%
X129540000Y-137160000D03*
D13*
X132080000Y-137160000D03*
X134620000Y-137160000D03*
X137160000Y-137160000D03*
X139700000Y-137160000D03*
X142240000Y-137160000D03*
X144780000Y-137160000D03*
X147320000Y-137160000D03*
X149860000Y-137160000D03*
X152400000Y-137160000D03*
X154940000Y-137160000D03*
X157480000Y-137160000D03*
X160020000Y-137160000D03*
X162560000Y-137160000D03*
X165100000Y-137160000D03*
X167640000Y-137160000D03*
X170180000Y-137160000D03*
X172720000Y-137160000D03*
X175260000Y-137160000D03*
X177800000Y-137160000D03*
X180340000Y-137160000D03*
X182880000Y-137160000D03*
X185420000Y-137160000D03*
X187960000Y-137160000D03*
%TD*%
D16*
%TO.C,J17*%
X45157001Y-149165399D03*
X43907001Y-149165399D03*
X42657001Y-149165399D03*
X41407001Y-149165399D03*
X40157001Y-149165399D03*
X38907001Y-149165399D03*
D17*
X47057002Y-151460398D03*
X37007000Y-151460398D03*
%TD*%
D14*
%TO.C,H17*%
X196850000Y-165100000D03*
%TD*%
M02*
