M48
; DRILL file {KiCad 9.0.3} date 2025-09-08T11:07:10-0400
; FORMAT={-:-/ absolute / inch / decimal}
; #@! TF.CreationDate,2025-09-08T11:07:10-04:00
; #@! TF.GenerationSoftware,Kicad,Pcbnew,9.0.3
; #@! TF.FileFunction,Plated,1,2,PTH
FMAT,2
INCH
; #@! TA.AperFunction,Plated,PTH,ViaDrill
T1C0.0118
; #@! TA.AperFunction,Plated,PTH,ComponentDrill
T2C0.0315
; #@! TA.AperFunction,Plated,PTH,ComponentDrill
T3C0.0350
; #@! TA.AperFunction,Plated,PTH,ComponentDrill
T4C0.0354
; #@! TA.AperFunction,Plated,PTH,ComponentDrill
T5C0.0394
; #@! TA.AperFunction,Plated,PTH,ComponentDrill
T6C0.0433
; #@! TA.AperFunction,Plated,PTH,ComponentDrill
T7C0.0472
; #@! TA.AperFunction,Plated,PTH,ComponentDrill
T8C0.0630
; #@! TA.AperFunction,Plated,PTH,ComponentDrill
T9C0.0728
; #@! TA.AperFunction,Plated,PTH,ComponentDrill
T10C0.0791
%
G90
G05
T1
X1.68Y-5.6296
X1.7778Y-5.6801
X2.6043Y-5.6296
X2.649Y-5.7196
X2.7052Y-5.68
X3.15Y-2.95
X3.9Y-2.6
T2
X1.67Y-1.75
X1.67Y-2.15
X1.67Y-2.45
X1.67Y-2.85
X1.9Y-6.25
X1.9Y-6.4
X1.9Y-6.55
X2.05Y-3.2
X2.05Y-3.2984
X2.3Y-6.25
X2.3Y-6.4
X2.3Y-6.55
X2.45Y-4.15
X2.45Y-4.55
X2.95Y-3.2
X2.95Y-3.2984
X3.35Y-2.95
X3.35Y-3.35
X3.6Y-2.8
X3.6Y-2.9
X3.6Y-3.0
X3.6Y-3.1
X3.6Y-3.2
X3.6Y-3.3
X3.6Y-3.4
X3.6Y-3.5
X3.6Y-3.6
X3.6Y-4.1
X3.6Y-4.2
X3.6Y-4.3
X3.6Y-4.4
X3.6Y-4.5
X3.6Y-4.6
X3.6Y-4.7
X3.6Y-4.8
X3.6Y-4.9
X3.6Y-5.4
X3.6Y-5.5
X3.6Y-5.6
X3.6Y-5.7
X3.6Y-5.8
X3.6Y-5.9
X3.6Y-6.0
X3.6Y-6.1
X3.6Y-6.2
X3.75Y-2.4
X3.9Y-2.8
X3.9Y-2.9
X3.9Y-3.0
X3.9Y-3.1
X3.9Y-3.2
X3.9Y-3.3
X3.9Y-3.4
X3.9Y-3.5
X3.9Y-3.6
X3.9Y-4.1
X3.9Y-4.2
X3.9Y-4.3
X3.9Y-4.4
X3.9Y-4.5
X3.9Y-4.6
X3.9Y-4.7
X3.9Y-4.8
X3.9Y-4.9
X3.9Y-5.4
X3.9Y-5.5
X3.9Y-5.6
X3.9Y-5.7
X3.9Y-5.8
X3.9Y-5.9
X3.9Y-6.0
X3.9Y-6.1
X3.9Y-6.2
X4.125Y-2.8
X4.125Y-2.9
X4.125Y-3.0
X4.125Y-3.1
X4.125Y-3.2
X4.125Y-3.3
X4.125Y-3.4
X4.125Y-3.5
X4.125Y-3.6
X4.125Y-4.1
X4.125Y-4.2
X4.125Y-4.3
X4.125Y-4.4
X4.125Y-4.5
X4.125Y-4.6
X4.125Y-4.7
X4.125Y-4.8
X4.125Y-4.9
X4.125Y-5.4
X4.125Y-5.5
X4.125Y-5.6
X4.125Y-5.7
X4.125Y-5.8
X4.125Y-5.9
X4.125Y-6.0
X4.125Y-6.1
X4.125Y-6.2
X4.15Y-2.4
X4.35Y-2.4
X4.425Y-2.8
X4.425Y-2.9
X4.425Y-3.0
X4.425Y-3.1
X4.425Y-3.2
X4.425Y-3.3
X4.425Y-3.4
X4.425Y-3.5
X4.425Y-3.6
X4.425Y-4.1
X4.425Y-4.2
X4.425Y-4.3
X4.425Y-4.4
X4.425Y-4.5
X4.425Y-4.6
X4.425Y-4.7
X4.425Y-4.8
X4.425Y-4.9
X4.425Y-5.4
X4.425Y-5.5
X4.425Y-5.6
X4.425Y-5.7
X4.425Y-5.8
X4.425Y-5.9
X4.425Y-6.0
X4.425Y-6.1
X4.425Y-6.2
X4.75Y-2.4
X7.9972Y-2.8
X7.9972Y-2.9
X7.9972Y-3.0
X7.9972Y-3.1
X7.9972Y-3.2
X7.9972Y-3.3
X7.9972Y-3.4
X7.9972Y-3.5
X7.9972Y-3.6
X7.9972Y-4.1
X7.9972Y-4.2
X7.9972Y-4.3
X7.9972Y-4.4
X7.9972Y-4.5
X7.9972Y-4.6
X7.9972Y-4.7
X7.9972Y-4.8
X7.9972Y-4.9
X7.9972Y-5.4
X7.9972Y-5.5
X7.9972Y-5.6
X7.9972Y-5.7
X7.9972Y-5.8
X7.9972Y-5.9
X7.9972Y-6.0
X7.9972Y-6.1
X7.9972Y-6.2
X8.0Y-1.5
X8.0Y-1.6
X8.0Y-1.7
X8.0Y-1.8
X8.0Y-1.9
X8.0Y-2.0
X8.0Y-2.1
X8.0Y-2.2
X8.0Y-2.3
X8.2972Y-2.8
X8.2972Y-2.9
X8.2972Y-3.0
X8.2972Y-3.1
X8.2972Y-3.2
X8.2972Y-3.3
X8.2972Y-3.4
X8.2972Y-3.5
X8.2972Y-3.6
X8.2972Y-4.1
X8.2972Y-4.2
X8.2972Y-4.3
X8.2972Y-4.4
X8.2972Y-4.5
X8.2972Y-4.6
X8.2972Y-4.7
X8.2972Y-4.8
X8.2972Y-4.9
X8.2972Y-5.4
X8.2972Y-5.5
X8.2972Y-5.6
X8.2972Y-5.7
X8.2972Y-5.8
X8.2972Y-5.9
X8.2972Y-6.0
X8.2972Y-6.1
X8.2972Y-6.2
X8.3Y-1.5
X8.3Y-1.6
X8.3Y-1.7
X8.3Y-1.8
X8.3Y-1.9
X8.3Y-2.0
X8.3Y-2.1
X8.3Y-2.2
X8.3Y-2.3
X8.5Y-1.5
X8.5Y-1.6
X8.5Y-1.7
X8.5Y-1.8
X8.5Y-1.9
X8.5Y-2.0
X8.5Y-2.1
X8.5Y-2.2
X8.5Y-2.3
X8.5222Y-2.8
X8.5222Y-2.9
X8.5222Y-3.0
X8.5222Y-3.1
X8.5222Y-3.2
X8.5222Y-3.3
X8.5222Y-3.4
X8.5222Y-3.5
X8.5222Y-3.6
X8.5222Y-4.1
X8.5222Y-4.2
X8.5222Y-4.3
X8.5222Y-4.4
X8.5222Y-4.5
X8.5222Y-4.6
X8.5222Y-4.7
X8.5222Y-4.8
X8.5222Y-4.9
X8.5222Y-5.4
X8.5222Y-5.5
X8.5222Y-5.6
X8.5222Y-5.7
X8.5222Y-5.8
X8.5222Y-5.9
X8.5222Y-6.0
X8.5222Y-6.1
X8.5222Y-6.2
X8.8Y-1.5
X8.8Y-1.6
X8.8Y-1.7
X8.8Y-1.8
X8.8Y-1.9
X8.8Y-2.0
X8.8Y-2.1
X8.8Y-2.2
X8.8Y-2.3
X8.8222Y-2.8
X8.8222Y-2.9
X8.8222Y-3.0
X8.8222Y-3.1
X8.8222Y-3.2
X8.8222Y-3.3
X8.8222Y-3.4
X8.8222Y-3.5
X8.8222Y-3.6
X8.8222Y-4.1
X8.8222Y-4.2
X8.8222Y-4.3
X8.8222Y-4.4
X8.8222Y-4.5
X8.8222Y-4.6
X8.8222Y-4.7
X8.8222Y-4.8
X8.8222Y-4.9
X8.8222Y-5.4
X8.8222Y-5.5
X8.8222Y-5.6
X8.8222Y-5.7
X8.8222Y-5.8
X8.8222Y-5.9
X8.8222Y-6.0
X8.8222Y-6.1
X8.8222Y-6.2
T3
X3.8Y-1.9
X3.9Y-1.9
X4.9Y-1.9
X5.0Y-1.9
X6.0Y-1.9
X6.1Y-1.9
X7.1Y-1.9
X7.2Y-1.9
T4
X2.45Y-3.85
X2.45Y-3.95
T5
X1.8Y-3.5
X1.9Y-1.5
X1.9Y-1.6
X1.9Y-1.7
X1.9Y-1.8
X1.9Y-1.9
X1.9Y-2.0
X1.9Y-2.1
X1.9Y-2.2
X1.9Y-2.3
X1.9Y-2.4
X1.9Y-2.5
X1.9Y-2.6
X1.9Y-2.7
X1.9Y-2.8
X1.9Y-2.9
X1.9Y-3.0
X2.7Y-4.0
X3.2Y-6.4
X3.3Y-1.6
X5.1Y-2.8
X5.1Y-4.1
X5.1Y-5.4
X5.2Y-2.8
X5.2Y-4.1
X5.2Y-5.4
X5.3Y-2.8
X5.3Y-4.1
X5.3Y-5.4
X5.4Y-2.8
X5.4Y-4.1
X5.4Y-5.4
X5.5Y-2.8
X5.5Y-4.1
X5.5Y-5.4
X5.6Y-2.8
X5.6Y-4.1
X5.6Y-5.4
X5.7Y-2.8
X5.7Y-4.1
X5.7Y-5.4
X5.8Y-2.8
X5.8Y-4.1
X5.8Y-5.4
X5.9Y-2.8
X5.9Y-4.1
X5.9Y-5.4
X6.0Y-2.8
X6.0Y-4.1
X6.0Y-5.4
X6.1Y-2.8
X6.1Y-4.1
X6.1Y-5.4
X6.2Y-2.8
X6.2Y-4.1
X6.2Y-5.4
X6.3Y-2.8
X6.3Y-4.1
X6.3Y-5.4
X6.4Y-2.8
X6.4Y-4.1
X6.4Y-5.4
X6.5Y-2.8
X6.5Y-4.1
X6.5Y-5.4
X6.6Y-2.8
X6.6Y-4.1
X6.6Y-5.4
X6.7Y-2.8
X6.7Y-4.1
X6.7Y-5.4
X6.8Y-2.8
X6.8Y-4.1
X6.8Y-5.4
X6.9Y-2.8
X6.9Y-4.1
X6.9Y-5.4
X7.0Y-2.8
X7.0Y-4.1
X7.0Y-5.4
X7.1Y-2.8
X7.1Y-4.1
X7.1Y-5.4
X7.2Y-2.8
X7.2Y-4.1
X7.2Y-5.4
X7.3Y-2.8
X7.3Y-4.1
X7.3Y-5.4
X7.4Y-2.8
X7.4Y-4.1
X7.4Y-5.4
X9.3Y-1.7
X9.3Y-1.8
X9.3Y-2.2
X9.3Y-2.3
X9.4972Y-2.8
X9.4972Y-4.1
X9.4972Y-5.4
X9.5972Y-2.8
X9.5972Y-4.1
X9.5972Y-5.4
X9.6972Y-2.8
X9.6972Y-4.1
X9.6972Y-5.4
X9.7972Y-2.8
X9.7972Y-4.1
X9.7972Y-5.4
X9.8972Y-2.8
X9.8972Y-4.1
X9.8972Y-5.4
X9.9972Y-2.8
X9.9972Y-4.1
X9.9972Y-5.4
X10.0Y-1.7
X10.0Y-1.8
X10.0Y-2.2
X10.0Y-2.3
X10.0972Y-2.8
X10.0972Y-4.1
X10.0972Y-5.4
X10.1972Y-2.8
X10.1972Y-4.1
X10.1972Y-5.4
X10.2972Y-2.8
X10.2972Y-4.1
X10.2972Y-5.4
X10.3972Y-2.8
X10.3972Y-4.1
X10.3972Y-5.4
X10.4972Y-2.8
X10.4972Y-4.1
X10.4972Y-5.4
X10.5972Y-2.8
X10.5972Y-4.1
X10.5972Y-5.4
X10.6972Y-2.8
X10.6972Y-4.1
X10.6972Y-5.4
X10.7Y-1.7
X10.7Y-1.8
X10.7Y-2.2
X10.7Y-2.3
X10.7972Y-2.8
X10.7972Y-4.1
X10.7972Y-5.4
X10.8972Y-2.8
X10.8972Y-4.1
X10.8972Y-5.4
X10.9972Y-2.8
X10.9972Y-4.1
X10.9972Y-5.4
X11.0972Y-2.8
X11.0972Y-4.1
X11.0972Y-5.4
X11.1972Y-2.8
X11.1972Y-4.1
X11.1972Y-5.4
X11.2972Y-2.8
X11.2972Y-4.1
X11.2972Y-5.4
X11.3972Y-2.8
X11.3972Y-4.1
X11.3972Y-5.4
X11.4Y-1.7
X11.4Y-1.8
X11.4Y-2.2
X11.4Y-2.3
X11.4972Y-2.8
X11.4972Y-4.1
X11.4972Y-5.4
X11.5972Y-2.8
X11.5972Y-4.1
X11.5972Y-5.4
X11.6972Y-2.8
X11.6972Y-4.1
X11.6972Y-5.4
X11.7972Y-2.8
X11.7972Y-4.1
X11.7972Y-5.4
T6
X2.4Y-1.6
X2.4Y-1.7
X2.4Y-1.8
X2.4Y-1.9
X2.4Y-2.0
X2.4Y-2.1
X2.4Y-2.2
X2.4Y-2.3
X2.4Y-2.4
X2.4Y-2.5
X2.4Y-2.6
X2.4Y-2.7
X2.4Y-2.8
X2.4Y-2.9
X3.0Y-1.6
X3.0Y-1.7
X3.0Y-1.8
X3.0Y-1.9
X3.0Y-2.0
X3.0Y-2.1
X3.0Y-2.2
X3.0Y-2.3
X3.0Y-2.4
X3.0Y-2.5
X3.0Y-2.6
X3.0Y-2.7
X3.0Y-2.8
X3.0Y-2.9
T7
X2.4017Y-3.2631
X2.5017Y-3.2631
X2.6017Y-3.2631
T8
X1.3638Y-3.25
X1.4819Y-3.435
X1.6Y-3.25
T9
X1.2824Y-3.89
X1.2824Y-4.41
X1.6576Y-3.965
X1.6576Y-4.15
X1.6576Y-4.335
T10
X3.7Y-1.7
X4.1Y-1.7
X4.8Y-1.7
X5.2Y-1.7
X5.9Y-1.7
X6.3Y-1.7
X7.0Y-1.7
X7.4Y-1.7
M30
