G04 EAGLE Gerber RS-274X export*
G75*
%MOMM*%
%FSLAX34Y34*%
%LPD*%
%IN*%
%IPPOS*%
%AMOC8*
5,1,8,0,0,1.08239X$1,22.5*%
G01*
%ADD10C,0.254000*%


D10*
X0Y0D02*
X2794000Y0D01*
X2794000Y1371600D01*
X0Y1371600D01*
X0Y0D01*
X1747139Y1072665D02*
X1747070Y1071696D01*
X1746932Y1070736D01*
X1746725Y1069787D01*
X1746452Y1068856D01*
X1746113Y1067946D01*
X1745709Y1067063D01*
X1745244Y1066212D01*
X1744719Y1065395D01*
X1744138Y1064618D01*
X1743502Y1063884D01*
X1742816Y1063198D01*
X1742082Y1062562D01*
X1741305Y1061981D01*
X1740488Y1061456D01*
X1739637Y1060991D01*
X1738754Y1060587D01*
X1737844Y1060248D01*
X1736913Y1059975D01*
X1735964Y1059768D01*
X1735004Y1059630D01*
X1734035Y1059561D01*
X1733065Y1059561D01*
X1732096Y1059630D01*
X1731136Y1059768D01*
X1730187Y1059975D01*
X1729256Y1060248D01*
X1728346Y1060587D01*
X1727463Y1060991D01*
X1726612Y1061456D01*
X1725795Y1061981D01*
X1725018Y1062562D01*
X1724284Y1063198D01*
X1723598Y1063884D01*
X1722962Y1064618D01*
X1722381Y1065395D01*
X1721856Y1066212D01*
X1721391Y1067063D01*
X1720987Y1067946D01*
X1720648Y1068856D01*
X1720375Y1069787D01*
X1720168Y1070736D01*
X1720030Y1071696D01*
X1719961Y1072665D01*
X1719961Y1073635D01*
X1720030Y1074604D01*
X1720168Y1075564D01*
X1720375Y1076513D01*
X1720648Y1077444D01*
X1720987Y1078354D01*
X1721391Y1079237D01*
X1721856Y1080088D01*
X1722381Y1080905D01*
X1722962Y1081682D01*
X1723598Y1082416D01*
X1724284Y1083102D01*
X1725018Y1083738D01*
X1725795Y1084319D01*
X1726612Y1084844D01*
X1727463Y1085309D01*
X1728346Y1085713D01*
X1729256Y1086052D01*
X1730187Y1086325D01*
X1731136Y1086532D01*
X1732096Y1086670D01*
X1733065Y1086739D01*
X1734035Y1086739D01*
X1735004Y1086670D01*
X1735964Y1086532D01*
X1736913Y1086325D01*
X1737844Y1086052D01*
X1738754Y1085713D01*
X1739637Y1085309D01*
X1740488Y1084844D01*
X1741305Y1084319D01*
X1742082Y1083738D01*
X1742816Y1083102D01*
X1743502Y1082416D01*
X1744138Y1081682D01*
X1744719Y1080905D01*
X1745244Y1080088D01*
X1745709Y1079237D01*
X1746113Y1078354D01*
X1746452Y1077444D01*
X1746725Y1076513D01*
X1746932Y1075564D01*
X1747070Y1074604D01*
X1747139Y1073635D01*
X1747139Y1072665D01*
X1048639Y1072665D02*
X1048570Y1071696D01*
X1048432Y1070736D01*
X1048225Y1069787D01*
X1047952Y1068856D01*
X1047613Y1067946D01*
X1047209Y1067063D01*
X1046744Y1066212D01*
X1046219Y1065395D01*
X1045638Y1064618D01*
X1045002Y1063884D01*
X1044316Y1063198D01*
X1043582Y1062562D01*
X1042805Y1061981D01*
X1041988Y1061456D01*
X1041137Y1060991D01*
X1040254Y1060587D01*
X1039344Y1060248D01*
X1038413Y1059975D01*
X1037464Y1059768D01*
X1036504Y1059630D01*
X1035535Y1059561D01*
X1034565Y1059561D01*
X1033596Y1059630D01*
X1032636Y1059768D01*
X1031687Y1059975D01*
X1030756Y1060248D01*
X1029846Y1060587D01*
X1028963Y1060991D01*
X1028112Y1061456D01*
X1027295Y1061981D01*
X1026518Y1062562D01*
X1025784Y1063198D01*
X1025098Y1063884D01*
X1024462Y1064618D01*
X1023881Y1065395D01*
X1023356Y1066212D01*
X1022891Y1067063D01*
X1022487Y1067946D01*
X1022148Y1068856D01*
X1021875Y1069787D01*
X1021668Y1070736D01*
X1021530Y1071696D01*
X1021461Y1072665D01*
X1021461Y1073635D01*
X1021530Y1074604D01*
X1021668Y1075564D01*
X1021875Y1076513D01*
X1022148Y1077444D01*
X1022487Y1078354D01*
X1022891Y1079237D01*
X1023356Y1080088D01*
X1023881Y1080905D01*
X1024462Y1081682D01*
X1025098Y1082416D01*
X1025784Y1083102D01*
X1026518Y1083738D01*
X1027295Y1084319D01*
X1028112Y1084844D01*
X1028963Y1085309D01*
X1029846Y1085713D01*
X1030756Y1086052D01*
X1031687Y1086325D01*
X1032636Y1086532D01*
X1033596Y1086670D01*
X1034565Y1086739D01*
X1035535Y1086739D01*
X1036504Y1086670D01*
X1037464Y1086532D01*
X1038413Y1086325D01*
X1039344Y1086052D01*
X1040254Y1085713D01*
X1041137Y1085309D01*
X1041988Y1084844D01*
X1042805Y1084319D01*
X1043582Y1083738D01*
X1044316Y1083102D01*
X1045002Y1082416D01*
X1045638Y1081682D01*
X1046219Y1080905D01*
X1046744Y1080088D01*
X1047209Y1079237D01*
X1047613Y1078354D01*
X1047952Y1077444D01*
X1048225Y1076513D01*
X1048432Y1075564D01*
X1048570Y1074604D01*
X1048639Y1073635D01*
X1048639Y1072665D01*
X1747139Y742465D02*
X1747070Y741496D01*
X1746932Y740536D01*
X1746725Y739587D01*
X1746452Y738656D01*
X1746113Y737746D01*
X1745709Y736863D01*
X1745244Y736012D01*
X1744719Y735195D01*
X1744138Y734418D01*
X1743502Y733684D01*
X1742816Y732998D01*
X1742082Y732362D01*
X1741305Y731781D01*
X1740488Y731256D01*
X1739637Y730791D01*
X1738754Y730387D01*
X1737844Y730048D01*
X1736913Y729775D01*
X1735964Y729568D01*
X1735004Y729430D01*
X1734035Y729361D01*
X1733065Y729361D01*
X1732096Y729430D01*
X1731136Y729568D01*
X1730187Y729775D01*
X1729256Y730048D01*
X1728346Y730387D01*
X1727463Y730791D01*
X1726612Y731256D01*
X1725795Y731781D01*
X1725018Y732362D01*
X1724284Y732998D01*
X1723598Y733684D01*
X1722962Y734418D01*
X1722381Y735195D01*
X1721856Y736012D01*
X1721391Y736863D01*
X1720987Y737746D01*
X1720648Y738656D01*
X1720375Y739587D01*
X1720168Y740536D01*
X1720030Y741496D01*
X1719961Y742465D01*
X1719961Y743435D01*
X1720030Y744404D01*
X1720168Y745364D01*
X1720375Y746313D01*
X1720648Y747244D01*
X1720987Y748154D01*
X1721391Y749037D01*
X1721856Y749888D01*
X1722381Y750705D01*
X1722962Y751482D01*
X1723598Y752216D01*
X1724284Y752902D01*
X1725018Y753538D01*
X1725795Y754119D01*
X1726612Y754644D01*
X1727463Y755109D01*
X1728346Y755513D01*
X1729256Y755852D01*
X1730187Y756125D01*
X1731136Y756332D01*
X1732096Y756470D01*
X1733065Y756539D01*
X1734035Y756539D01*
X1735004Y756470D01*
X1735964Y756332D01*
X1736913Y756125D01*
X1737844Y755852D01*
X1738754Y755513D01*
X1739637Y755109D01*
X1740488Y754644D01*
X1741305Y754119D01*
X1742082Y753538D01*
X1742816Y752902D01*
X1743502Y752216D01*
X1744138Y751482D01*
X1744719Y750705D01*
X1745244Y749888D01*
X1745709Y749037D01*
X1746113Y748154D01*
X1746452Y747244D01*
X1746725Y746313D01*
X1746932Y745364D01*
X1747070Y744404D01*
X1747139Y743435D01*
X1747139Y742465D01*
X1048639Y742465D02*
X1048570Y741496D01*
X1048432Y740536D01*
X1048225Y739587D01*
X1047952Y738656D01*
X1047613Y737746D01*
X1047209Y736863D01*
X1046744Y736012D01*
X1046219Y735195D01*
X1045638Y734418D01*
X1045002Y733684D01*
X1044316Y732998D01*
X1043582Y732362D01*
X1042805Y731781D01*
X1041988Y731256D01*
X1041137Y730791D01*
X1040254Y730387D01*
X1039344Y730048D01*
X1038413Y729775D01*
X1037464Y729568D01*
X1036504Y729430D01*
X1035535Y729361D01*
X1034565Y729361D01*
X1033596Y729430D01*
X1032636Y729568D01*
X1031687Y729775D01*
X1030756Y730048D01*
X1029846Y730387D01*
X1028963Y730791D01*
X1028112Y731256D01*
X1027295Y731781D01*
X1026518Y732362D01*
X1025784Y732998D01*
X1025098Y733684D01*
X1024462Y734418D01*
X1023881Y735195D01*
X1023356Y736012D01*
X1022891Y736863D01*
X1022487Y737746D01*
X1022148Y738656D01*
X1021875Y739587D01*
X1021668Y740536D01*
X1021530Y741496D01*
X1021461Y742465D01*
X1021461Y743435D01*
X1021530Y744404D01*
X1021668Y745364D01*
X1021875Y746313D01*
X1022148Y747244D01*
X1022487Y748154D01*
X1022891Y749037D01*
X1023356Y749888D01*
X1023881Y750705D01*
X1024462Y751482D01*
X1025098Y752216D01*
X1025784Y752902D01*
X1026518Y753538D01*
X1027295Y754119D01*
X1028112Y754644D01*
X1028963Y755109D01*
X1029846Y755513D01*
X1030756Y755852D01*
X1031687Y756125D01*
X1032636Y756332D01*
X1033596Y756470D01*
X1034565Y756539D01*
X1035535Y756539D01*
X1036504Y756470D01*
X1037464Y756332D01*
X1038413Y756125D01*
X1039344Y755852D01*
X1040254Y755513D01*
X1041137Y755109D01*
X1041988Y754644D01*
X1042805Y754119D01*
X1043582Y753538D01*
X1044316Y752902D01*
X1045002Y752216D01*
X1045638Y751482D01*
X1046219Y750705D01*
X1046744Y749888D01*
X1047209Y749037D01*
X1047613Y748154D01*
X1047952Y747244D01*
X1048225Y746313D01*
X1048432Y745364D01*
X1048570Y744404D01*
X1048639Y743435D01*
X1048639Y742465D01*
X1747139Y412265D02*
X1747070Y411296D01*
X1746932Y410336D01*
X1746725Y409387D01*
X1746452Y408456D01*
X1746113Y407546D01*
X1745709Y406663D01*
X1745244Y405812D01*
X1744719Y404995D01*
X1744138Y404218D01*
X1743502Y403484D01*
X1742816Y402798D01*
X1742082Y402162D01*
X1741305Y401581D01*
X1740488Y401056D01*
X1739637Y400591D01*
X1738754Y400187D01*
X1737844Y399848D01*
X1736913Y399575D01*
X1735964Y399368D01*
X1735004Y399230D01*
X1734035Y399161D01*
X1733065Y399161D01*
X1732096Y399230D01*
X1731136Y399368D01*
X1730187Y399575D01*
X1729256Y399848D01*
X1728346Y400187D01*
X1727463Y400591D01*
X1726612Y401056D01*
X1725795Y401581D01*
X1725018Y402162D01*
X1724284Y402798D01*
X1723598Y403484D01*
X1722962Y404218D01*
X1722381Y404995D01*
X1721856Y405812D01*
X1721391Y406663D01*
X1720987Y407546D01*
X1720648Y408456D01*
X1720375Y409387D01*
X1720168Y410336D01*
X1720030Y411296D01*
X1719961Y412265D01*
X1719961Y413235D01*
X1720030Y414204D01*
X1720168Y415164D01*
X1720375Y416113D01*
X1720648Y417044D01*
X1720987Y417954D01*
X1721391Y418837D01*
X1721856Y419688D01*
X1722381Y420505D01*
X1722962Y421282D01*
X1723598Y422016D01*
X1724284Y422702D01*
X1725018Y423338D01*
X1725795Y423919D01*
X1726612Y424444D01*
X1727463Y424909D01*
X1728346Y425313D01*
X1729256Y425652D01*
X1730187Y425925D01*
X1731136Y426132D01*
X1732096Y426270D01*
X1733065Y426339D01*
X1734035Y426339D01*
X1735004Y426270D01*
X1735964Y426132D01*
X1736913Y425925D01*
X1737844Y425652D01*
X1738754Y425313D01*
X1739637Y424909D01*
X1740488Y424444D01*
X1741305Y423919D01*
X1742082Y423338D01*
X1742816Y422702D01*
X1743502Y422016D01*
X1744138Y421282D01*
X1744719Y420505D01*
X1745244Y419688D01*
X1745709Y418837D01*
X1746113Y417954D01*
X1746452Y417044D01*
X1746725Y416113D01*
X1746932Y415164D01*
X1747070Y414204D01*
X1747139Y413235D01*
X1747139Y412265D01*
X1048639Y412265D02*
X1048570Y411296D01*
X1048432Y410336D01*
X1048225Y409387D01*
X1047952Y408456D01*
X1047613Y407546D01*
X1047209Y406663D01*
X1046744Y405812D01*
X1046219Y404995D01*
X1045638Y404218D01*
X1045002Y403484D01*
X1044316Y402798D01*
X1043582Y402162D01*
X1042805Y401581D01*
X1041988Y401056D01*
X1041137Y400591D01*
X1040254Y400187D01*
X1039344Y399848D01*
X1038413Y399575D01*
X1037464Y399368D01*
X1036504Y399230D01*
X1035535Y399161D01*
X1034565Y399161D01*
X1033596Y399230D01*
X1032636Y399368D01*
X1031687Y399575D01*
X1030756Y399848D01*
X1029846Y400187D01*
X1028963Y400591D01*
X1028112Y401056D01*
X1027295Y401581D01*
X1026518Y402162D01*
X1025784Y402798D01*
X1025098Y403484D01*
X1024462Y404218D01*
X1023881Y404995D01*
X1023356Y405812D01*
X1022891Y406663D01*
X1022487Y407546D01*
X1022148Y408456D01*
X1021875Y409387D01*
X1021668Y410336D01*
X1021530Y411296D01*
X1021461Y412265D01*
X1021461Y413235D01*
X1021530Y414204D01*
X1021668Y415164D01*
X1021875Y416113D01*
X1022148Y417044D01*
X1022487Y417954D01*
X1022891Y418837D01*
X1023356Y419688D01*
X1023881Y420505D01*
X1024462Y421282D01*
X1025098Y422016D01*
X1025784Y422702D01*
X1026518Y423338D01*
X1027295Y423919D01*
X1028112Y424444D01*
X1028963Y424909D01*
X1029846Y425313D01*
X1030756Y425652D01*
X1031687Y425925D01*
X1032636Y426132D01*
X1033596Y426270D01*
X1034565Y426339D01*
X1035535Y426339D01*
X1036504Y426270D01*
X1037464Y426132D01*
X1038413Y425925D01*
X1039344Y425652D01*
X1040254Y425313D01*
X1041137Y424909D01*
X1041988Y424444D01*
X1042805Y423919D01*
X1043582Y423338D01*
X1044316Y422702D01*
X1045002Y422016D01*
X1045638Y421282D01*
X1046219Y420505D01*
X1046744Y419688D01*
X1047209Y418837D01*
X1047613Y417954D01*
X1047952Y417044D01*
X1048225Y416113D01*
X1048432Y415164D01*
X1048570Y414204D01*
X1048639Y413235D01*
X1048639Y412265D01*
X1747139Y82065D02*
X1747070Y81096D01*
X1746932Y80136D01*
X1746725Y79187D01*
X1746452Y78256D01*
X1746113Y77346D01*
X1745709Y76463D01*
X1745244Y75612D01*
X1744719Y74795D01*
X1744138Y74018D01*
X1743502Y73284D01*
X1742816Y72598D01*
X1742082Y71962D01*
X1741305Y71381D01*
X1740488Y70856D01*
X1739637Y70391D01*
X1738754Y69987D01*
X1737844Y69648D01*
X1736913Y69375D01*
X1735964Y69168D01*
X1735004Y69030D01*
X1734035Y68961D01*
X1733065Y68961D01*
X1732096Y69030D01*
X1731136Y69168D01*
X1730187Y69375D01*
X1729256Y69648D01*
X1728346Y69987D01*
X1727463Y70391D01*
X1726612Y70856D01*
X1725795Y71381D01*
X1725018Y71962D01*
X1724284Y72598D01*
X1723598Y73284D01*
X1722962Y74018D01*
X1722381Y74795D01*
X1721856Y75612D01*
X1721391Y76463D01*
X1720987Y77346D01*
X1720648Y78256D01*
X1720375Y79187D01*
X1720168Y80136D01*
X1720030Y81096D01*
X1719961Y82065D01*
X1719961Y83035D01*
X1720030Y84004D01*
X1720168Y84964D01*
X1720375Y85913D01*
X1720648Y86844D01*
X1720987Y87754D01*
X1721391Y88637D01*
X1721856Y89488D01*
X1722381Y90305D01*
X1722962Y91082D01*
X1723598Y91816D01*
X1724284Y92502D01*
X1725018Y93138D01*
X1725795Y93719D01*
X1726612Y94244D01*
X1727463Y94709D01*
X1728346Y95113D01*
X1729256Y95452D01*
X1730187Y95725D01*
X1731136Y95932D01*
X1732096Y96070D01*
X1733065Y96139D01*
X1734035Y96139D01*
X1735004Y96070D01*
X1735964Y95932D01*
X1736913Y95725D01*
X1737844Y95452D01*
X1738754Y95113D01*
X1739637Y94709D01*
X1740488Y94244D01*
X1741305Y93719D01*
X1742082Y93138D01*
X1742816Y92502D01*
X1743502Y91816D01*
X1744138Y91082D01*
X1744719Y90305D01*
X1745244Y89488D01*
X1745709Y88637D01*
X1746113Y87754D01*
X1746452Y86844D01*
X1746725Y85913D01*
X1746932Y84964D01*
X1747070Y84004D01*
X1747139Y83035D01*
X1747139Y82065D01*
X1048639Y82065D02*
X1048570Y81096D01*
X1048432Y80136D01*
X1048225Y79187D01*
X1047952Y78256D01*
X1047613Y77346D01*
X1047209Y76463D01*
X1046744Y75612D01*
X1046219Y74795D01*
X1045638Y74018D01*
X1045002Y73284D01*
X1044316Y72598D01*
X1043582Y71962D01*
X1042805Y71381D01*
X1041988Y70856D01*
X1041137Y70391D01*
X1040254Y69987D01*
X1039344Y69648D01*
X1038413Y69375D01*
X1037464Y69168D01*
X1036504Y69030D01*
X1035535Y68961D01*
X1034565Y68961D01*
X1033596Y69030D01*
X1032636Y69168D01*
X1031687Y69375D01*
X1030756Y69648D01*
X1029846Y69987D01*
X1028963Y70391D01*
X1028112Y70856D01*
X1027295Y71381D01*
X1026518Y71962D01*
X1025784Y72598D01*
X1025098Y73284D01*
X1024462Y74018D01*
X1023881Y74795D01*
X1023356Y75612D01*
X1022891Y76463D01*
X1022487Y77346D01*
X1022148Y78256D01*
X1021875Y79187D01*
X1021668Y80136D01*
X1021530Y81096D01*
X1021461Y82065D01*
X1021461Y83035D01*
X1021530Y84004D01*
X1021668Y84964D01*
X1021875Y85913D01*
X1022148Y86844D01*
X1022487Y87754D01*
X1022891Y88637D01*
X1023356Y89488D01*
X1023881Y90305D01*
X1024462Y91082D01*
X1025098Y91816D01*
X1025784Y92502D01*
X1026518Y93138D01*
X1027295Y93719D01*
X1028112Y94244D01*
X1028963Y94709D01*
X1029846Y95113D01*
X1030756Y95452D01*
X1031687Y95725D01*
X1032636Y95932D01*
X1033596Y96070D01*
X1034565Y96139D01*
X1035535Y96139D01*
X1036504Y96070D01*
X1037464Y95932D01*
X1038413Y95725D01*
X1039344Y95452D01*
X1040254Y95113D01*
X1041137Y94709D01*
X1041988Y94244D01*
X1042805Y93719D01*
X1043582Y93138D01*
X1044316Y92502D01*
X1045002Y91816D01*
X1045638Y91082D01*
X1046219Y90305D01*
X1046744Y89488D01*
X1047209Y88637D01*
X1047613Y87754D01*
X1047952Y86844D01*
X1048225Y85913D01*
X1048432Y84964D01*
X1048570Y84004D01*
X1048639Y83035D01*
X1048639Y82065D01*
X2712339Y1072665D02*
X2712270Y1071696D01*
X2712132Y1070736D01*
X2711925Y1069787D01*
X2711652Y1068856D01*
X2711313Y1067946D01*
X2710909Y1067063D01*
X2710444Y1066212D01*
X2709919Y1065395D01*
X2709338Y1064618D01*
X2708702Y1063884D01*
X2708016Y1063198D01*
X2707282Y1062562D01*
X2706505Y1061981D01*
X2705688Y1061456D01*
X2704837Y1060991D01*
X2703954Y1060587D01*
X2703044Y1060248D01*
X2702113Y1059975D01*
X2701164Y1059768D01*
X2700204Y1059630D01*
X2699235Y1059561D01*
X2698265Y1059561D01*
X2697296Y1059630D01*
X2696336Y1059768D01*
X2695387Y1059975D01*
X2694456Y1060248D01*
X2693546Y1060587D01*
X2692663Y1060991D01*
X2691812Y1061456D01*
X2690995Y1061981D01*
X2690218Y1062562D01*
X2689484Y1063198D01*
X2688798Y1063884D01*
X2688162Y1064618D01*
X2687581Y1065395D01*
X2687056Y1066212D01*
X2686591Y1067063D01*
X2686187Y1067946D01*
X2685848Y1068856D01*
X2685575Y1069787D01*
X2685368Y1070736D01*
X2685230Y1071696D01*
X2685161Y1072665D01*
X2685161Y1073635D01*
X2685230Y1074604D01*
X2685368Y1075564D01*
X2685575Y1076513D01*
X2685848Y1077444D01*
X2686187Y1078354D01*
X2686591Y1079237D01*
X2687056Y1080088D01*
X2687581Y1080905D01*
X2688162Y1081682D01*
X2688798Y1082416D01*
X2689484Y1083102D01*
X2690218Y1083738D01*
X2690995Y1084319D01*
X2691812Y1084844D01*
X2692663Y1085309D01*
X2693546Y1085713D01*
X2694456Y1086052D01*
X2695387Y1086325D01*
X2696336Y1086532D01*
X2697296Y1086670D01*
X2698265Y1086739D01*
X2699235Y1086739D01*
X2700204Y1086670D01*
X2701164Y1086532D01*
X2702113Y1086325D01*
X2703044Y1086052D01*
X2703954Y1085713D01*
X2704837Y1085309D01*
X2705688Y1084844D01*
X2706505Y1084319D01*
X2707282Y1083738D01*
X2708016Y1083102D01*
X2708702Y1082416D01*
X2709338Y1081682D01*
X2709919Y1080905D01*
X2710444Y1080088D01*
X2710909Y1079237D01*
X2711313Y1078354D01*
X2711652Y1077444D01*
X2711925Y1076513D01*
X2712132Y1075564D01*
X2712270Y1074604D01*
X2712339Y1073635D01*
X2712339Y1072665D01*
X2013839Y1072665D02*
X2013770Y1071696D01*
X2013632Y1070736D01*
X2013425Y1069787D01*
X2013152Y1068856D01*
X2012813Y1067946D01*
X2012409Y1067063D01*
X2011944Y1066212D01*
X2011419Y1065395D01*
X2010838Y1064618D01*
X2010202Y1063884D01*
X2009516Y1063198D01*
X2008782Y1062562D01*
X2008005Y1061981D01*
X2007188Y1061456D01*
X2006337Y1060991D01*
X2005454Y1060587D01*
X2004544Y1060248D01*
X2003613Y1059975D01*
X2002664Y1059768D01*
X2001704Y1059630D01*
X2000735Y1059561D01*
X1999765Y1059561D01*
X1998796Y1059630D01*
X1997836Y1059768D01*
X1996887Y1059975D01*
X1995956Y1060248D01*
X1995046Y1060587D01*
X1994163Y1060991D01*
X1993312Y1061456D01*
X1992495Y1061981D01*
X1991718Y1062562D01*
X1990984Y1063198D01*
X1990298Y1063884D01*
X1989662Y1064618D01*
X1989081Y1065395D01*
X1988556Y1066212D01*
X1988091Y1067063D01*
X1987687Y1067946D01*
X1987348Y1068856D01*
X1987075Y1069787D01*
X1986868Y1070736D01*
X1986730Y1071696D01*
X1986661Y1072665D01*
X1986661Y1073635D01*
X1986730Y1074604D01*
X1986868Y1075564D01*
X1987075Y1076513D01*
X1987348Y1077444D01*
X1987687Y1078354D01*
X1988091Y1079237D01*
X1988556Y1080088D01*
X1989081Y1080905D01*
X1989662Y1081682D01*
X1990298Y1082416D01*
X1990984Y1083102D01*
X1991718Y1083738D01*
X1992495Y1084319D01*
X1993312Y1084844D01*
X1994163Y1085309D01*
X1995046Y1085713D01*
X1995956Y1086052D01*
X1996887Y1086325D01*
X1997836Y1086532D01*
X1998796Y1086670D01*
X1999765Y1086739D01*
X2000735Y1086739D01*
X2001704Y1086670D01*
X2002664Y1086532D01*
X2003613Y1086325D01*
X2004544Y1086052D01*
X2005454Y1085713D01*
X2006337Y1085309D01*
X2007188Y1084844D01*
X2008005Y1084319D01*
X2008782Y1083738D01*
X2009516Y1083102D01*
X2010202Y1082416D01*
X2010838Y1081682D01*
X2011419Y1080905D01*
X2011944Y1080088D01*
X2012409Y1079237D01*
X2012813Y1078354D01*
X2013152Y1077444D01*
X2013425Y1076513D01*
X2013632Y1075564D01*
X2013770Y1074604D01*
X2013839Y1073635D01*
X2013839Y1072665D01*
X2712339Y742465D02*
X2712270Y741496D01*
X2712132Y740536D01*
X2711925Y739587D01*
X2711652Y738656D01*
X2711313Y737746D01*
X2710909Y736863D01*
X2710444Y736012D01*
X2709919Y735195D01*
X2709338Y734418D01*
X2708702Y733684D01*
X2708016Y732998D01*
X2707282Y732362D01*
X2706505Y731781D01*
X2705688Y731256D01*
X2704837Y730791D01*
X2703954Y730387D01*
X2703044Y730048D01*
X2702113Y729775D01*
X2701164Y729568D01*
X2700204Y729430D01*
X2699235Y729361D01*
X2698265Y729361D01*
X2697296Y729430D01*
X2696336Y729568D01*
X2695387Y729775D01*
X2694456Y730048D01*
X2693546Y730387D01*
X2692663Y730791D01*
X2691812Y731256D01*
X2690995Y731781D01*
X2690218Y732362D01*
X2689484Y732998D01*
X2688798Y733684D01*
X2688162Y734418D01*
X2687581Y735195D01*
X2687056Y736012D01*
X2686591Y736863D01*
X2686187Y737746D01*
X2685848Y738656D01*
X2685575Y739587D01*
X2685368Y740536D01*
X2685230Y741496D01*
X2685161Y742465D01*
X2685161Y743435D01*
X2685230Y744404D01*
X2685368Y745364D01*
X2685575Y746313D01*
X2685848Y747244D01*
X2686187Y748154D01*
X2686591Y749037D01*
X2687056Y749888D01*
X2687581Y750705D01*
X2688162Y751482D01*
X2688798Y752216D01*
X2689484Y752902D01*
X2690218Y753538D01*
X2690995Y754119D01*
X2691812Y754644D01*
X2692663Y755109D01*
X2693546Y755513D01*
X2694456Y755852D01*
X2695387Y756125D01*
X2696336Y756332D01*
X2697296Y756470D01*
X2698265Y756539D01*
X2699235Y756539D01*
X2700204Y756470D01*
X2701164Y756332D01*
X2702113Y756125D01*
X2703044Y755852D01*
X2703954Y755513D01*
X2704837Y755109D01*
X2705688Y754644D01*
X2706505Y754119D01*
X2707282Y753538D01*
X2708016Y752902D01*
X2708702Y752216D01*
X2709338Y751482D01*
X2709919Y750705D01*
X2710444Y749888D01*
X2710909Y749037D01*
X2711313Y748154D01*
X2711652Y747244D01*
X2711925Y746313D01*
X2712132Y745364D01*
X2712270Y744404D01*
X2712339Y743435D01*
X2712339Y742465D01*
X2013839Y742465D02*
X2013770Y741496D01*
X2013632Y740536D01*
X2013425Y739587D01*
X2013152Y738656D01*
X2012813Y737746D01*
X2012409Y736863D01*
X2011944Y736012D01*
X2011419Y735195D01*
X2010838Y734418D01*
X2010202Y733684D01*
X2009516Y732998D01*
X2008782Y732362D01*
X2008005Y731781D01*
X2007188Y731256D01*
X2006337Y730791D01*
X2005454Y730387D01*
X2004544Y730048D01*
X2003613Y729775D01*
X2002664Y729568D01*
X2001704Y729430D01*
X2000735Y729361D01*
X1999765Y729361D01*
X1998796Y729430D01*
X1997836Y729568D01*
X1996887Y729775D01*
X1995956Y730048D01*
X1995046Y730387D01*
X1994163Y730791D01*
X1993312Y731256D01*
X1992495Y731781D01*
X1991718Y732362D01*
X1990984Y732998D01*
X1990298Y733684D01*
X1989662Y734418D01*
X1989081Y735195D01*
X1988556Y736012D01*
X1988091Y736863D01*
X1987687Y737746D01*
X1987348Y738656D01*
X1987075Y739587D01*
X1986868Y740536D01*
X1986730Y741496D01*
X1986661Y742465D01*
X1986661Y743435D01*
X1986730Y744404D01*
X1986868Y745364D01*
X1987075Y746313D01*
X1987348Y747244D01*
X1987687Y748154D01*
X1988091Y749037D01*
X1988556Y749888D01*
X1989081Y750705D01*
X1989662Y751482D01*
X1990298Y752216D01*
X1990984Y752902D01*
X1991718Y753538D01*
X1992495Y754119D01*
X1993312Y754644D01*
X1994163Y755109D01*
X1995046Y755513D01*
X1995956Y755852D01*
X1996887Y756125D01*
X1997836Y756332D01*
X1998796Y756470D01*
X1999765Y756539D01*
X2000735Y756539D01*
X2001704Y756470D01*
X2002664Y756332D01*
X2003613Y756125D01*
X2004544Y755852D01*
X2005454Y755513D01*
X2006337Y755109D01*
X2007188Y754644D01*
X2008005Y754119D01*
X2008782Y753538D01*
X2009516Y752902D01*
X2010202Y752216D01*
X2010838Y751482D01*
X2011419Y750705D01*
X2011944Y749888D01*
X2012409Y749037D01*
X2012813Y748154D01*
X2013152Y747244D01*
X2013425Y746313D01*
X2013632Y745364D01*
X2013770Y744404D01*
X2013839Y743435D01*
X2013839Y742465D01*
X2331339Y412265D02*
X2331270Y411296D01*
X2331132Y410336D01*
X2330925Y409387D01*
X2330652Y408456D01*
X2330313Y407546D01*
X2329909Y406663D01*
X2329444Y405812D01*
X2328919Y404995D01*
X2328338Y404218D01*
X2327702Y403484D01*
X2327016Y402798D01*
X2326282Y402162D01*
X2325505Y401581D01*
X2324688Y401056D01*
X2323837Y400591D01*
X2322954Y400187D01*
X2322044Y399848D01*
X2321113Y399575D01*
X2320164Y399368D01*
X2319204Y399230D01*
X2318235Y399161D01*
X2317265Y399161D01*
X2316296Y399230D01*
X2315336Y399368D01*
X2314387Y399575D01*
X2313456Y399848D01*
X2312546Y400187D01*
X2311663Y400591D01*
X2310812Y401056D01*
X2309995Y401581D01*
X2309218Y402162D01*
X2308484Y402798D01*
X2307798Y403484D01*
X2307162Y404218D01*
X2306581Y404995D01*
X2306056Y405812D01*
X2305591Y406663D01*
X2305187Y407546D01*
X2304848Y408456D01*
X2304575Y409387D01*
X2304368Y410336D01*
X2304230Y411296D01*
X2304161Y412265D01*
X2304161Y413235D01*
X2304230Y414204D01*
X2304368Y415164D01*
X2304575Y416113D01*
X2304848Y417044D01*
X2305187Y417954D01*
X2305591Y418837D01*
X2306056Y419688D01*
X2306581Y420505D01*
X2307162Y421282D01*
X2307798Y422016D01*
X2308484Y422702D01*
X2309218Y423338D01*
X2309995Y423919D01*
X2310812Y424444D01*
X2311663Y424909D01*
X2312546Y425313D01*
X2313456Y425652D01*
X2314387Y425925D01*
X2315336Y426132D01*
X2316296Y426270D01*
X2317265Y426339D01*
X2318235Y426339D01*
X2319204Y426270D01*
X2320164Y426132D01*
X2321113Y425925D01*
X2322044Y425652D01*
X2322954Y425313D01*
X2323837Y424909D01*
X2324688Y424444D01*
X2325505Y423919D01*
X2326282Y423338D01*
X2327016Y422702D01*
X2327702Y422016D01*
X2328338Y421282D01*
X2328919Y420505D01*
X2329444Y419688D01*
X2329909Y418837D01*
X2330313Y417954D01*
X2330652Y417044D01*
X2330925Y416113D01*
X2331132Y415164D01*
X2331270Y414204D01*
X2331339Y413235D01*
X2331339Y412265D01*
X2013839Y412265D02*
X2013770Y411296D01*
X2013632Y410336D01*
X2013425Y409387D01*
X2013152Y408456D01*
X2012813Y407546D01*
X2012409Y406663D01*
X2011944Y405812D01*
X2011419Y404995D01*
X2010838Y404218D01*
X2010202Y403484D01*
X2009516Y402798D01*
X2008782Y402162D01*
X2008005Y401581D01*
X2007188Y401056D01*
X2006337Y400591D01*
X2005454Y400187D01*
X2004544Y399848D01*
X2003613Y399575D01*
X2002664Y399368D01*
X2001704Y399230D01*
X2000735Y399161D01*
X1999765Y399161D01*
X1998796Y399230D01*
X1997836Y399368D01*
X1996887Y399575D01*
X1995956Y399848D01*
X1995046Y400187D01*
X1994163Y400591D01*
X1993312Y401056D01*
X1992495Y401581D01*
X1991718Y402162D01*
X1990984Y402798D01*
X1990298Y403484D01*
X1989662Y404218D01*
X1989081Y404995D01*
X1988556Y405812D01*
X1988091Y406663D01*
X1987687Y407546D01*
X1987348Y408456D01*
X1987075Y409387D01*
X1986868Y410336D01*
X1986730Y411296D01*
X1986661Y412265D01*
X1986661Y413235D01*
X1986730Y414204D01*
X1986868Y415164D01*
X1987075Y416113D01*
X1987348Y417044D01*
X1987687Y417954D01*
X1988091Y418837D01*
X1988556Y419688D01*
X1989081Y420505D01*
X1989662Y421282D01*
X1990298Y422016D01*
X1990984Y422702D01*
X1991718Y423338D01*
X1992495Y423919D01*
X1993312Y424444D01*
X1994163Y424909D01*
X1995046Y425313D01*
X1995956Y425652D01*
X1996887Y425925D01*
X1997836Y426132D01*
X1998796Y426270D01*
X1999765Y426339D01*
X2000735Y426339D01*
X2001704Y426270D01*
X2002664Y426132D01*
X2003613Y425925D01*
X2004544Y425652D01*
X2005454Y425313D01*
X2006337Y424909D01*
X2007188Y424444D01*
X2008005Y423919D01*
X2008782Y423338D01*
X2009516Y422702D01*
X2010202Y422016D01*
X2010838Y421282D01*
X2011419Y420505D01*
X2011944Y419688D01*
X2012409Y418837D01*
X2012813Y417954D01*
X2013152Y417044D01*
X2013425Y416113D01*
X2013632Y415164D01*
X2013770Y414204D01*
X2013839Y413235D01*
X2013839Y412265D01*
X207010Y62960D02*
X206939Y61881D01*
X206798Y60809D01*
X206587Y59749D01*
X206308Y58705D01*
X205960Y57681D01*
X205546Y56683D01*
X205068Y55713D01*
X204528Y54777D01*
X203927Y53878D01*
X203269Y53021D01*
X202557Y52208D01*
X201792Y51444D01*
X200979Y50731D01*
X200122Y50073D01*
X199223Y49472D01*
X198287Y48932D01*
X197317Y48454D01*
X196319Y48040D01*
X195295Y47692D01*
X194251Y47413D01*
X193191Y47202D01*
X192119Y47061D01*
X191040Y46990D01*
X189960Y46990D01*
X188881Y47061D01*
X187809Y47202D01*
X186749Y47413D01*
X185705Y47692D01*
X184681Y48040D01*
X183683Y48454D01*
X182713Y48932D01*
X181777Y49472D01*
X180878Y50073D01*
X180021Y50731D01*
X179208Y51444D01*
X178444Y52208D01*
X177731Y53021D01*
X177073Y53878D01*
X176472Y54777D01*
X175932Y55713D01*
X175454Y56683D01*
X175040Y57681D01*
X174692Y58705D01*
X174413Y59749D01*
X174202Y60809D01*
X174061Y61881D01*
X173990Y62960D01*
X173990Y64040D01*
X174061Y65119D01*
X174202Y66191D01*
X174413Y67251D01*
X174692Y68295D01*
X175040Y69319D01*
X175454Y70317D01*
X175932Y71287D01*
X176472Y72223D01*
X177073Y73122D01*
X177731Y73979D01*
X178444Y74792D01*
X179208Y75557D01*
X180021Y76269D01*
X180878Y76927D01*
X181777Y77528D01*
X182713Y78068D01*
X183683Y78546D01*
X184681Y78960D01*
X185705Y79308D01*
X186749Y79587D01*
X187809Y79798D01*
X188881Y79939D01*
X189960Y80010D01*
X191040Y80010D01*
X192119Y79939D01*
X193191Y79798D01*
X194251Y79587D01*
X195295Y79308D01*
X196319Y78960D01*
X197317Y78546D01*
X198287Y78068D01*
X199223Y77528D01*
X200122Y76927D01*
X200979Y76269D01*
X201792Y75557D01*
X202557Y74792D01*
X203269Y73979D01*
X203927Y73122D01*
X204528Y72223D01*
X205068Y71287D01*
X205546Y70317D01*
X205960Y69319D01*
X206308Y68295D01*
X206587Y67251D01*
X206798Y66191D01*
X206939Y65119D01*
X207010Y64040D01*
X207010Y62960D01*
X207010Y1332960D02*
X206939Y1331881D01*
X206798Y1330809D01*
X206587Y1329749D01*
X206308Y1328705D01*
X205960Y1327681D01*
X205546Y1326683D01*
X205068Y1325713D01*
X204528Y1324777D01*
X203927Y1323878D01*
X203269Y1323021D01*
X202557Y1322208D01*
X201792Y1321444D01*
X200979Y1320731D01*
X200122Y1320073D01*
X199223Y1319472D01*
X198287Y1318932D01*
X197317Y1318454D01*
X196319Y1318040D01*
X195295Y1317692D01*
X194251Y1317413D01*
X193191Y1317202D01*
X192119Y1317061D01*
X191040Y1316990D01*
X189960Y1316990D01*
X188881Y1317061D01*
X187809Y1317202D01*
X186749Y1317413D01*
X185705Y1317692D01*
X184681Y1318040D01*
X183683Y1318454D01*
X182713Y1318932D01*
X181777Y1319472D01*
X180878Y1320073D01*
X180021Y1320731D01*
X179208Y1321444D01*
X178444Y1322208D01*
X177731Y1323021D01*
X177073Y1323878D01*
X176472Y1324777D01*
X175932Y1325713D01*
X175454Y1326683D01*
X175040Y1327681D01*
X174692Y1328705D01*
X174413Y1329749D01*
X174202Y1330809D01*
X174061Y1331881D01*
X173990Y1332960D01*
X173990Y1334040D01*
X174061Y1335119D01*
X174202Y1336191D01*
X174413Y1337251D01*
X174692Y1338295D01*
X175040Y1339319D01*
X175454Y1340317D01*
X175932Y1341287D01*
X176472Y1342223D01*
X177073Y1343122D01*
X177731Y1343979D01*
X178444Y1344792D01*
X179208Y1345557D01*
X180021Y1346269D01*
X180878Y1346927D01*
X181777Y1347528D01*
X182713Y1348068D01*
X183683Y1348546D01*
X184681Y1348960D01*
X185705Y1349308D01*
X186749Y1349587D01*
X187809Y1349798D01*
X188881Y1349939D01*
X189960Y1350010D01*
X191040Y1350010D01*
X192119Y1349939D01*
X193191Y1349798D01*
X194251Y1349587D01*
X195295Y1349308D01*
X196319Y1348960D01*
X197317Y1348546D01*
X198287Y1348068D01*
X199223Y1347528D01*
X200122Y1346927D01*
X200979Y1346269D01*
X201792Y1345557D01*
X202557Y1344792D01*
X203269Y1343979D01*
X203927Y1343122D01*
X204528Y1342223D01*
X205068Y1341287D01*
X205546Y1340317D01*
X205960Y1339319D01*
X206308Y1338295D01*
X206587Y1337251D01*
X206798Y1336191D01*
X206939Y1335119D01*
X207010Y1334040D01*
X207010Y1332960D01*
X2747010Y1332960D02*
X2746939Y1331881D01*
X2746798Y1330809D01*
X2746587Y1329749D01*
X2746308Y1328705D01*
X2745960Y1327681D01*
X2745546Y1326683D01*
X2745068Y1325713D01*
X2744528Y1324777D01*
X2743927Y1323878D01*
X2743269Y1323021D01*
X2742557Y1322208D01*
X2741792Y1321444D01*
X2740979Y1320731D01*
X2740122Y1320073D01*
X2739223Y1319472D01*
X2738287Y1318932D01*
X2737317Y1318454D01*
X2736319Y1318040D01*
X2735295Y1317692D01*
X2734251Y1317413D01*
X2733191Y1317202D01*
X2732119Y1317061D01*
X2731040Y1316990D01*
X2729960Y1316990D01*
X2728881Y1317061D01*
X2727809Y1317202D01*
X2726749Y1317413D01*
X2725705Y1317692D01*
X2724681Y1318040D01*
X2723683Y1318454D01*
X2722713Y1318932D01*
X2721777Y1319472D01*
X2720878Y1320073D01*
X2720021Y1320731D01*
X2719208Y1321444D01*
X2718444Y1322208D01*
X2717731Y1323021D01*
X2717073Y1323878D01*
X2716472Y1324777D01*
X2715932Y1325713D01*
X2715454Y1326683D01*
X2715040Y1327681D01*
X2714692Y1328705D01*
X2714413Y1329749D01*
X2714202Y1330809D01*
X2714061Y1331881D01*
X2713990Y1332960D01*
X2713990Y1334040D01*
X2714061Y1335119D01*
X2714202Y1336191D01*
X2714413Y1337251D01*
X2714692Y1338295D01*
X2715040Y1339319D01*
X2715454Y1340317D01*
X2715932Y1341287D01*
X2716472Y1342223D01*
X2717073Y1343122D01*
X2717731Y1343979D01*
X2718444Y1344792D01*
X2719208Y1345557D01*
X2720021Y1346269D01*
X2720878Y1346927D01*
X2721777Y1347528D01*
X2722713Y1348068D01*
X2723683Y1348546D01*
X2724681Y1348960D01*
X2725705Y1349308D01*
X2726749Y1349587D01*
X2727809Y1349798D01*
X2728881Y1349939D01*
X2729960Y1350010D01*
X2731040Y1350010D01*
X2732119Y1349939D01*
X2733191Y1349798D01*
X2734251Y1349587D01*
X2735295Y1349308D01*
X2736319Y1348960D01*
X2737317Y1348546D01*
X2738287Y1348068D01*
X2739223Y1347528D01*
X2740122Y1346927D01*
X2740979Y1346269D01*
X2741792Y1345557D01*
X2742557Y1344792D01*
X2743269Y1343979D01*
X2743927Y1343122D01*
X2744528Y1342223D01*
X2745068Y1341287D01*
X2745546Y1340317D01*
X2745960Y1339319D01*
X2746308Y1338295D01*
X2746587Y1337251D01*
X2746798Y1336191D01*
X2746939Y1335119D01*
X2747010Y1334040D01*
X2747010Y1332960D01*
X2747010Y62960D02*
X2746939Y61881D01*
X2746798Y60809D01*
X2746587Y59749D01*
X2746308Y58705D01*
X2745960Y57681D01*
X2745546Y56683D01*
X2745068Y55713D01*
X2744528Y54777D01*
X2743927Y53878D01*
X2743269Y53021D01*
X2742557Y52208D01*
X2741792Y51444D01*
X2740979Y50731D01*
X2740122Y50073D01*
X2739223Y49472D01*
X2738287Y48932D01*
X2737317Y48454D01*
X2736319Y48040D01*
X2735295Y47692D01*
X2734251Y47413D01*
X2733191Y47202D01*
X2732119Y47061D01*
X2731040Y46990D01*
X2729960Y46990D01*
X2728881Y47061D01*
X2727809Y47202D01*
X2726749Y47413D01*
X2725705Y47692D01*
X2724681Y48040D01*
X2723683Y48454D01*
X2722713Y48932D01*
X2721777Y49472D01*
X2720878Y50073D01*
X2720021Y50731D01*
X2719208Y51444D01*
X2718444Y52208D01*
X2717731Y53021D01*
X2717073Y53878D01*
X2716472Y54777D01*
X2715932Y55713D01*
X2715454Y56683D01*
X2715040Y57681D01*
X2714692Y58705D01*
X2714413Y59749D01*
X2714202Y60809D01*
X2714061Y61881D01*
X2713990Y62960D01*
X2713990Y64040D01*
X2714061Y65119D01*
X2714202Y66191D01*
X2714413Y67251D01*
X2714692Y68295D01*
X2715040Y69319D01*
X2715454Y70317D01*
X2715932Y71287D01*
X2716472Y72223D01*
X2717073Y73122D01*
X2717731Y73979D01*
X2718444Y74792D01*
X2719208Y75557D01*
X2720021Y76269D01*
X2720878Y76927D01*
X2721777Y77528D01*
X2722713Y78068D01*
X2723683Y78546D01*
X2724681Y78960D01*
X2725705Y79308D01*
X2726749Y79587D01*
X2727809Y79798D01*
X2728881Y79939D01*
X2729960Y80010D01*
X2731040Y80010D01*
X2732119Y79939D01*
X2733191Y79798D01*
X2734251Y79587D01*
X2735295Y79308D01*
X2736319Y78960D01*
X2737317Y78546D01*
X2738287Y78068D01*
X2739223Y77528D01*
X2740122Y76927D01*
X2740979Y76269D01*
X2741792Y75557D01*
X2742557Y74792D01*
X2743269Y73979D01*
X2743927Y73122D01*
X2744528Y72223D01*
X2745068Y71287D01*
X2745546Y70317D01*
X2745960Y69319D01*
X2746308Y68295D01*
X2746587Y67251D01*
X2746798Y66191D01*
X2746939Y65119D01*
X2747010Y64040D01*
X2747010Y62960D01*
M02*
