M48
;GenerationSoftware,Autodesk,EAGLE,9.0.1*%
;CreationDate,2018-06-24T20:08:14Z*%
FMAT,2
ICI,OFF
METRIC,TZ,000.000
T15C0.356
T14C0.508
T13C0.762
T12C0.800
T11C0.813
T10C0.900
T9C0.965
T8C1.000
T7C1.016
T6C1.200
T5C1.600
T4C2.200
T3C2.718
T2C3.000
T1C3.302
%
G90
M71
T1
X19050Y6350
X19050Y133350
X273050Y133350
X273050Y6350
T2
X32920Y9290
X32920Y3390
X37620Y6290
T3
X203835Y41275
X177165Y107315
X107315Y107315
X177165Y74295
X107315Y74295
X177165Y41275
X235585Y41275
X203835Y74295
X273685Y74295
X203835Y107315
X273685Y107315
X107315Y8255
X177165Y8255
X107315Y41275
T4
X5080Y106680
X5080Y133350
X5080Y123190
X5080Y96520
T5
X66040Y57150
X48260Y11430
X45720Y57150
X55880Y57150
X58420Y11430
X63500Y11430
T6
X5080Y48910
X5080Y24130
X5080Y27630
X5080Y31130
X5080Y41910
X5080Y45410
X5080Y6350
X5080Y9850
X5080Y13350
T7
X215900Y96520
X213360Y96520
X271780Y129540
X269240Y129540
X266700Y129540
X264160Y129540
X261620Y129540
X218440Y96520
X220980Y96520
X223520Y96520
X226060Y96520
X228600Y96520
X231140Y96520
X233680Y96520
X236220Y96520
X238760Y96520
X241300Y96520
X243840Y96520
X246380Y96520
X248920Y96520
X251460Y96520
X254000Y96520
X256540Y96520
X259080Y96520
X261620Y96520
X259080Y129540
X256540Y129540
X254000Y129540
X251460Y129540
X248920Y129540
X246380Y129540
X243840Y129540
X241300Y129540
X264160Y96520
X266700Y96520
X269240Y96520
X238760Y129540
X236220Y129540
X233680Y129540
X231140Y129540
X228600Y129540
X226060Y129540
X223520Y129540
X220980Y129540
X218440Y129540
X215900Y129540
X213360Y129540
X175260Y30480
X172720Y30480
X170180Y30480
X167640Y30480
X165100Y30480
X162560Y30480
X160020Y30480
X119380Y63500
X121920Y63500
X124460Y63500
X157480Y30480
X154940Y30480
X271780Y96520
X229870Y15240
X232410Y15240
X242570Y15240
X245110Y15240
X213360Y63500
X215900Y63500
X218440Y63500
X6350Y69850
X6350Y72390
X6350Y74930
X6350Y58420
X6350Y60960
X6350Y63500
X220980Y63500
X223520Y63500
X226060Y63500
X228600Y63500
X231140Y63500
X6350Y81280
X116840Y129540
X119380Y129540
X121920Y129540
X124460Y129540
X127000Y129540
X129540Y129540
X132080Y129540
X134620Y129540
X137160Y129540
X139700Y129540
X142240Y129540
X144780Y129540
X147320Y129540
X149860Y129540
X152400Y129540
X154940Y129540
X157480Y129540
X160020Y129540
X162560Y129540
X165100Y129540
X167640Y129540
X170180Y129540
X172720Y129540
X175260Y129540
X127000Y63500
X129540Y63500
X132080Y63500
X134620Y63500
X137160Y63500
X139700Y63500
X266065Y10922
X19558Y115697
X38354Y71374
X33909Y133096
X36576Y17272
X142240Y63500
X144780Y63500
X147320Y63500
X149860Y63500
X152400Y63500
X154940Y63500
X157480Y63500
X160020Y63500
X162560Y63500
X175260Y96520
X172720Y96520
X170180Y96520
X167640Y96520
X165100Y96520
X162560Y96520
X160020Y96520
X157480Y96520
X154940Y96520
X152400Y96520
X116840Y63500
X149860Y96520
X147320Y96520
X144780Y96520
X142240Y96520
X139700Y96520
X137160Y96520
X134620Y96520
X132080Y96520
X129540Y96520
X127000Y96520
X124460Y96520
X121920Y96520
X119380Y96520
X116840Y96520
X165100Y63500
X167640Y63500
X170180Y63500
X172720Y63500
X175260Y63500
X116840Y30480
X119380Y30480
X121920Y30480
X124460Y30480
X127000Y30480
X129540Y30480
X132080Y30480
X134620Y30480
X137160Y30480
X139700Y30480
X142240Y30480
X144780Y30480
X147320Y30480
X6350Y86360
X6350Y83820
X149860Y30480
X152400Y30480
T8
X29210Y110490
X31750Y110490
X34290Y110490
T9
X58420Y82550
X48260Y80010
X48260Y77470
X48260Y74930
X48260Y72390
X48260Y69850
X63500Y69850
X63500Y80010
X63500Y77470
X63500Y74930
X63500Y72390
X55880Y85090
X55880Y87630
X55880Y90170
X58420Y90170
X58420Y87630
X58420Y85090
X55880Y80010
X55880Y77470
X55880Y74930
X55880Y72390
X55880Y69850
X58420Y80010
X58420Y77470
X58420Y74930
X58420Y72390
X58420Y69850
X63500Y90170
X63500Y87630
X63500Y85090
X63500Y82550
X50800Y82550
X55880Y113030
X55880Y110490
X58420Y113030
X58420Y110490
X58420Y107950
X58420Y105410
X51435Y119380
X51435Y114300
X55880Y107950
X55880Y105410
X51435Y121920
X51435Y116840
X48260Y92710
X51435Y111760
X60960Y115570
X60960Y118110
X60960Y120650
X60960Y125730
X63500Y128270
X63500Y125730
X63500Y123190
X63500Y120650
X63500Y118110
X63500Y115570
X63500Y113030
X63500Y110490
X63500Y107950
X63500Y105410
X63500Y102870
X63500Y100330
X63500Y97790
X60960Y82550
X48260Y82550
X48260Y85090
X48260Y87630
X48260Y90170
X48260Y95250
X48260Y97790
X48260Y100330
X48260Y102870
X48260Y105410
X48260Y107950
X48260Y110490
X48260Y113030
X48260Y115570
X48260Y118110
X48260Y120650
X48260Y123190
X48260Y125730
X48260Y128270
X63500Y95250
X63500Y92710
X53340Y82550
X55880Y82550
T10
X17780Y72390
X30480Y72390
X17780Y64770
X30480Y64770
X17780Y57150
X30480Y57150
T11
X99060Y62230
X99060Y59690
X99060Y57150
X99060Y54610
X99060Y52070
X99060Y49530
X99060Y46990
X99060Y44450
X99060Y41910
X91440Y41910
X91440Y52070
X91440Y49530
X91440Y54610
X91440Y57150
X91440Y44450
X91440Y46990
X91440Y59690
X91440Y62230
X99060Y95250
X99060Y92710
X99060Y90170
X99060Y87630
X99060Y85090
X91440Y29210
X91440Y26670
X91440Y13970
X91440Y11430
X91440Y24130
X91440Y21590
X91440Y16510
X91440Y19050
X91440Y8890
X99060Y8890
X99060Y11430
X99060Y13970
X99060Y16510
X99060Y19050
X99060Y21590
X99060Y24130
X99060Y26670
X99060Y29210
X99060Y82550
X99060Y80010
X99060Y77470
X99060Y74930
X91440Y74930
X91440Y85090
X91440Y82550
X91440Y87630
X91440Y90170
X91440Y77470
X91440Y80010
X91440Y92710
X91440Y95250
X195580Y62230
X195580Y59690
X195580Y57150
X195580Y54610
X99060Y128270
X99060Y125730
X99060Y123190
X99060Y120650
X99060Y118110
X99060Y115570
X99060Y113030
X187960Y128270
X187960Y125730
X187960Y113030
X187960Y110490
X187960Y123190
X187960Y120650
X187960Y115570
X187960Y118110
X187960Y107950
X195580Y107950
X195580Y110490
X195580Y113030
X195580Y115570
X195580Y118110
X195580Y120650
X195580Y123190
X195580Y125730
X195580Y128270
X99060Y110490
X99060Y107950
X91440Y107950
X91440Y118110
X91440Y115570
X91440Y120650
X91440Y123190
X91440Y110490
X91440Y113030
X91440Y125730
X91440Y128270
X27940Y80010
X25400Y80010
X22860Y80010
X20320Y80010
X20320Y87630
X22860Y87630
X25400Y87630
X27940Y87630
X195580Y52070
X195580Y49530
X195580Y46990
X195580Y44450
X195580Y41910
X187960Y95250
X187960Y92710
X187960Y80010
X187960Y77470
X187960Y90170
X187960Y87630
X187960Y82550
X187960Y85090
X187960Y74930
X195580Y74930
X195580Y77470
X195580Y80010
X195580Y82550
X195580Y85090
X195580Y87630
X195580Y90170
X195580Y92710
X195580Y95250
X187960Y41910
X187960Y52070
X187960Y49530
X187960Y54610
X187960Y57150
X187960Y44450
X187960Y46990
X187960Y59690
X187960Y62230
T12
X10160Y101600
X10160Y99060
X10160Y128270
X10160Y125730
T13
X86360Y60960
T14
X55880Y64135
X96520Y132080
X189890Y72390
X189890Y68580
T15
X61671Y66954
X64008Y65837
X96723Y66142
X156058Y110439
X70815Y66548
X61671Y65938
X110642Y83515
X85344Y67259
X82398Y67666
X100990Y74879
X64821Y79248
X61570Y78943
X85852Y25705
X68682Y48666
X61265Y58725
X68682Y41859
X97434Y69799
X97434Y79045
X80061Y104648
X71831Y104648
X177292Y96723
X67666Y78537
X62281Y78232
X61265Y77216
X64719Y65126
X84226Y65126
X88189Y69088
X94386Y92761
X80874Y103226
X71730Y76505
X97434Y76505
X61570Y108509
X38303Y99771
X61265Y64110
X61265Y59741
X94386Y81483
X40030Y99060
X50800Y100381
X87173Y121412
X61773Y102108
X108102Y80975
X72034Y73152
M30