G04 EAGLE Gerber X2 export*
%TF.Part,Single*%
%TF.FileFunction,Other,Top Silkscreen*%
%TF.FilePolarity,Positive*%
%TF.GenerationSoftware,Autodesk,EAGLE,9.0.1*%
%TF.CreationDate,2018-06-24T20:08:20Z*%
G75*
%MOMM*%
%FSLAX34Y34*%
%LPD*%
%AMOC8*
5,1,8,0,0,1.08239X$1,22.5*%
G01*
%ADD10C,0.609600*%
%ADD11C,0.304800*%
%ADD12C,0.762000*%
%ADD13C,0.254000*%
%ADD14C,0.457200*%
%ADD15C,0.508000*%
%ADD16C,0.177800*%
%ADD17C,0.279400*%
%ADD18C,0.152400*%
%ADD19C,0.584200*%
%ADD20C,0.101600*%
%ADD21C,0.203200*%
%ADD22C,0.127000*%
%ADD23C,0.812219*%
%ADD24C,0.076200*%
%ADD25C,0.025400*%


D10*
X1803400Y1041400D02*
X1803400Y1155700D01*
X1041400Y1155700D01*
X1041400Y1041400D01*
X1803400Y1041400D01*
D11*
X1746250Y1143000D02*
X1746250Y1270000D01*
X1682750Y1270000D01*
X1682750Y1143000D01*
X1746250Y1143000D01*
X1670050Y1143000D02*
X1670050Y1270000D01*
X1606550Y1270000D01*
X1606550Y1143000D01*
X1670050Y1143000D01*
X1593850Y1143000D02*
X1593850Y1270000D01*
X1530350Y1270000D01*
X1530350Y1143000D01*
X1593850Y1143000D01*
X1517650Y1143000D02*
X1517650Y1270000D01*
X1454150Y1270000D01*
X1454150Y1143000D01*
X1517650Y1143000D01*
X1441450Y1143000D02*
X1441450Y1270000D01*
X1377950Y1270000D01*
X1377950Y1143000D01*
X1441450Y1143000D01*
X1365250Y1143000D02*
X1365250Y1270000D01*
X1301750Y1270000D01*
X1301750Y1143000D01*
X1365250Y1143000D01*
X1289050Y1143000D02*
X1289050Y1270000D01*
X1225550Y1270000D01*
X1225550Y1143000D01*
X1289050Y1143000D01*
X1212850Y1143000D02*
X1212850Y1270000D01*
X1149350Y1270000D01*
X1149350Y1143000D01*
X1212850Y1143000D01*
X1193800Y1270000D02*
X1193800Y1295400D01*
X1168400Y1295400D02*
X1168400Y1270000D01*
X1244600Y1270000D02*
X1244600Y1295400D01*
X1270000Y1295400D02*
X1270000Y1270000D01*
X1346200Y1270000D02*
X1346200Y1295400D01*
X1320800Y1295400D02*
X1320800Y1270000D01*
X1397000Y1270000D02*
X1397000Y1295400D01*
X1422400Y1295400D02*
X1422400Y1270000D01*
X1498600Y1270000D02*
X1498600Y1295400D01*
X1473200Y1295400D02*
X1473200Y1270000D01*
X1549400Y1270000D02*
X1549400Y1295400D01*
X1574800Y1295400D02*
X1574800Y1270000D01*
X1651000Y1270000D02*
X1651000Y1295400D01*
X1625600Y1295400D02*
X1625600Y1270000D01*
X1701800Y1270000D02*
X1701800Y1295400D01*
X1727200Y1295400D02*
X1727200Y1270000D01*
D12*
X1916013Y326427D02*
X1930418Y326427D01*
X1916013Y326427D02*
X1908810Y319224D01*
X1908810Y290413D01*
X1916013Y283210D01*
X1930418Y283210D01*
X1937621Y290413D01*
X1937621Y319224D01*
X1930418Y326427D01*
X1955586Y326427D02*
X1955586Y283210D01*
X1977194Y283210D01*
X1984397Y290413D01*
X1984397Y319224D01*
X1977194Y326427D01*
X1955586Y326427D01*
X2002362Y326427D02*
X2002362Y283210D01*
X2002362Y326427D02*
X2023970Y326427D01*
X2031173Y319224D01*
X2031173Y312021D01*
X2023970Y304818D01*
X2031173Y297616D01*
X2031173Y290413D01*
X2023970Y283210D01*
X2002362Y283210D01*
X2002362Y304818D02*
X2023970Y304818D01*
D13*
X1913897Y265450D02*
X1913897Y242570D01*
X1906270Y265450D02*
X1921523Y265450D01*
X1929658Y265450D02*
X1929658Y242570D01*
X1929658Y254010D02*
X1933471Y257823D01*
X1941098Y257823D01*
X1944911Y254010D01*
X1944911Y242570D01*
X1956859Y242570D02*
X1964486Y242570D01*
X1956859Y242570D02*
X1953046Y246383D01*
X1953046Y254010D01*
X1956859Y257823D01*
X1964486Y257823D01*
X1968299Y254010D01*
X1968299Y250197D01*
X1953046Y250197D01*
X2003635Y265450D02*
X2011262Y265450D01*
X2003635Y265450D02*
X1999822Y261636D01*
X1999822Y246383D01*
X2003635Y242570D01*
X2011262Y242570D01*
X2015075Y246383D01*
X2015075Y261636D01*
X2011262Y265450D01*
X2023210Y265450D02*
X2027023Y265450D01*
X2027023Y242570D01*
X2023210Y242570D02*
X2030836Y242570D01*
X2042615Y242570D02*
X2042615Y261636D01*
X2046428Y265450D01*
X2046428Y254010D02*
X2038802Y254010D01*
X2058207Y257823D02*
X2065834Y257823D01*
X2069647Y254010D01*
X2069647Y242570D01*
X2058207Y242570D01*
X2054394Y246383D01*
X2058207Y250197D01*
X2069647Y250197D01*
X2081595Y257823D02*
X2093035Y257823D01*
X2081595Y257823D02*
X2077782Y254010D01*
X2077782Y246383D01*
X2081595Y242570D01*
X2093035Y242570D01*
X2104983Y246383D02*
X2104983Y261636D01*
X2104983Y246383D02*
X2108796Y242570D01*
X2108796Y257823D02*
X2101170Y257823D01*
X2120575Y242570D02*
X2128201Y242570D01*
X2132015Y246383D01*
X2132015Y254010D01*
X2128201Y257823D01*
X2120575Y257823D01*
X2116762Y254010D01*
X2116762Y246383D01*
X2120575Y242570D01*
X2140150Y242570D02*
X2140150Y257823D01*
X2140150Y250197D02*
X2147776Y257823D01*
X2151589Y257823D01*
X2159640Y257823D02*
X2159640Y246383D01*
X2163453Y242570D01*
X2174893Y242570D01*
X2174893Y238757D02*
X2174893Y257823D01*
X2174893Y238757D02*
X2171079Y234944D01*
X2167266Y234944D01*
X2206416Y242570D02*
X2206416Y265450D01*
X2206416Y242570D02*
X2217855Y242570D01*
X2221669Y246383D01*
X2221669Y261636D01*
X2217855Y265450D01*
X2206416Y265450D01*
X2233617Y242570D02*
X2241243Y242570D01*
X2233617Y242570D02*
X2229804Y246383D01*
X2229804Y254010D01*
X2233617Y257823D01*
X2241243Y257823D01*
X2245057Y254010D01*
X2245057Y250197D01*
X2229804Y250197D01*
X2253192Y265450D02*
X2257005Y265450D01*
X2257005Y242570D01*
X2253192Y242570D02*
X2260818Y242570D01*
X2268783Y257823D02*
X2272597Y257823D01*
X2272597Y242570D01*
X2276410Y242570D02*
X2268783Y242570D01*
X2272597Y265450D02*
X2272597Y269263D01*
X2284375Y257823D02*
X2292002Y242570D01*
X2299628Y257823D01*
X2311577Y242570D02*
X2319203Y242570D01*
X2311577Y242570D02*
X2307763Y246383D01*
X2307763Y254010D01*
X2311577Y257823D01*
X2319203Y257823D01*
X2323016Y254010D01*
X2323016Y250197D01*
X2307763Y250197D01*
X2331151Y257823D02*
X2331151Y242570D01*
X2331151Y250197D02*
X2338778Y257823D01*
X2342591Y257823D01*
X2350641Y257823D02*
X2350641Y246383D01*
X2354455Y242570D01*
X2365894Y242570D01*
X2365894Y238757D02*
X2365894Y257823D01*
X2365894Y238757D02*
X2362081Y234944D01*
X2358268Y234944D01*
X2397417Y242570D02*
X2397417Y265450D01*
X2408857Y265450D01*
X2412670Y261636D01*
X2412670Y257823D01*
X2408857Y254010D01*
X2412670Y250197D01*
X2412670Y246383D01*
X2408857Y242570D01*
X2397417Y242570D01*
X2397417Y254010D02*
X2408857Y254010D01*
X2424619Y242570D02*
X2432245Y242570D01*
X2436058Y246383D01*
X2436058Y254010D01*
X2432245Y257823D01*
X2424619Y257823D01*
X2420805Y254010D01*
X2420805Y246383D01*
X2424619Y242570D01*
X2448006Y257823D02*
X2455633Y257823D01*
X2459446Y254010D01*
X2459446Y242570D01*
X2448006Y242570D01*
X2444193Y246383D01*
X2448006Y250197D01*
X2459446Y250197D01*
X2467581Y257823D02*
X2467581Y242570D01*
X2467581Y250197D02*
X2475208Y257823D01*
X2479021Y257823D01*
X2502324Y265450D02*
X2502324Y242570D01*
X2490884Y242570D01*
X2487071Y246383D01*
X2487071Y254010D01*
X2490884Y257823D01*
X2502324Y257823D01*
X2533847Y257823D02*
X2541474Y242570D01*
X2549100Y257823D01*
X2557235Y242570D02*
X2572488Y242570D01*
X2557235Y242570D02*
X2572488Y257823D01*
X2572488Y261636D01*
X2568675Y265450D01*
X2561048Y265450D01*
X2557235Y261636D01*
X2580623Y246383D02*
X2580623Y242570D01*
X2580623Y246383D02*
X2584436Y246383D01*
X2584436Y242570D01*
X2580623Y242570D01*
X2592317Y246383D02*
X2592317Y261636D01*
X2596130Y265450D01*
X2603757Y265450D01*
X2607570Y261636D01*
X2607570Y246383D01*
X2603757Y242570D01*
X2596130Y242570D01*
X2592317Y246383D01*
X2607570Y261636D01*
X1910083Y204470D02*
X1906270Y208283D01*
X1910083Y204470D02*
X1913897Y204470D01*
X1917710Y208283D01*
X1917710Y227350D01*
X1913897Y227350D02*
X1921523Y227350D01*
X1929658Y219723D02*
X1929658Y208283D01*
X1933471Y204470D01*
X1944911Y204470D01*
X1944911Y219723D01*
X1953046Y227350D02*
X1956859Y227350D01*
X1956859Y204470D01*
X1953046Y204470D02*
X1960672Y204470D01*
X1968638Y208283D02*
X1968638Y219723D01*
X1968638Y208283D02*
X1972451Y204470D01*
X1983891Y204470D01*
X1983891Y200657D02*
X1983891Y219723D01*
X1983891Y200657D02*
X1980078Y196844D01*
X1976264Y196844D01*
X2015414Y204470D02*
X2030667Y204470D01*
X2015414Y204470D02*
X2030667Y219723D01*
X2030667Y223536D01*
X2026854Y227350D01*
X2019227Y227350D01*
X2015414Y223536D01*
X2038802Y223536D02*
X2038802Y208283D01*
X2038802Y223536D02*
X2042615Y227350D01*
X2050242Y227350D01*
X2054055Y223536D01*
X2054055Y208283D01*
X2050242Y204470D01*
X2042615Y204470D01*
X2038802Y208283D01*
X2054055Y223536D01*
X2062190Y219723D02*
X2069816Y227350D01*
X2069816Y204470D01*
X2062190Y204470D02*
X2077443Y204470D01*
X2085578Y223536D02*
X2089391Y227350D01*
X2097018Y227350D01*
X2100831Y223536D01*
X2100831Y219723D01*
X2097018Y215910D01*
X2100831Y212097D01*
X2100831Y208283D01*
X2097018Y204470D01*
X2089391Y204470D01*
X2085578Y208283D01*
X2085578Y212097D01*
X2089391Y215910D01*
X2085578Y219723D01*
X2085578Y223536D01*
X2089391Y215910D02*
X2097018Y215910D01*
X2108966Y196844D02*
X2116592Y204470D01*
X2116592Y208283D01*
X2112779Y208283D01*
X2112779Y204470D01*
X2116592Y204470D01*
X2175147Y227350D02*
X2182773Y227350D01*
X2175147Y227350D02*
X2171334Y223536D01*
X2171334Y208283D01*
X2175147Y204470D01*
X2182773Y204470D01*
X2186587Y208283D01*
X2186587Y223536D01*
X2182773Y227350D01*
X2194722Y227350D02*
X2194722Y204470D01*
X2202348Y219723D02*
X2194722Y227350D01*
X2202348Y219723D02*
X2209975Y227350D01*
X2209975Y204470D01*
D11*
X111688Y595376D02*
X96774Y595376D01*
X111688Y595376D02*
X119145Y587919D01*
X111688Y580462D01*
X96774Y580462D01*
X107960Y580462D02*
X107960Y595376D01*
X119145Y620776D02*
X96774Y620776D01*
X119145Y620776D02*
X119145Y609590D01*
X115417Y605862D01*
X111688Y605862D01*
X107960Y609590D01*
X104231Y605862D01*
X100503Y605862D01*
X96774Y609590D01*
X96774Y620776D01*
X107960Y620776D02*
X107960Y609590D01*
X115417Y631262D02*
X119145Y634990D01*
X119145Y642448D01*
X115417Y646176D01*
X100503Y646176D01*
X96774Y642448D01*
X96774Y634990D01*
X100503Y631262D01*
X107960Y631262D01*
X107960Y638719D01*
X115417Y745562D02*
X119145Y749290D01*
X119145Y756748D01*
X115417Y760476D01*
X100503Y760476D01*
X96774Y756748D01*
X96774Y749290D01*
X100503Y745562D01*
X107960Y745562D01*
X107960Y753019D01*
X119145Y735076D02*
X96774Y735076D01*
X119145Y735076D02*
X119145Y723890D01*
X115417Y720162D01*
X111688Y720162D01*
X107960Y723890D01*
X104231Y720162D01*
X100503Y720162D01*
X96774Y723890D01*
X96774Y735076D01*
X107960Y735076D02*
X107960Y723890D01*
X111688Y709676D02*
X96774Y709676D01*
X111688Y709676D02*
X119145Y702219D01*
X111688Y694762D01*
X96774Y694762D01*
X107960Y694762D02*
X107960Y709676D01*
X107960Y246126D02*
X107960Y231212D01*
X115417Y238669D02*
X100503Y238669D01*
X107960Y307412D02*
X107960Y322326D01*
X119145Y273040D02*
X115417Y269312D01*
X119145Y273040D02*
X119145Y280498D01*
X115417Y284226D01*
X100503Y284226D01*
X96774Y280498D01*
X96774Y273040D01*
X100503Y269312D01*
D14*
X158764Y356343D02*
X158764Y378714D01*
X147579Y367528D02*
X169950Y367528D01*
X141986Y343632D02*
X175543Y321261D01*
X158764Y308550D02*
X158764Y286179D01*
X164357Y273468D02*
X175543Y262283D01*
X141986Y262283D01*
X141986Y273468D02*
X141986Y251097D01*
X175543Y238386D02*
X175543Y216015D01*
X175543Y238386D02*
X158764Y238386D01*
X164357Y227201D01*
X164357Y221608D01*
X158764Y216015D01*
X147579Y216015D01*
X141986Y221608D01*
X141986Y232793D01*
X147579Y238386D01*
X153172Y203304D02*
X175543Y203304D01*
X153172Y203304D02*
X141986Y192119D01*
X153172Y180933D01*
X175543Y180933D01*
D11*
X115417Y447112D02*
X119145Y450840D01*
X119145Y458298D01*
X115417Y462026D01*
X100503Y462026D01*
X96774Y458298D01*
X96774Y450840D01*
X100503Y447112D01*
X107960Y485212D02*
X107960Y500126D01*
X107960Y423926D02*
X107960Y409012D01*
X115417Y416469D02*
X100503Y416469D01*
D10*
X1803400Y711200D02*
X1803400Y825500D01*
X1041400Y825500D01*
X1041400Y711200D01*
X1803400Y711200D01*
D11*
X1746250Y812800D02*
X1746250Y939800D01*
X1682750Y939800D01*
X1682750Y812800D01*
X1746250Y812800D01*
X1670050Y812800D02*
X1670050Y939800D01*
X1606550Y939800D01*
X1606550Y812800D01*
X1670050Y812800D01*
X1593850Y812800D02*
X1593850Y939800D01*
X1530350Y939800D01*
X1530350Y812800D01*
X1593850Y812800D01*
X1517650Y812800D02*
X1517650Y939800D01*
X1454150Y939800D01*
X1454150Y812800D01*
X1517650Y812800D01*
X1441450Y812800D02*
X1441450Y939800D01*
X1377950Y939800D01*
X1377950Y812800D01*
X1441450Y812800D01*
X1365250Y812800D02*
X1365250Y939800D01*
X1301750Y939800D01*
X1301750Y812800D01*
X1365250Y812800D01*
X1289050Y812800D02*
X1289050Y939800D01*
X1225550Y939800D01*
X1225550Y812800D01*
X1289050Y812800D01*
X1212850Y812800D02*
X1212850Y939800D01*
X1149350Y939800D01*
X1149350Y812800D01*
X1212850Y812800D01*
X1193800Y939800D02*
X1193800Y965200D01*
X1168400Y965200D02*
X1168400Y939800D01*
X1244600Y939800D02*
X1244600Y965200D01*
X1270000Y965200D02*
X1270000Y939800D01*
X1346200Y939800D02*
X1346200Y965200D01*
X1320800Y965200D02*
X1320800Y939800D01*
X1397000Y939800D02*
X1397000Y965200D01*
X1422400Y965200D02*
X1422400Y939800D01*
X1498600Y939800D02*
X1498600Y965200D01*
X1473200Y965200D02*
X1473200Y939800D01*
X1549400Y939800D02*
X1549400Y965200D01*
X1574800Y965200D02*
X1574800Y939800D01*
X1651000Y939800D02*
X1651000Y965200D01*
X1625600Y965200D02*
X1625600Y939800D01*
X1701800Y939800D02*
X1701800Y965200D01*
X1727200Y965200D02*
X1727200Y939800D01*
D10*
X1803400Y495300D02*
X1803400Y381000D01*
X1803400Y495300D02*
X1041400Y495300D01*
X1041400Y381000D01*
X1803400Y381000D01*
D11*
X1746250Y482600D02*
X1746250Y609600D01*
X1682750Y609600D01*
X1682750Y482600D01*
X1746250Y482600D01*
X1670050Y482600D02*
X1670050Y609600D01*
X1606550Y609600D01*
X1606550Y482600D01*
X1670050Y482600D01*
X1593850Y482600D02*
X1593850Y609600D01*
X1530350Y609600D01*
X1530350Y482600D01*
X1593850Y482600D01*
X1517650Y482600D02*
X1517650Y609600D01*
X1454150Y609600D01*
X1454150Y482600D01*
X1517650Y482600D01*
X1441450Y482600D02*
X1441450Y609600D01*
X1377950Y609600D01*
X1377950Y482600D01*
X1441450Y482600D01*
X1365250Y482600D02*
X1365250Y609600D01*
X1301750Y609600D01*
X1301750Y482600D01*
X1365250Y482600D01*
X1289050Y482600D02*
X1289050Y609600D01*
X1225550Y609600D01*
X1225550Y482600D01*
X1289050Y482600D01*
X1212850Y482600D02*
X1212850Y609600D01*
X1149350Y609600D01*
X1149350Y482600D01*
X1212850Y482600D01*
X1193800Y609600D02*
X1193800Y635000D01*
X1168400Y635000D02*
X1168400Y609600D01*
X1244600Y609600D02*
X1244600Y635000D01*
X1270000Y635000D02*
X1270000Y609600D01*
X1346200Y609600D02*
X1346200Y635000D01*
X1320800Y635000D02*
X1320800Y609600D01*
X1397000Y609600D02*
X1397000Y635000D01*
X1422400Y635000D02*
X1422400Y609600D01*
X1498600Y609600D02*
X1498600Y635000D01*
X1473200Y635000D02*
X1473200Y609600D01*
X1549400Y609600D02*
X1549400Y635000D01*
X1574800Y635000D02*
X1574800Y609600D01*
X1651000Y609600D02*
X1651000Y635000D01*
X1625600Y635000D02*
X1625600Y609600D01*
X1701800Y609600D02*
X1701800Y635000D01*
X1727200Y635000D02*
X1727200Y609600D01*
D10*
X1803400Y165100D02*
X1803400Y50800D01*
X1803400Y165100D02*
X1041400Y165100D01*
X1041400Y50800D01*
X1803400Y50800D01*
D11*
X1746250Y152400D02*
X1746250Y279400D01*
X1682750Y279400D01*
X1682750Y152400D01*
X1746250Y152400D01*
X1670050Y152400D02*
X1670050Y279400D01*
X1606550Y279400D01*
X1606550Y152400D01*
X1670050Y152400D01*
X1593850Y152400D02*
X1593850Y279400D01*
X1530350Y279400D01*
X1530350Y152400D01*
X1593850Y152400D01*
X1517650Y152400D02*
X1517650Y279400D01*
X1454150Y279400D01*
X1454150Y152400D01*
X1517650Y152400D01*
X1441450Y152400D02*
X1441450Y279400D01*
X1377950Y279400D01*
X1377950Y152400D01*
X1441450Y152400D01*
X1365250Y152400D02*
X1365250Y279400D01*
X1301750Y279400D01*
X1301750Y152400D01*
X1365250Y152400D01*
X1289050Y152400D02*
X1289050Y279400D01*
X1225550Y279400D01*
X1225550Y152400D01*
X1289050Y152400D01*
X1212850Y152400D02*
X1212850Y279400D01*
X1149350Y279400D01*
X1149350Y152400D01*
X1212850Y152400D01*
X1193800Y279400D02*
X1193800Y304800D01*
X1168400Y304800D02*
X1168400Y279400D01*
X1244600Y279400D02*
X1244600Y304800D01*
X1270000Y304800D02*
X1270000Y279400D01*
X1346200Y279400D02*
X1346200Y304800D01*
X1320800Y304800D02*
X1320800Y279400D01*
X1397000Y279400D02*
X1397000Y304800D01*
X1422400Y304800D02*
X1422400Y279400D01*
X1498600Y279400D02*
X1498600Y304800D01*
X1473200Y304800D02*
X1473200Y279400D01*
X1549400Y279400D02*
X1549400Y304800D01*
X1574800Y304800D02*
X1574800Y279400D01*
X1651000Y279400D02*
X1651000Y304800D01*
X1625600Y304800D02*
X1625600Y279400D01*
X1701800Y279400D02*
X1701800Y304800D01*
X1727200Y304800D02*
X1727200Y279400D01*
D10*
X2768600Y1041400D02*
X2768600Y1155700D01*
X2006600Y1155700D01*
X2006600Y1041400D01*
X2768600Y1041400D01*
D11*
X2711450Y1143000D02*
X2711450Y1270000D01*
X2647950Y1270000D01*
X2647950Y1143000D01*
X2711450Y1143000D01*
X2635250Y1143000D02*
X2635250Y1270000D01*
X2571750Y1270000D01*
X2571750Y1143000D01*
X2635250Y1143000D01*
X2559050Y1143000D02*
X2559050Y1270000D01*
X2495550Y1270000D01*
X2495550Y1143000D01*
X2559050Y1143000D01*
X2482850Y1143000D02*
X2482850Y1270000D01*
X2419350Y1270000D01*
X2419350Y1143000D01*
X2482850Y1143000D01*
X2406650Y1143000D02*
X2406650Y1270000D01*
X2343150Y1270000D01*
X2343150Y1143000D01*
X2406650Y1143000D01*
X2330450Y1143000D02*
X2330450Y1270000D01*
X2266950Y1270000D01*
X2266950Y1143000D01*
X2330450Y1143000D01*
X2254250Y1143000D02*
X2254250Y1270000D01*
X2190750Y1270000D01*
X2190750Y1143000D01*
X2254250Y1143000D01*
X2178050Y1143000D02*
X2178050Y1270000D01*
X2114550Y1270000D01*
X2114550Y1143000D01*
X2178050Y1143000D01*
X2159000Y1270000D02*
X2159000Y1295400D01*
X2133600Y1295400D02*
X2133600Y1270000D01*
X2209800Y1270000D02*
X2209800Y1295400D01*
X2235200Y1295400D02*
X2235200Y1270000D01*
X2311400Y1270000D02*
X2311400Y1295400D01*
X2286000Y1295400D02*
X2286000Y1270000D01*
X2362200Y1270000D02*
X2362200Y1295400D01*
X2387600Y1295400D02*
X2387600Y1270000D01*
X2463800Y1270000D02*
X2463800Y1295400D01*
X2438400Y1295400D02*
X2438400Y1270000D01*
X2514600Y1270000D02*
X2514600Y1295400D01*
X2540000Y1295400D02*
X2540000Y1270000D01*
X2616200Y1270000D02*
X2616200Y1295400D01*
X2590800Y1295400D02*
X2590800Y1270000D01*
X2667000Y1270000D02*
X2667000Y1295400D01*
X2692400Y1295400D02*
X2692400Y1270000D01*
D10*
X2768600Y825500D02*
X2768600Y711200D01*
X2768600Y825500D02*
X2006600Y825500D01*
X2006600Y711200D01*
X2768600Y711200D01*
D11*
X2711450Y812800D02*
X2711450Y939800D01*
X2647950Y939800D01*
X2647950Y812800D01*
X2711450Y812800D01*
X2635250Y812800D02*
X2635250Y939800D01*
X2571750Y939800D01*
X2571750Y812800D01*
X2635250Y812800D01*
X2559050Y812800D02*
X2559050Y939800D01*
X2495550Y939800D01*
X2495550Y812800D01*
X2559050Y812800D01*
X2482850Y812800D02*
X2482850Y939800D01*
X2419350Y939800D01*
X2419350Y812800D01*
X2482850Y812800D01*
X2406650Y812800D02*
X2406650Y939800D01*
X2343150Y939800D01*
X2343150Y812800D01*
X2406650Y812800D01*
X2330450Y812800D02*
X2330450Y939800D01*
X2266950Y939800D01*
X2266950Y812800D01*
X2330450Y812800D01*
X2254250Y812800D02*
X2254250Y939800D01*
X2190750Y939800D01*
X2190750Y812800D01*
X2254250Y812800D01*
X2178050Y812800D02*
X2178050Y939800D01*
X2114550Y939800D01*
X2114550Y812800D01*
X2178050Y812800D01*
X2159000Y939800D02*
X2159000Y965200D01*
X2133600Y965200D02*
X2133600Y939800D01*
X2209800Y939800D02*
X2209800Y965200D01*
X2235200Y965200D02*
X2235200Y939800D01*
X2311400Y939800D02*
X2311400Y965200D01*
X2286000Y965200D02*
X2286000Y939800D01*
X2362200Y939800D02*
X2362200Y965200D01*
X2387600Y965200D02*
X2387600Y939800D01*
X2463800Y939800D02*
X2463800Y965200D01*
X2438400Y965200D02*
X2438400Y939800D01*
X2514600Y939800D02*
X2514600Y965200D01*
X2540000Y965200D02*
X2540000Y939800D01*
X2616200Y939800D02*
X2616200Y965200D01*
X2590800Y965200D02*
X2590800Y939800D01*
X2667000Y939800D02*
X2667000Y965200D01*
X2692400Y965200D02*
X2692400Y939800D01*
D10*
X2387600Y495300D02*
X2387600Y381000D01*
X2387600Y495300D02*
X2006600Y495300D01*
X2006600Y381000D01*
X2387600Y381000D01*
D11*
X2330450Y482600D02*
X2330450Y609600D01*
X2266950Y609600D01*
X2266950Y482600D01*
X2330450Y482600D01*
X2254250Y482600D02*
X2254250Y609600D01*
X2190750Y609600D01*
X2190750Y482600D01*
X2254250Y482600D01*
X2178050Y482600D02*
X2178050Y609600D01*
X2114550Y609600D01*
X2114550Y482600D01*
X2178050Y482600D01*
X2159000Y609600D02*
X2159000Y635000D01*
X2133600Y635000D02*
X2133600Y609600D01*
X2209800Y609600D02*
X2209800Y635000D01*
X2235200Y635000D02*
X2235200Y609600D01*
X2311400Y609600D02*
X2311400Y635000D01*
X2286000Y635000D02*
X2286000Y609600D01*
X107960Y68326D02*
X107960Y53412D01*
X115417Y60869D02*
X100503Y60869D01*
X107960Y129612D02*
X107960Y144526D01*
X119145Y95240D02*
X115417Y91512D01*
X119145Y95240D02*
X119145Y102698D01*
X115417Y106426D01*
X100503Y106426D01*
X96774Y102698D01*
X96774Y95240D01*
X100503Y91512D01*
D15*
X127000Y38100D02*
X127000Y508000D01*
D11*
X115417Y859862D02*
X119145Y863590D01*
X119145Y871048D01*
X115417Y874776D01*
X100503Y874776D01*
X96774Y871048D01*
X96774Y863590D01*
X100503Y859862D01*
X107960Y859862D01*
X107960Y867319D01*
X119145Y849376D02*
X96774Y849376D01*
X119145Y849376D02*
X119145Y838190D01*
X115417Y834462D01*
X111688Y834462D01*
X107960Y838190D01*
X104231Y834462D01*
X100503Y834462D01*
X96774Y838190D01*
X96774Y849376D01*
X107960Y849376D02*
X107960Y838190D01*
X111688Y823976D02*
X96774Y823976D01*
X111688Y823976D02*
X119145Y816519D01*
X111688Y809062D01*
X96774Y809062D01*
X107960Y809062D02*
X107960Y823976D01*
D16*
X2286889Y62366D02*
X2286889Y51689D01*
X2286889Y62366D02*
X2292228Y67705D01*
X2297566Y62366D01*
X2297566Y51689D01*
X2297566Y59697D02*
X2286889Y59697D01*
X2303261Y62366D02*
X2303261Y54358D01*
X2305930Y51689D01*
X2313938Y51689D01*
X2313938Y62366D01*
X2319632Y62366D02*
X2330309Y51689D01*
X2319632Y51689D02*
X2330309Y62366D01*
X2352375Y67705D02*
X2352375Y57028D01*
X2357714Y51689D01*
X2363052Y57028D01*
X2363052Y67705D01*
X2371416Y62366D02*
X2376755Y62366D01*
X2379424Y59697D01*
X2379424Y51689D01*
X2371416Y51689D01*
X2368747Y54358D01*
X2371416Y57028D01*
X2379424Y57028D01*
X2385118Y67705D02*
X2387788Y67705D01*
X2387788Y51689D01*
X2390457Y51689D02*
X2385118Y51689D01*
X2396033Y62366D02*
X2401371Y51689D01*
X2406710Y62366D01*
X2415074Y51689D02*
X2420412Y51689D01*
X2415074Y51689D02*
X2412404Y54358D01*
X2412404Y59697D01*
X2415074Y62366D01*
X2420412Y62366D01*
X2423081Y59697D01*
X2423081Y57028D01*
X2412404Y57028D01*
X2428776Y51689D02*
X2436784Y51689D01*
X2439453Y54358D01*
X2436784Y57028D01*
X2431445Y57028D01*
X2428776Y59697D01*
X2431445Y62366D01*
X2439453Y62366D01*
D17*
X2287397Y102997D02*
X2287397Y112996D01*
X2292397Y117996D01*
X2297396Y112996D01*
X2297396Y102997D01*
X2297396Y110496D02*
X2287397Y110496D01*
X2303769Y107997D02*
X2303769Y117996D01*
X2303769Y107997D02*
X2308768Y102997D01*
X2313768Y107997D01*
X2313768Y117996D01*
X2320140Y112996D02*
X2325140Y117996D01*
X2325140Y102997D01*
X2330139Y102997D02*
X2320140Y102997D01*
X2414397Y102997D02*
X2414397Y112996D01*
X2419397Y117996D01*
X2424396Y112996D01*
X2424396Y102997D01*
X2424396Y110496D02*
X2414397Y110496D01*
X2430769Y107997D02*
X2430769Y117996D01*
X2430769Y107997D02*
X2435768Y102997D01*
X2440768Y107997D01*
X2440768Y117996D01*
X2447140Y102997D02*
X2457139Y102997D01*
X2447140Y102997D02*
X2457139Y112996D01*
X2457139Y115496D01*
X2454640Y117996D01*
X2449640Y117996D01*
X2447140Y115496D01*
D18*
X2489200Y190500D02*
X2260600Y190500D01*
X2489200Y190500D02*
X2489200Y38100D01*
X2260600Y38100D01*
X2260600Y190500D01*
X29435Y914400D02*
X19050Y914400D01*
X39435Y914400D02*
X49821Y914400D01*
X59821Y914400D02*
X70206Y914400D01*
X80206Y914400D02*
X90591Y914400D01*
X100591Y914400D02*
X110976Y914400D01*
X120976Y914400D02*
X131362Y914400D01*
X141362Y914400D02*
X151747Y914400D01*
X161747Y914400D02*
X172132Y914400D01*
X182132Y914400D02*
X192518Y914400D01*
X202518Y914400D02*
X212903Y914400D01*
X222903Y914400D02*
X233288Y914400D01*
X243288Y914400D02*
X253674Y914400D01*
X263674Y914400D02*
X274059Y914400D01*
X284059Y914400D02*
X294444Y914400D01*
X304444Y914400D02*
X314829Y914400D01*
X324829Y914400D02*
X335215Y914400D01*
X345215Y914400D02*
X355600Y914400D01*
X355600Y904260D01*
X355600Y894260D02*
X355600Y884120D01*
X355600Y874120D02*
X355600Y863980D01*
X355600Y853980D02*
X355600Y843840D01*
X355600Y833840D02*
X355600Y823700D01*
X355600Y813700D02*
X355600Y803560D01*
X355600Y793560D02*
X355600Y783420D01*
X355600Y773420D02*
X355600Y763280D01*
X355600Y753280D02*
X355600Y743140D01*
X355600Y733140D02*
X355600Y723000D01*
X355600Y713000D02*
X355600Y702860D01*
X355600Y692860D02*
X355600Y682720D01*
X355600Y672720D02*
X355600Y662580D01*
X355600Y652580D02*
X355600Y642440D01*
X355600Y632440D02*
X355600Y622300D01*
X355600Y607575D01*
X355600Y597575D02*
X355600Y582850D01*
X355600Y572850D02*
X355600Y558125D01*
X355600Y548125D02*
X355600Y533400D01*
X345215Y533400D01*
X335215Y533400D02*
X324829Y533400D01*
X314829Y533400D02*
X304444Y533400D01*
X294444Y533400D02*
X284059Y533400D01*
X274059Y533400D02*
X263674Y533400D01*
X253674Y533400D02*
X243288Y533400D01*
X233288Y533400D02*
X222903Y533400D01*
X212903Y533400D02*
X202518Y533400D01*
X192518Y533400D02*
X182132Y533400D01*
X172132Y533400D02*
X161747Y533400D01*
X151747Y533400D02*
X141362Y533400D01*
X131362Y533400D02*
X120976Y533400D01*
X110976Y533400D02*
X100591Y533400D01*
X90591Y533400D02*
X80206Y533400D01*
X70206Y533400D02*
X59821Y533400D01*
X49821Y533400D02*
X39435Y533400D01*
X29435Y533400D02*
X19050Y533400D01*
X19050Y543979D01*
X19050Y553979D02*
X19050Y564558D01*
X19050Y574558D02*
X19050Y585137D01*
X19050Y595137D02*
X19050Y605716D01*
X19050Y615716D02*
X19050Y626295D01*
X19050Y636295D02*
X19050Y646874D01*
X19050Y656874D02*
X19050Y667453D01*
X19050Y677453D02*
X19050Y688032D01*
X19050Y698032D02*
X19050Y708611D01*
X19050Y718611D02*
X19050Y729189D01*
X19050Y739189D02*
X19050Y749768D01*
X19050Y759768D02*
X19050Y770347D01*
X19050Y780347D02*
X19050Y790926D01*
X19050Y800926D02*
X19050Y811505D01*
X19050Y821505D02*
X19050Y832084D01*
X19050Y842084D02*
X19050Y852663D01*
X19050Y862663D02*
X19050Y873242D01*
X19050Y883242D02*
X19050Y893821D01*
X19050Y903821D02*
X19050Y914400D01*
X355600Y622300D02*
X365845Y622300D01*
X375845Y622300D02*
X386089Y622300D01*
X396089Y622300D02*
X406334Y622300D01*
X416334Y622300D02*
X426579Y622300D01*
X436579Y622300D02*
X446824Y622300D01*
X456824Y622300D02*
X467068Y622300D01*
X477068Y622300D02*
X487313Y622300D01*
X497313Y622300D02*
X507558Y622300D01*
X517558Y622300D02*
X527803Y622300D01*
X537803Y622300D02*
X548047Y622300D01*
X558047Y622300D02*
X568292Y622300D01*
X578292Y622300D02*
X588537Y622300D01*
X598537Y622300D02*
X608782Y622300D01*
X618782Y622300D02*
X629026Y622300D01*
X639026Y622300D02*
X649271Y622300D01*
X659271Y622300D02*
X669516Y622300D01*
X679516Y622300D02*
X689761Y622300D01*
X699761Y622300D02*
X710005Y622300D01*
X720005Y622300D02*
X730250Y622300D01*
X736600Y615950D01*
X736600Y605932D01*
X736600Y595932D02*
X736600Y585913D01*
X736600Y575913D02*
X736600Y565895D01*
X736600Y555895D02*
X736600Y545877D01*
X736600Y535877D02*
X736600Y525858D01*
X736600Y515858D02*
X736600Y505840D01*
X736600Y495840D02*
X736600Y485822D01*
X736600Y475822D02*
X736600Y465803D01*
X736600Y455803D02*
X736600Y445785D01*
X736600Y435785D02*
X736600Y425767D01*
X736600Y415767D02*
X736600Y405748D01*
X736600Y395748D02*
X736600Y385730D01*
X736600Y375730D02*
X736600Y365712D01*
X736600Y355712D02*
X736600Y345693D01*
X736600Y335693D02*
X736600Y325675D01*
X736600Y315675D02*
X736600Y305657D01*
X736600Y295657D02*
X736600Y285638D01*
X736600Y275638D02*
X736600Y265620D01*
X736600Y255620D02*
X736600Y245602D01*
X736600Y235602D02*
X736600Y225583D01*
X736600Y215583D02*
X736600Y205565D01*
X736600Y195565D02*
X736600Y185547D01*
X736600Y175547D02*
X736600Y165528D01*
X736600Y155528D02*
X736600Y145510D01*
X736600Y135510D02*
X736600Y125492D01*
X736600Y115492D02*
X736600Y105473D01*
X736600Y95473D02*
X736600Y85455D01*
X736600Y75455D02*
X736600Y65437D01*
X736600Y55437D02*
X736600Y45418D01*
X736600Y35418D02*
X736600Y25400D01*
X726588Y25400D01*
X716588Y25400D02*
X706576Y25400D01*
X696576Y25400D02*
X686565Y25400D01*
X676565Y25400D02*
X666553Y25400D01*
X656553Y25400D02*
X646541Y25400D01*
X636541Y25400D02*
X626529Y25400D01*
X616529Y25400D02*
X606518Y25400D01*
X596518Y25400D02*
X586506Y25400D01*
X576506Y25400D02*
X566494Y25400D01*
X556494Y25400D02*
X546482Y25400D01*
X536482Y25400D02*
X526471Y25400D01*
X516471Y25400D02*
X506459Y25400D01*
X496459Y25400D02*
X486447Y25400D01*
X476447Y25400D02*
X466435Y25400D01*
X456435Y25400D02*
X446424Y25400D01*
X436424Y25400D02*
X426412Y25400D01*
X416412Y25400D02*
X406400Y25400D01*
X406400Y36720D01*
X406400Y46720D02*
X406400Y58040D01*
X406400Y68040D02*
X406400Y79360D01*
X406400Y89360D02*
X406400Y100680D01*
X406400Y110680D02*
X406400Y122000D01*
X406400Y132000D02*
X406400Y143320D01*
X406400Y153320D02*
X406400Y164640D01*
X406400Y174640D02*
X406400Y185960D01*
X406400Y195960D02*
X406400Y207280D01*
X406400Y217280D02*
X406400Y228600D01*
X395533Y228600D01*
X385533Y228600D02*
X374667Y228600D01*
X364667Y228600D02*
X353800Y228600D01*
X343800Y228600D02*
X332933Y228600D01*
X322933Y228600D02*
X312067Y228600D01*
X302067Y228600D02*
X291200Y228600D01*
X281200Y228600D02*
X270333Y228600D01*
X260333Y228600D02*
X249467Y228600D01*
X239467Y228600D02*
X228600Y228600D01*
X228600Y217280D01*
X228600Y207280D02*
X228600Y195960D01*
X228600Y185960D02*
X228600Y174640D01*
X228600Y164640D02*
X228600Y153320D01*
X228600Y143320D02*
X228600Y132000D01*
X228600Y122000D02*
X228600Y110680D01*
X228600Y100680D02*
X228600Y89360D01*
X228600Y79360D02*
X228600Y68040D01*
X228600Y58040D02*
X228600Y46720D01*
X228600Y36720D02*
X228600Y25400D01*
X216645Y25400D01*
X206645Y25400D02*
X194690Y25400D01*
X184690Y25400D02*
X172735Y25400D01*
X162735Y25400D02*
X150780Y25400D01*
X140780Y25400D02*
X128825Y25400D01*
X118825Y25400D02*
X106870Y25400D01*
X96870Y25400D02*
X84915Y25400D01*
X74915Y25400D02*
X62960Y25400D01*
X52960Y25400D02*
X41005Y25400D01*
X31005Y25400D02*
X19050Y25400D01*
X19050Y36120D01*
X19050Y46120D02*
X19050Y56840D01*
X19050Y66840D02*
X19050Y77560D01*
X19050Y87560D02*
X19050Y98280D01*
X19050Y108280D02*
X19050Y119000D01*
X19050Y129000D02*
X19050Y139720D01*
X19050Y149720D02*
X19050Y160440D01*
X19050Y170440D02*
X19050Y181160D01*
X19050Y191160D02*
X19050Y201880D01*
X19050Y211880D02*
X19050Y222600D01*
X19050Y232600D02*
X19050Y243320D01*
X19050Y253320D02*
X19050Y264040D01*
X19050Y274040D02*
X19050Y284760D01*
X19050Y294760D02*
X19050Y305480D01*
X19050Y315480D02*
X19050Y326200D01*
X19050Y336200D02*
X19050Y346920D01*
X19050Y356920D02*
X19050Y367640D01*
X19050Y377640D02*
X19050Y388360D01*
X19050Y398360D02*
X19050Y409080D01*
X19050Y419080D02*
X19050Y429800D01*
X19050Y439800D02*
X19050Y450520D01*
X19050Y460520D02*
X19050Y471240D01*
X19050Y481240D02*
X19050Y491960D01*
X19050Y501960D02*
X19050Y512680D01*
X19050Y522680D02*
X19050Y533400D01*
X711962Y583438D02*
X728232Y583438D01*
X722809Y578015D01*
X728232Y572591D01*
X711962Y572591D01*
X711962Y567066D02*
X728232Y567066D01*
X728232Y556220D01*
X720097Y561643D02*
X720097Y567066D01*
X728232Y542560D02*
X725520Y539848D01*
X728232Y542560D02*
X728232Y547983D01*
X725520Y550695D01*
X714674Y550695D01*
X711962Y547983D01*
X711962Y542560D01*
X714674Y539848D01*
X711962Y517952D02*
X728232Y517952D01*
X728232Y509817D01*
X725520Y507105D01*
X720097Y507105D01*
X717385Y509817D01*
X717385Y517952D01*
X711962Y498869D02*
X711962Y493445D01*
X714674Y490734D01*
X720097Y490734D01*
X722809Y493445D01*
X722809Y498869D01*
X720097Y501580D01*
X714674Y501580D01*
X711962Y498869D01*
X714674Y485209D02*
X722809Y485209D01*
X714674Y485209D02*
X711962Y482497D01*
X714674Y479785D01*
X711962Y477074D01*
X714674Y474362D01*
X722809Y474362D01*
X711962Y466125D02*
X711962Y460702D01*
X711962Y466125D02*
X714674Y468837D01*
X720097Y468837D01*
X722809Y466125D01*
X722809Y460702D01*
X720097Y457990D01*
X717385Y457990D01*
X717385Y468837D01*
X711962Y452466D02*
X722809Y452466D01*
X717385Y452466D02*
X722809Y447042D01*
X722809Y444331D01*
X347232Y761238D02*
X330962Y761238D01*
X341809Y755815D02*
X347232Y761238D01*
X341809Y755815D02*
X347232Y750391D01*
X330962Y750391D01*
X330962Y744866D02*
X347232Y744866D01*
X347232Y734020D01*
X339097Y739443D02*
X339097Y744866D01*
X347232Y720360D02*
X344520Y717648D01*
X347232Y720360D02*
X347232Y725783D01*
X344520Y728495D01*
X333674Y728495D01*
X330962Y725783D01*
X330962Y720360D01*
X333674Y717648D01*
X347232Y687617D02*
X344520Y684905D01*
X347232Y687617D02*
X347232Y693040D01*
X344520Y695752D01*
X333674Y695752D01*
X330962Y693040D01*
X330962Y687617D01*
X333674Y684905D01*
X330962Y676669D02*
X330962Y671245D01*
X333674Y668534D01*
X339097Y668534D01*
X341809Y671245D01*
X341809Y676669D01*
X339097Y679380D01*
X333674Y679380D01*
X330962Y676669D01*
X330962Y663009D02*
X341809Y663009D01*
X341809Y660297D01*
X339097Y657585D01*
X330962Y657585D01*
X339097Y657585D02*
X341809Y654874D01*
X339097Y652162D01*
X330962Y652162D01*
X330962Y646637D02*
X341809Y646637D01*
X341809Y643925D01*
X339097Y641214D01*
X330962Y641214D01*
X339097Y641214D02*
X341809Y638502D01*
X339097Y635790D01*
X330962Y635790D01*
X472046Y315894D02*
X474758Y313182D01*
X477469Y313182D01*
X480181Y315894D01*
X480181Y329452D01*
X477469Y329452D02*
X482893Y329452D01*
X493841Y329452D02*
X493841Y313182D01*
X488418Y329452D02*
X499264Y329452D01*
X504789Y329452D02*
X504789Y313182D01*
X515636Y313182D01*
X526584Y326740D02*
X532007Y329452D01*
X526584Y326740D02*
X521161Y321317D01*
X521161Y315894D01*
X523872Y313182D01*
X529296Y313182D01*
X532007Y315894D01*
X532007Y318605D01*
X529296Y321317D01*
X521161Y321317D01*
X537532Y315894D02*
X537532Y326740D01*
X540244Y329452D01*
X545667Y329452D01*
X548379Y326740D01*
X548379Y315894D01*
X545667Y313182D01*
X540244Y313182D01*
X537532Y315894D01*
X548379Y326740D01*
X553904Y313182D02*
X564751Y313182D01*
X553904Y313182D02*
X564751Y324029D01*
X564751Y326740D01*
X562039Y329452D01*
X556616Y329452D01*
X553904Y326740D01*
X578410Y329452D02*
X578410Y313182D01*
X570275Y321317D02*
X578410Y329452D01*
X581122Y321317D02*
X570275Y321317D01*
X586647Y329452D02*
X586647Y313182D01*
X594782Y313182D01*
X597494Y315894D01*
X597494Y326740D01*
X594782Y329452D01*
X586647Y329452D01*
X603019Y324029D02*
X608442Y329452D01*
X608442Y313182D01*
X603019Y313182D02*
X613865Y313182D01*
X619390Y329452D02*
X630237Y329452D01*
X619390Y329452D02*
X619390Y321317D01*
X624813Y324029D01*
X627525Y324029D01*
X630237Y321317D01*
X630237Y315894D01*
X627525Y313182D01*
X622102Y313182D01*
X619390Y315894D01*
D19*
X1774571Y888045D02*
X1785333Y898807D01*
X1785333Y866521D01*
X1774571Y866521D02*
X1796095Y866521D01*
X1820415Y893426D02*
X1831177Y898807D01*
X1820415Y893426D02*
X1809653Y882664D01*
X1809653Y871902D01*
X1815034Y866521D01*
X1825796Y866521D01*
X1831177Y871902D01*
X1831177Y877283D01*
X1825796Y882664D01*
X1809653Y882664D01*
X1106852Y866521D02*
X1101471Y871902D01*
X1106852Y866521D02*
X1117614Y866521D01*
X1122995Y871902D01*
X1122995Y893426D01*
X1117614Y898807D01*
X1106852Y898807D01*
X1101471Y893426D01*
X1101471Y888045D01*
X1106852Y882664D01*
X1122995Y882664D01*
X1107821Y1218245D02*
X1118583Y1229007D01*
X1118583Y1196721D01*
X1107821Y1196721D02*
X1129345Y1196721D01*
X1768221Y1223626D02*
X1773602Y1229007D01*
X1784364Y1229007D01*
X1789745Y1223626D01*
X1789745Y1218245D01*
X1784364Y1212864D01*
X1789745Y1207483D01*
X1789745Y1202102D01*
X1784364Y1196721D01*
X1773602Y1196721D01*
X1768221Y1202102D01*
X1768221Y1207483D01*
X1773602Y1212864D01*
X1768221Y1218245D01*
X1768221Y1223626D01*
X1773602Y1212864D02*
X1784364Y1212864D01*
X1080483Y568607D02*
X1069721Y557845D01*
X1080483Y568607D02*
X1080483Y536321D01*
X1069721Y536321D02*
X1091245Y536321D01*
X1104803Y568607D02*
X1126327Y568607D01*
X1126327Y563226D01*
X1104803Y541702D01*
X1104803Y536321D01*
X1774571Y536321D02*
X1796095Y536321D01*
X1774571Y536321D02*
X1796095Y557845D01*
X1796095Y563226D01*
X1790714Y568607D01*
X1779952Y568607D01*
X1774571Y563226D01*
X1825796Y568607D02*
X1825796Y536321D01*
X1809653Y552464D02*
X1825796Y568607D01*
X1831177Y552464D02*
X1809653Y552464D01*
X1091245Y206121D02*
X1069721Y206121D01*
X1091245Y227645D01*
X1091245Y233026D01*
X1085864Y238407D01*
X1075102Y238407D01*
X1069721Y233026D01*
X1104803Y238407D02*
X1126327Y238407D01*
X1104803Y238407D02*
X1104803Y222264D01*
X1115565Y227645D01*
X1120946Y227645D01*
X1126327Y222264D01*
X1126327Y211502D01*
X1120946Y206121D01*
X1110184Y206121D01*
X1104803Y211502D01*
X1774571Y233026D02*
X1779952Y238407D01*
X1790714Y238407D01*
X1796095Y233026D01*
X1796095Y227645D01*
X1790714Y222264D01*
X1785333Y222264D01*
X1790714Y222264D02*
X1796095Y216883D01*
X1796095Y211502D01*
X1790714Y206121D01*
X1779952Y206121D01*
X1774571Y211502D01*
X1809653Y206121D02*
X1831177Y206121D01*
X1809653Y206121D02*
X1831177Y227645D01*
X1831177Y233026D01*
X1825796Y238407D01*
X1815034Y238407D01*
X1809653Y233026D01*
X2034921Y1223626D02*
X2040302Y1229007D01*
X2051064Y1229007D01*
X2056445Y1223626D01*
X2056445Y1218245D01*
X2051064Y1212864D01*
X2045683Y1212864D01*
X2051064Y1212864D02*
X2056445Y1207483D01*
X2056445Y1202102D01*
X2051064Y1196721D01*
X2040302Y1196721D01*
X2034921Y1202102D01*
X2070003Y1223626D02*
X2075384Y1229007D01*
X2086146Y1229007D01*
X2091527Y1223626D01*
X2091527Y1218245D01*
X2086146Y1212864D01*
X2080765Y1212864D01*
X2086146Y1212864D02*
X2091527Y1207483D01*
X2091527Y1202102D01*
X2086146Y1196721D01*
X2075384Y1196721D01*
X2070003Y1202102D01*
X2736864Y1196721D02*
X2736864Y1229007D01*
X2720721Y1212864D01*
X2742245Y1212864D01*
X2755803Y1202102D02*
X2755803Y1223626D01*
X2761184Y1229007D01*
X2771946Y1229007D01*
X2777327Y1223626D01*
X2777327Y1202102D01*
X2771946Y1196721D01*
X2761184Y1196721D01*
X2755803Y1202102D01*
X2777327Y1223626D01*
X2051064Y898807D02*
X2051064Y866521D01*
X2034921Y882664D02*
X2051064Y898807D01*
X2056445Y882664D02*
X2034921Y882664D01*
X2070003Y888045D02*
X2080765Y898807D01*
X2080765Y866521D01*
X2070003Y866521D02*
X2091527Y866521D01*
X2736864Y866521D02*
X2736864Y898807D01*
X2720721Y882664D01*
X2742245Y882664D01*
X2755803Y893426D02*
X2761184Y898807D01*
X2771946Y898807D01*
X2777327Y893426D01*
X2777327Y888045D01*
X2771946Y882664D01*
X2777327Y877283D01*
X2777327Y871902D01*
X2771946Y866521D01*
X2761184Y866521D01*
X2755803Y871902D01*
X2755803Y877283D01*
X2761184Y882664D01*
X2755803Y888045D01*
X2755803Y893426D01*
X2761184Y882664D02*
X2771946Y882664D01*
X2051064Y568607D02*
X2051064Y536321D01*
X2034921Y552464D02*
X2051064Y568607D01*
X2056445Y552464D02*
X2034921Y552464D01*
X2070003Y541702D02*
X2075384Y536321D01*
X2086146Y536321D01*
X2091527Y541702D01*
X2091527Y563226D01*
X2086146Y568607D01*
X2075384Y568607D01*
X2070003Y563226D01*
X2070003Y557845D01*
X2075384Y552464D01*
X2091527Y552464D01*
X2352421Y568607D02*
X2373945Y568607D01*
X2352421Y568607D02*
X2352421Y552464D01*
X2363183Y557845D01*
X2368564Y557845D01*
X2373945Y552464D01*
X2373945Y541702D01*
X2368564Y536321D01*
X2357802Y536321D01*
X2352421Y541702D01*
X2387503Y557845D02*
X2398265Y568607D01*
X2398265Y536321D01*
X2387503Y536321D02*
X2409027Y536321D01*
D20*
X267208Y1152909D02*
X267208Y1159010D01*
X267208Y1152909D02*
X270259Y1149858D01*
X273309Y1152909D01*
X273309Y1159010D01*
X276563Y1159010D02*
X282664Y1149858D01*
X276563Y1149858D02*
X282664Y1159010D01*
X285918Y1159010D02*
X292020Y1159010D01*
X292020Y1157485D01*
X285918Y1151383D01*
X285918Y1149858D01*
X295274Y1157485D02*
X296799Y1159010D01*
X299849Y1159010D01*
X301375Y1157485D01*
X301375Y1155959D01*
X299849Y1154434D01*
X301375Y1152909D01*
X301375Y1151383D01*
X299849Y1149858D01*
X296799Y1149858D01*
X295274Y1151383D01*
X295274Y1152909D01*
X296799Y1154434D01*
X295274Y1155959D01*
X295274Y1157485D01*
X296799Y1154434D02*
X299849Y1154434D01*
X304629Y1151383D02*
X304629Y1157485D01*
X306154Y1159010D01*
X309205Y1159010D01*
X310730Y1157485D01*
X310730Y1151383D01*
X309205Y1149858D01*
X306154Y1149858D01*
X304629Y1151383D01*
X310730Y1157485D01*
X313984Y1159010D02*
X320085Y1159010D01*
X313984Y1159010D02*
X313984Y1154434D01*
X317035Y1155959D01*
X318560Y1155959D01*
X320085Y1154434D01*
X320085Y1151383D01*
X318560Y1149858D01*
X315509Y1149858D01*
X313984Y1151383D01*
X323339Y1154434D02*
X329440Y1154434D01*
X332694Y1159010D02*
X338796Y1159010D01*
X332694Y1159010D02*
X332694Y1154434D01*
X335745Y1155959D01*
X337270Y1155959D01*
X338796Y1154434D01*
X338796Y1151383D01*
X337270Y1149858D01*
X334220Y1149858D01*
X332694Y1151383D01*
X342050Y1151383D02*
X342050Y1157485D01*
X343575Y1159010D01*
X346625Y1159010D01*
X348151Y1157485D01*
X348151Y1151383D01*
X346625Y1149858D01*
X343575Y1149858D01*
X342050Y1151383D01*
X348151Y1157485D01*
X351405Y1157485D02*
X351405Y1151383D01*
X351405Y1157485D02*
X352930Y1159010D01*
X355981Y1159010D01*
X357506Y1157485D01*
X357506Y1151383D01*
X355981Y1149858D01*
X352930Y1149858D01*
X351405Y1151383D01*
X357506Y1157485D01*
D18*
X292100Y787400D02*
X190500Y787400D01*
X190500Y889000D02*
X292100Y889000D01*
X190500Y812800D02*
X190500Y787400D01*
X292100Y787400D02*
X292100Y812800D01*
X292100Y863600D02*
X292100Y889000D01*
X292100Y848360D02*
X291853Y848357D01*
X291605Y848348D01*
X291358Y848333D01*
X291112Y848312D01*
X290866Y848285D01*
X290621Y848252D01*
X290376Y848213D01*
X290133Y848168D01*
X289891Y848117D01*
X289650Y848060D01*
X289411Y847998D01*
X289173Y847929D01*
X288937Y847855D01*
X288703Y847775D01*
X288471Y847690D01*
X288241Y847598D01*
X288013Y847502D01*
X287788Y847399D01*
X287565Y847292D01*
X287345Y847178D01*
X287128Y847060D01*
X286913Y846936D01*
X286702Y846807D01*
X286494Y846673D01*
X286289Y846534D01*
X286088Y846390D01*
X285890Y846242D01*
X285696Y846088D01*
X285506Y845930D01*
X285320Y845767D01*
X285138Y845600D01*
X284960Y845428D01*
X284786Y845252D01*
X284616Y845072D01*
X284451Y844887D01*
X284291Y844699D01*
X284135Y844507D01*
X283983Y844311D01*
X283837Y844112D01*
X283695Y843909D01*
X283559Y843702D01*
X283427Y843493D01*
X283301Y843280D01*
X283180Y843064D01*
X283064Y842846D01*
X282954Y842624D01*
X282849Y842400D01*
X282749Y842174D01*
X282655Y841945D01*
X282567Y841714D01*
X282484Y841480D01*
X282407Y841245D01*
X282336Y841008D01*
X282270Y840770D01*
X282211Y840530D01*
X282157Y840288D01*
X282109Y840045D01*
X282067Y839802D01*
X282031Y839557D01*
X282001Y839311D01*
X281977Y839065D01*
X281959Y838818D01*
X281947Y838571D01*
X281941Y838324D01*
X281941Y838076D01*
X281947Y837829D01*
X281959Y837582D01*
X281977Y837335D01*
X282001Y837089D01*
X282031Y836843D01*
X282067Y836598D01*
X282109Y836355D01*
X282157Y836112D01*
X282211Y835870D01*
X282270Y835630D01*
X282336Y835392D01*
X282407Y835155D01*
X282484Y834920D01*
X282567Y834686D01*
X282655Y834455D01*
X282749Y834226D01*
X282849Y834000D01*
X282954Y833776D01*
X283064Y833554D01*
X283180Y833336D01*
X283301Y833120D01*
X283427Y832907D01*
X283559Y832698D01*
X283695Y832491D01*
X283837Y832288D01*
X283983Y832089D01*
X284135Y831893D01*
X284291Y831701D01*
X284451Y831513D01*
X284616Y831328D01*
X284786Y831148D01*
X284960Y830972D01*
X285138Y830800D01*
X285320Y830633D01*
X285506Y830470D01*
X285696Y830312D01*
X285890Y830158D01*
X286088Y830010D01*
X286289Y829866D01*
X286494Y829727D01*
X286702Y829593D01*
X286913Y829464D01*
X287128Y829340D01*
X287345Y829222D01*
X287565Y829108D01*
X287788Y829001D01*
X288013Y828898D01*
X288241Y828802D01*
X288471Y828710D01*
X288703Y828625D01*
X288937Y828545D01*
X289173Y828471D01*
X289411Y828402D01*
X289650Y828340D01*
X289891Y828283D01*
X290133Y828232D01*
X290376Y828187D01*
X290621Y828148D01*
X290866Y828115D01*
X291112Y828088D01*
X291358Y828067D01*
X291605Y828052D01*
X291853Y828043D01*
X292100Y828040D01*
X292100Y812800D02*
X190500Y812800D01*
D21*
X292100Y812800D02*
X292100Y828040D01*
D18*
X190500Y812800D02*
X190500Y863600D01*
X292100Y863600D01*
X292100Y848360D01*
X190500Y863600D02*
X190500Y889000D01*
X194831Y831099D02*
X194831Y818388D01*
X199068Y826862D02*
X194831Y831099D01*
X199068Y826862D02*
X203305Y831099D01*
X203305Y818388D01*
X207928Y818388D02*
X207928Y826862D01*
X212165Y831099D01*
X216402Y826862D01*
X216402Y818388D01*
X216402Y824743D02*
X207928Y824743D01*
X221026Y831099D02*
X229500Y818388D01*
X221026Y818388D02*
X229500Y831099D01*
X234123Y828980D02*
X236241Y831099D01*
X240478Y831099D01*
X242597Y828980D01*
X242597Y826862D01*
X240478Y824743D01*
X238360Y824743D01*
X240478Y824743D02*
X242597Y822625D01*
X242597Y820506D01*
X240478Y818388D01*
X236241Y818388D01*
X234123Y820506D01*
X253576Y818388D02*
X253576Y831099D01*
X247220Y824743D01*
X255694Y824743D01*
X260317Y828980D02*
X262436Y831099D01*
X266673Y831099D01*
X268791Y828980D01*
X268791Y826862D01*
X266673Y824743D01*
X268791Y822625D01*
X268791Y820506D01*
X266673Y818388D01*
X262436Y818388D01*
X260317Y820506D01*
X260317Y822625D01*
X262436Y824743D01*
X260317Y826862D01*
X260317Y828980D01*
X262436Y824743D02*
X266673Y824743D01*
X273415Y828980D02*
X275533Y831099D01*
X279770Y831099D01*
X281889Y828980D01*
X281889Y826862D01*
X279770Y824743D01*
X277652Y824743D01*
X279770Y824743D02*
X281889Y822625D01*
X281889Y820506D01*
X279770Y818388D01*
X275533Y818388D01*
X273415Y820506D01*
D22*
X286200Y-44000D02*
X376200Y-44000D01*
X286200Y-44000D02*
X286200Y102000D01*
X376200Y102000D01*
X376200Y-44000D01*
D18*
X981710Y1066800D02*
X981710Y1295400D01*
X923290Y1295400D02*
X923290Y1066800D01*
X981710Y1066800D01*
X981710Y1295400D02*
X962660Y1295400D01*
X942340Y1295400D02*
X923290Y1295400D01*
X942340Y1295400D02*
X942343Y1295153D01*
X942352Y1294905D01*
X942367Y1294658D01*
X942388Y1294412D01*
X942415Y1294166D01*
X942448Y1293921D01*
X942487Y1293676D01*
X942532Y1293433D01*
X942583Y1293191D01*
X942640Y1292950D01*
X942702Y1292711D01*
X942771Y1292473D01*
X942845Y1292237D01*
X942925Y1292003D01*
X943010Y1291771D01*
X943102Y1291541D01*
X943198Y1291313D01*
X943301Y1291088D01*
X943408Y1290865D01*
X943522Y1290645D01*
X943640Y1290428D01*
X943764Y1290213D01*
X943893Y1290002D01*
X944027Y1289794D01*
X944166Y1289589D01*
X944310Y1289388D01*
X944458Y1289190D01*
X944612Y1288996D01*
X944770Y1288806D01*
X944933Y1288620D01*
X945100Y1288438D01*
X945272Y1288260D01*
X945448Y1288086D01*
X945628Y1287916D01*
X945813Y1287751D01*
X946001Y1287591D01*
X946193Y1287435D01*
X946389Y1287283D01*
X946588Y1287137D01*
X946791Y1286995D01*
X946998Y1286859D01*
X947207Y1286727D01*
X947420Y1286601D01*
X947636Y1286480D01*
X947854Y1286364D01*
X948076Y1286254D01*
X948300Y1286149D01*
X948526Y1286049D01*
X948755Y1285955D01*
X948986Y1285867D01*
X949220Y1285784D01*
X949455Y1285707D01*
X949692Y1285636D01*
X949930Y1285570D01*
X950170Y1285511D01*
X950412Y1285457D01*
X950655Y1285409D01*
X950898Y1285367D01*
X951143Y1285331D01*
X951389Y1285301D01*
X951635Y1285277D01*
X951882Y1285259D01*
X952129Y1285247D01*
X952376Y1285241D01*
X952624Y1285241D01*
X952871Y1285247D01*
X953118Y1285259D01*
X953365Y1285277D01*
X953611Y1285301D01*
X953857Y1285331D01*
X954102Y1285367D01*
X954345Y1285409D01*
X954588Y1285457D01*
X954830Y1285511D01*
X955070Y1285570D01*
X955308Y1285636D01*
X955545Y1285707D01*
X955780Y1285784D01*
X956014Y1285867D01*
X956245Y1285955D01*
X956474Y1286049D01*
X956700Y1286149D01*
X956924Y1286254D01*
X957146Y1286364D01*
X957364Y1286480D01*
X957580Y1286601D01*
X957793Y1286727D01*
X958002Y1286859D01*
X958209Y1286995D01*
X958412Y1287137D01*
X958611Y1287283D01*
X958807Y1287435D01*
X958999Y1287591D01*
X959187Y1287751D01*
X959372Y1287916D01*
X959552Y1288086D01*
X959728Y1288260D01*
X959900Y1288438D01*
X960067Y1288620D01*
X960230Y1288806D01*
X960388Y1288996D01*
X960542Y1289190D01*
X960690Y1289388D01*
X960834Y1289589D01*
X960973Y1289794D01*
X961107Y1290002D01*
X961236Y1290213D01*
X961360Y1290428D01*
X961478Y1290645D01*
X961592Y1290865D01*
X961699Y1291088D01*
X961802Y1291313D01*
X961898Y1291541D01*
X961990Y1291771D01*
X962075Y1292003D01*
X962155Y1292237D01*
X962229Y1292473D01*
X962298Y1292711D01*
X962360Y1292950D01*
X962417Y1293191D01*
X962468Y1293433D01*
X962513Y1293676D01*
X962552Y1293921D01*
X962585Y1294166D01*
X962612Y1294412D01*
X962633Y1294658D01*
X962648Y1294905D01*
X962657Y1295153D01*
X962660Y1295400D01*
D22*
X926468Y1298575D02*
X922655Y1298575D01*
X924562Y1298575D02*
X924562Y1310015D01*
X926468Y1310015D02*
X922655Y1310015D01*
X936171Y1310015D02*
X938077Y1308108D01*
X936171Y1310015D02*
X932358Y1310015D01*
X930451Y1308108D01*
X930451Y1300482D01*
X932358Y1298575D01*
X936171Y1298575D01*
X938077Y1300482D01*
X942145Y1306202D02*
X945958Y1310015D01*
X945958Y1298575D01*
X942145Y1298575D02*
X949771Y1298575D01*
X946775Y1183433D02*
X956308Y1183433D01*
X958215Y1185340D01*
X958215Y1189153D01*
X956308Y1191060D01*
X946775Y1191060D01*
X946775Y1195127D02*
X958215Y1195127D01*
X958215Y1202754D01*
X956308Y1206821D02*
X948682Y1206821D01*
X946775Y1208728D01*
X946775Y1212541D01*
X948682Y1214448D01*
X956308Y1214448D01*
X958215Y1212541D01*
X958215Y1208728D01*
X956308Y1206821D01*
X954402Y1210634D02*
X958215Y1214448D01*
X958215Y1218515D02*
X958215Y1226141D01*
X958215Y1218515D02*
X950589Y1226141D01*
X948682Y1226141D01*
X946775Y1224235D01*
X946775Y1220422D01*
X948682Y1218515D01*
X948682Y1230209D02*
X946775Y1232116D01*
X946775Y1235929D01*
X948682Y1237835D01*
X950589Y1237835D01*
X952495Y1235929D01*
X954402Y1237835D01*
X956308Y1237835D01*
X958215Y1235929D01*
X958215Y1232116D01*
X956308Y1230209D01*
X954402Y1230209D01*
X952495Y1232116D01*
X950589Y1230209D01*
X948682Y1230209D01*
X952495Y1232116D02*
X952495Y1235929D01*
X956308Y1241903D02*
X948682Y1241903D01*
X946775Y1243810D01*
X946775Y1247623D01*
X948682Y1249529D01*
X956308Y1249529D01*
X958215Y1247623D01*
X958215Y1243810D01*
X956308Y1241903D01*
X948682Y1249529D01*
X948682Y1253597D02*
X946775Y1255504D01*
X946775Y1259317D01*
X948682Y1261223D01*
X950589Y1261223D01*
X952495Y1259317D01*
X952495Y1257410D01*
X952495Y1259317D02*
X954402Y1261223D01*
X956308Y1261223D01*
X958215Y1259317D01*
X958215Y1255504D01*
X956308Y1253597D01*
X958215Y1265291D02*
X950589Y1265291D01*
X946775Y1269104D01*
X950589Y1272917D01*
X958215Y1272917D01*
X952495Y1272917D02*
X952495Y1265291D01*
D21*
X374468Y1085900D02*
X260532Y1085900D01*
X374468Y1085900D02*
X374468Y1169300D01*
X260532Y1169300D01*
X260532Y1085900D01*
D23*
X266700Y1092200D03*
D20*
X260858Y1181608D02*
X260858Y1193302D01*
X260858Y1181608D02*
X266705Y1181608D01*
X268654Y1183557D01*
X268654Y1191353D01*
X266705Y1193302D01*
X260858Y1193302D01*
X278399Y1193302D02*
X280348Y1191353D01*
X278399Y1193302D02*
X274501Y1193302D01*
X272552Y1191353D01*
X272552Y1183557D01*
X274501Y1181608D01*
X278399Y1181608D01*
X280348Y1183557D01*
X284246Y1179659D02*
X292042Y1179659D01*
X295940Y1193302D02*
X303736Y1193302D01*
X295940Y1193302D02*
X295940Y1187455D01*
X299838Y1189404D01*
X301787Y1189404D01*
X303736Y1187455D01*
X303736Y1183557D01*
X301787Y1181608D01*
X297889Y1181608D01*
X295940Y1183557D01*
X307634Y1185506D02*
X307634Y1193302D01*
X307634Y1185506D02*
X311532Y1181608D01*
X315430Y1185506D01*
X315430Y1193302D01*
D22*
X131318Y1207770D02*
X131318Y1357630D01*
X-7112Y1357630D01*
X-7112Y1207770D01*
X131318Y1207770D01*
D24*
X112351Y1219581D02*
X104513Y1219581D01*
X112351Y1219581D02*
X113919Y1221149D01*
X113919Y1224284D01*
X112351Y1225852D01*
X104513Y1225852D01*
X112351Y1228936D02*
X113919Y1230504D01*
X113919Y1233639D01*
X112351Y1235207D01*
X110784Y1235207D01*
X109216Y1233639D01*
X109216Y1230504D01*
X107648Y1228936D01*
X106081Y1228936D01*
X104513Y1230504D01*
X104513Y1233639D01*
X106081Y1235207D01*
X102945Y1232072D02*
X115487Y1232072D01*
X106081Y1241427D02*
X104513Y1244562D01*
X106081Y1241427D02*
X109216Y1238291D01*
X112351Y1238291D01*
X113919Y1239859D01*
X113919Y1242994D01*
X112351Y1244562D01*
X110784Y1244562D01*
X109216Y1242994D01*
X109216Y1238291D01*
D22*
X431800Y596900D02*
X431800Y88900D01*
X431800Y596900D02*
X685800Y596900D01*
X685800Y88900D01*
X431800Y88900D01*
X88900Y685800D02*
X33020Y685800D01*
X33020Y762000D02*
X88900Y762000D01*
X33020Y762000D02*
X33020Y685800D01*
X88900Y749300D02*
X88900Y762000D01*
X88900Y749300D02*
X88900Y698500D01*
X88900Y685800D01*
X88900Y698500D02*
X76200Y698500D01*
X76200Y749300D01*
X88900Y749300D01*
X88900Y571500D02*
X33020Y571500D01*
X33020Y647700D02*
X88900Y647700D01*
X33020Y647700D02*
X33020Y571500D01*
X88900Y635000D02*
X88900Y647700D01*
X88900Y635000D02*
X88900Y584200D01*
X88900Y571500D01*
X88900Y584200D02*
X76200Y584200D01*
X76200Y635000D01*
X88900Y635000D01*
D21*
X16800Y334300D02*
X16800Y218300D01*
X16800Y334300D02*
X78800Y334300D01*
X86800Y334300D01*
X86800Y218300D01*
X78800Y218300D01*
X16800Y218300D01*
X78800Y218300D02*
X78800Y334300D01*
D25*
X25273Y229363D02*
X24637Y228727D01*
X25273Y229363D02*
X25273Y229998D01*
X24637Y230634D01*
X21460Y230634D01*
X21460Y231269D02*
X21460Y229998D01*
X21460Y232469D02*
X25273Y232469D01*
X21460Y232469D02*
X21460Y234376D01*
X22095Y235011D01*
X23366Y235011D01*
X24002Y234376D01*
X24002Y232469D01*
X25273Y238118D02*
X21460Y238118D01*
X23366Y236211D01*
X23366Y238753D01*
D21*
X16800Y396100D02*
X16800Y512100D01*
X78800Y512100D01*
X86800Y512100D01*
X86800Y396100D01*
X78800Y396100D01*
X16800Y396100D01*
X78800Y396100D02*
X78800Y512100D01*
D25*
X25273Y407163D02*
X24637Y406527D01*
X25273Y407163D02*
X25273Y407798D01*
X24637Y408434D01*
X21460Y408434D01*
X21460Y409069D02*
X21460Y407798D01*
X21460Y410269D02*
X25273Y410269D01*
X21460Y410269D02*
X21460Y412176D01*
X22095Y412811D01*
X23366Y412811D01*
X24002Y412176D01*
X24002Y410269D01*
X21460Y414011D02*
X21460Y416553D01*
X21460Y414011D02*
X23366Y414011D01*
X22731Y415282D01*
X22731Y415918D01*
X23366Y416553D01*
X24637Y416553D01*
X25273Y415918D01*
X25273Y414647D01*
X24637Y414011D01*
D21*
X1289050Y1308100D02*
X1301750Y1308100D01*
X1308100Y1301750D01*
X1308100Y1289050D02*
X1301750Y1282700D01*
X1263650Y1308100D02*
X1257300Y1301750D01*
X1263650Y1308100D02*
X1276350Y1308100D01*
X1282700Y1301750D01*
X1282700Y1289050D02*
X1276350Y1282700D01*
X1263650Y1282700D01*
X1257300Y1289050D01*
X1282700Y1301750D02*
X1289050Y1308100D01*
X1282700Y1289050D02*
X1289050Y1282700D01*
X1301750Y1282700D01*
X1225550Y1308100D02*
X1212850Y1308100D01*
X1225550Y1308100D02*
X1231900Y1301750D01*
X1231900Y1289050D02*
X1225550Y1282700D01*
X1231900Y1301750D02*
X1238250Y1308100D01*
X1250950Y1308100D01*
X1257300Y1301750D01*
X1257300Y1289050D02*
X1250950Y1282700D01*
X1238250Y1282700D01*
X1231900Y1289050D01*
X1187450Y1308100D02*
X1181100Y1301750D01*
X1187450Y1308100D02*
X1200150Y1308100D01*
X1206500Y1301750D01*
X1206500Y1289050D02*
X1200150Y1282700D01*
X1187450Y1282700D01*
X1181100Y1289050D01*
X1206500Y1301750D02*
X1212850Y1308100D01*
X1206500Y1289050D02*
X1212850Y1282700D01*
X1225550Y1282700D01*
X1162050Y1308100D02*
X1155700Y1301750D01*
X1162050Y1308100D02*
X1174750Y1308100D01*
X1181100Y1301750D01*
X1181100Y1289050D02*
X1174750Y1282700D01*
X1162050Y1282700D01*
X1155700Y1289050D01*
X1466850Y1308100D02*
X1479550Y1308100D01*
X1485900Y1301750D01*
X1485900Y1289050D02*
X1479550Y1282700D01*
X1441450Y1308100D02*
X1435100Y1301750D01*
X1441450Y1308100D02*
X1454150Y1308100D01*
X1460500Y1301750D01*
X1460500Y1289050D02*
X1454150Y1282700D01*
X1441450Y1282700D01*
X1435100Y1289050D01*
X1460500Y1301750D02*
X1466850Y1308100D01*
X1460500Y1289050D02*
X1466850Y1282700D01*
X1479550Y1282700D01*
X1403350Y1308100D02*
X1390650Y1308100D01*
X1403350Y1308100D02*
X1409700Y1301750D01*
X1409700Y1289050D02*
X1403350Y1282700D01*
X1409700Y1301750D02*
X1416050Y1308100D01*
X1428750Y1308100D01*
X1435100Y1301750D01*
X1435100Y1289050D02*
X1428750Y1282700D01*
X1416050Y1282700D01*
X1409700Y1289050D01*
X1365250Y1308100D02*
X1358900Y1301750D01*
X1365250Y1308100D02*
X1377950Y1308100D01*
X1384300Y1301750D01*
X1384300Y1289050D02*
X1377950Y1282700D01*
X1365250Y1282700D01*
X1358900Y1289050D01*
X1384300Y1301750D02*
X1390650Y1308100D01*
X1384300Y1289050D02*
X1390650Y1282700D01*
X1403350Y1282700D01*
X1327150Y1308100D02*
X1314450Y1308100D01*
X1327150Y1308100D02*
X1333500Y1301750D01*
X1333500Y1289050D02*
X1327150Y1282700D01*
X1333500Y1301750D02*
X1339850Y1308100D01*
X1352550Y1308100D01*
X1358900Y1301750D01*
X1358900Y1289050D02*
X1352550Y1282700D01*
X1339850Y1282700D01*
X1333500Y1289050D01*
X1314450Y1308100D02*
X1308100Y1301750D01*
X1308100Y1289050D02*
X1314450Y1282700D01*
X1327150Y1282700D01*
X1485900Y1301750D02*
X1492250Y1308100D01*
X1504950Y1308100D01*
X1511300Y1301750D01*
X1511300Y1289050D02*
X1504950Y1282700D01*
X1492250Y1282700D01*
X1485900Y1289050D01*
X1511300Y1301750D02*
X1517650Y1308100D01*
X1530350Y1308100D01*
X1536700Y1301750D01*
X1536700Y1289050D02*
X1530350Y1282700D01*
X1517650Y1282700D01*
X1511300Y1289050D01*
X1536700Y1301750D02*
X1543050Y1308100D01*
X1555750Y1308100D01*
X1562100Y1301750D01*
X1562100Y1289050D02*
X1555750Y1282700D01*
X1543050Y1282700D01*
X1536700Y1289050D01*
X1562100Y1301750D02*
X1568450Y1308100D01*
X1581150Y1308100D01*
X1587500Y1301750D01*
X1587500Y1289050D02*
X1581150Y1282700D01*
X1568450Y1282700D01*
X1562100Y1289050D01*
X1587500Y1301750D02*
X1593850Y1308100D01*
X1606550Y1308100D01*
X1612900Y1301750D01*
X1612900Y1289050D02*
X1606550Y1282700D01*
X1593850Y1282700D01*
X1587500Y1289050D01*
X1612900Y1301750D02*
X1619250Y1308100D01*
X1631950Y1308100D01*
X1638300Y1301750D01*
X1638300Y1289050D02*
X1631950Y1282700D01*
X1619250Y1282700D01*
X1612900Y1289050D01*
X1638300Y1301750D02*
X1644650Y1308100D01*
X1657350Y1308100D01*
X1663700Y1301750D01*
X1663700Y1289050D02*
X1657350Y1282700D01*
X1644650Y1282700D01*
X1638300Y1289050D01*
X1663700Y1301750D02*
X1670050Y1308100D01*
X1682750Y1308100D01*
X1689100Y1301750D01*
X1689100Y1289050D02*
X1682750Y1282700D01*
X1670050Y1282700D01*
X1663700Y1289050D01*
X1689100Y1301750D02*
X1695450Y1308100D01*
X1708150Y1308100D01*
X1714500Y1301750D01*
X1714500Y1289050D02*
X1708150Y1282700D01*
X1695450Y1282700D01*
X1689100Y1289050D01*
X1714500Y1301750D02*
X1720850Y1308100D01*
X1733550Y1308100D01*
X1739900Y1301750D01*
X1739900Y1289050D02*
X1733550Y1282700D01*
X1720850Y1282700D01*
X1714500Y1289050D01*
X1739900Y1301750D02*
X1746250Y1308100D01*
X1758950Y1308100D01*
X1765300Y1301750D01*
X1765300Y1289050D01*
X1758950Y1282700D01*
X1746250Y1282700D01*
X1739900Y1289050D01*
X1155700Y1289050D02*
X1155700Y1301750D01*
D22*
X1155573Y1316230D02*
X1155573Y1325763D01*
X1155573Y1316230D02*
X1157480Y1314323D01*
X1161293Y1314323D01*
X1163200Y1316230D01*
X1163200Y1325763D01*
X1167267Y1316230D02*
X1169174Y1314323D01*
X1172987Y1314323D01*
X1174893Y1316230D01*
X1174893Y1318136D01*
X1172987Y1320043D01*
X1169174Y1320043D01*
X1167267Y1321950D01*
X1167267Y1323856D01*
X1169174Y1325763D01*
X1172987Y1325763D01*
X1174893Y1323856D01*
X1171080Y1327669D02*
X1171080Y1312416D01*
X1178961Y1323856D02*
X1180868Y1325763D01*
X1184681Y1325763D01*
X1186587Y1323856D01*
X1186587Y1321950D01*
X1184681Y1320043D01*
X1186587Y1318136D01*
X1186587Y1316230D01*
X1184681Y1314323D01*
X1180868Y1314323D01*
X1178961Y1316230D01*
X1178961Y1318136D01*
X1180868Y1320043D01*
X1178961Y1321950D01*
X1178961Y1323856D01*
X1180868Y1320043D02*
X1184681Y1320043D01*
D20*
X1156208Y1275852D02*
X1156208Y1264158D01*
X1160106Y1271954D02*
X1156208Y1275852D01*
X1160106Y1271954D02*
X1164004Y1275852D01*
X1164004Y1264158D01*
X1167902Y1264158D02*
X1175698Y1264158D01*
X1167902Y1264158D02*
X1175698Y1271954D01*
X1175698Y1273903D01*
X1173749Y1275852D01*
X1169851Y1275852D01*
X1167902Y1273903D01*
X1185443Y1275852D02*
X1185443Y1264158D01*
X1179596Y1270005D02*
X1185443Y1275852D01*
X1187392Y1270005D02*
X1179596Y1270005D01*
D21*
X286300Y740400D02*
X286300Y707400D01*
X196300Y707400D01*
X196300Y740400D01*
X286300Y740400D01*
D18*
X197612Y750062D02*
X197612Y758705D01*
X201934Y758705D01*
X203374Y757265D01*
X203374Y754384D01*
X201934Y752943D01*
X197612Y752943D01*
X200493Y752943D02*
X203374Y750062D01*
X206967Y748621D02*
X212729Y748621D01*
X216322Y750062D02*
X216322Y755824D01*
X219204Y758705D01*
X222085Y755824D01*
X222085Y750062D01*
X222085Y754384D02*
X216322Y754384D01*
X213534Y729495D02*
X210653Y728055D01*
X207772Y725174D01*
X207772Y722293D01*
X209213Y720852D01*
X212094Y720852D01*
X213534Y722293D01*
X213534Y723733D01*
X212094Y725174D01*
X207772Y725174D01*
X217127Y728055D02*
X218568Y729495D01*
X221449Y729495D01*
X222889Y728055D01*
X222889Y726614D01*
X221449Y725174D01*
X222889Y723733D01*
X222889Y722293D01*
X221449Y720852D01*
X218568Y720852D01*
X217127Y722293D01*
X217127Y723733D01*
X218568Y725174D01*
X217127Y726614D01*
X217127Y728055D01*
X218568Y725174D02*
X221449Y725174D01*
X226482Y722293D02*
X226482Y728055D01*
X227923Y729495D01*
X230804Y729495D01*
X232245Y728055D01*
X232245Y722293D01*
X230804Y720852D01*
X227923Y720852D01*
X226482Y722293D01*
X232245Y728055D01*
D21*
X196300Y664200D02*
X196300Y631200D01*
X196300Y664200D02*
X286300Y664200D01*
X286300Y631200D01*
X196300Y631200D01*
D18*
X197612Y673862D02*
X197612Y682505D01*
X201934Y682505D01*
X203374Y681065D01*
X203374Y678184D01*
X201934Y676743D01*
X197612Y676743D01*
X200493Y676743D02*
X203374Y673862D01*
X206967Y672421D02*
X212729Y672421D01*
X219204Y673862D02*
X219204Y682505D01*
X222085Y682505D02*
X216322Y682505D01*
X210653Y653295D02*
X207772Y650414D01*
X210653Y653295D02*
X210653Y644652D01*
X207772Y644652D02*
X213534Y644652D01*
X217127Y644652D02*
X222889Y644652D01*
X217127Y644652D02*
X222889Y650414D01*
X222889Y651855D01*
X221449Y653295D01*
X218568Y653295D01*
X217127Y651855D01*
X226482Y651855D02*
X226482Y646093D01*
X226482Y651855D02*
X227923Y653295D01*
X230804Y653295D01*
X232245Y651855D01*
X232245Y646093D01*
X230804Y644652D01*
X227923Y644652D01*
X226482Y646093D01*
X232245Y651855D01*
D21*
X196300Y588000D02*
X196300Y555000D01*
X196300Y588000D02*
X286300Y588000D01*
X286300Y555000D01*
X196300Y555000D01*
D18*
X197612Y597662D02*
X197612Y606305D01*
X201934Y606305D01*
X203374Y604865D01*
X203374Y601984D01*
X201934Y600543D01*
X197612Y600543D01*
X200493Y600543D02*
X203374Y597662D01*
X206967Y596221D02*
X212729Y596221D01*
X216322Y597662D02*
X216322Y606305D01*
X220644Y606305D01*
X222085Y604865D01*
X222085Y603424D01*
X220644Y601984D01*
X222085Y600543D01*
X222085Y599103D01*
X220644Y597662D01*
X216322Y597662D01*
X216322Y601984D02*
X220644Y601984D01*
X213534Y577095D02*
X210653Y575655D01*
X207772Y572774D01*
X207772Y569893D01*
X209213Y568452D01*
X212094Y568452D01*
X213534Y569893D01*
X213534Y571333D01*
X212094Y572774D01*
X207772Y572774D01*
X217127Y575655D02*
X218568Y577095D01*
X221449Y577095D01*
X222889Y575655D01*
X222889Y574214D01*
X221449Y572774D01*
X222889Y571333D01*
X222889Y569893D01*
X221449Y568452D01*
X218568Y568452D01*
X217127Y569893D01*
X217127Y571333D01*
X218568Y572774D01*
X217127Y574214D01*
X217127Y575655D01*
X218568Y572774D02*
X221449Y572774D01*
X226482Y569893D02*
X226482Y575655D01*
X227923Y577095D01*
X230804Y577095D01*
X232245Y575655D01*
X232245Y569893D01*
X230804Y568452D01*
X227923Y568452D01*
X226482Y569893D01*
X232245Y575655D01*
X356114Y1040475D02*
X354673Y1041915D01*
X351792Y1041915D01*
X350352Y1040475D01*
X350352Y1034713D01*
X351792Y1033272D01*
X354673Y1033272D01*
X356114Y1034713D01*
X364029Y1033272D02*
X364029Y1041915D01*
X359707Y1037594D01*
X365469Y1037594D01*
X338673Y1066292D02*
X332911Y1066292D01*
X338673Y1072054D01*
X338673Y1073495D01*
X337233Y1074935D01*
X334352Y1074935D01*
X332911Y1073495D01*
X342266Y1066292D02*
X348029Y1066292D01*
X348029Y1072054D02*
X342266Y1066292D01*
X348029Y1072054D02*
X348029Y1073495D01*
X346588Y1074935D01*
X343707Y1074935D01*
X342266Y1073495D01*
X351622Y1072054D02*
X351622Y1067733D01*
X353062Y1066292D01*
X357384Y1066292D01*
X357384Y1072054D01*
X360977Y1074935D02*
X360977Y1066292D01*
X360977Y1074935D02*
X366739Y1074935D01*
X363858Y1070614D02*
X360977Y1070614D01*
X279914Y1040475D02*
X278473Y1041915D01*
X275592Y1041915D01*
X274152Y1040475D01*
X274152Y1034713D01*
X275592Y1033272D01*
X278473Y1033272D01*
X279914Y1034713D01*
X283507Y1041915D02*
X289269Y1041915D01*
X283507Y1041915D02*
X283507Y1037594D01*
X286388Y1039034D01*
X287829Y1039034D01*
X289269Y1037594D01*
X289269Y1034713D01*
X287829Y1033272D01*
X284947Y1033272D01*
X283507Y1034713D01*
X256711Y1072054D02*
X259592Y1074935D01*
X259592Y1066292D01*
X256711Y1066292D02*
X262473Y1066292D01*
X266066Y1067733D02*
X266066Y1073495D01*
X267507Y1074935D01*
X270388Y1074935D01*
X271829Y1073495D01*
X271829Y1067733D01*
X270388Y1066292D01*
X267507Y1066292D01*
X266066Y1067733D01*
X271829Y1073495D01*
X275422Y1072054D02*
X275422Y1067733D01*
X276862Y1066292D01*
X281184Y1066292D01*
X281184Y1072054D01*
X284777Y1074935D02*
X284777Y1066292D01*
X284777Y1074935D02*
X290539Y1074935D01*
X287658Y1070614D02*
X284777Y1070614D01*
D25*
X302765Y815469D02*
X302130Y814834D01*
X302130Y813563D01*
X302765Y812927D01*
X305307Y812927D01*
X305943Y813563D01*
X305943Y814834D01*
X305307Y815469D01*
X302765Y816669D02*
X302130Y817305D01*
X302130Y818576D01*
X302765Y819211D01*
X303401Y819211D01*
X304036Y818576D01*
X304672Y819211D01*
X305307Y819211D01*
X305943Y818576D01*
X305943Y817305D01*
X305307Y816669D01*
X304672Y816669D01*
X304036Y817305D01*
X303401Y816669D01*
X302765Y816669D01*
X304036Y817305D02*
X304036Y818576D01*
D21*
X2667000Y121920D02*
X2673350Y115570D01*
X2667000Y121920D02*
X2654300Y121920D01*
X2647950Y115570D01*
X2647950Y102870D01*
X2654300Y96520D01*
X2667000Y96520D01*
X2673350Y102870D01*
X2673350Y115570D01*
D20*
X2655492Y137761D02*
X2653543Y139710D01*
X2649645Y139710D01*
X2647696Y137761D01*
X2647696Y129965D01*
X2649645Y128016D01*
X2653543Y128016D01*
X2655492Y129965D01*
X2655492Y133863D01*
X2651594Y133863D01*
X2659390Y128016D02*
X2659390Y139710D01*
X2667186Y128016D01*
X2667186Y139710D01*
X2671084Y139710D02*
X2671084Y128016D01*
X2676931Y128016D01*
X2678880Y129965D01*
X2678880Y137761D01*
X2676931Y139710D01*
X2671084Y139710D01*
D21*
X208280Y1163320D02*
X201930Y1169670D01*
X189230Y1169670D01*
X182880Y1163320D01*
X182880Y1150620D01*
X189230Y1144270D01*
X201930Y1144270D01*
X208280Y1150620D01*
X208280Y1163320D01*
D20*
X190422Y1187460D02*
X182626Y1187460D01*
X182626Y1181613D01*
X186524Y1183562D01*
X188473Y1183562D01*
X190422Y1181613D01*
X190422Y1177715D01*
X188473Y1175766D01*
X184575Y1175766D01*
X182626Y1177715D01*
X194320Y1179664D02*
X194320Y1187460D01*
X194320Y1179664D02*
X198218Y1175766D01*
X202116Y1179664D01*
X202116Y1187460D01*
D21*
X389890Y726440D02*
X396240Y720090D01*
X389890Y726440D02*
X377190Y726440D01*
X370840Y720090D01*
X370840Y707390D01*
X377190Y701040D01*
X389890Y701040D01*
X396240Y707390D01*
X396240Y720090D01*
D20*
X372535Y744230D02*
X370586Y742281D01*
X372535Y744230D02*
X376433Y744230D01*
X378382Y742281D01*
X378382Y740332D01*
X376433Y738383D01*
X374484Y738383D01*
X376433Y738383D02*
X378382Y736434D01*
X378382Y734485D01*
X376433Y732536D01*
X372535Y732536D01*
X370586Y734485D01*
X382280Y734485D02*
X382280Y732536D01*
X382280Y734485D02*
X384229Y734485D01*
X384229Y732536D01*
X382280Y732536D01*
X388127Y742281D02*
X390076Y744230D01*
X393974Y744230D01*
X395923Y742281D01*
X395923Y740332D01*
X393974Y738383D01*
X392025Y738383D01*
X393974Y738383D02*
X395923Y736434D01*
X395923Y734485D01*
X393974Y732536D01*
X390076Y732536D01*
X388127Y734485D01*
X399821Y736434D02*
X399821Y744230D01*
X399821Y736434D02*
X403719Y732536D01*
X407617Y736434D01*
X407617Y744230D01*
D21*
X351790Y1337310D02*
X345440Y1343660D01*
X332740Y1343660D01*
X326390Y1337310D01*
X326390Y1324610D01*
X332740Y1318260D01*
X345440Y1318260D01*
X351790Y1324610D01*
X351790Y1337310D01*
D20*
X333932Y1359501D02*
X331983Y1361450D01*
X328085Y1361450D01*
X326136Y1359501D01*
X326136Y1351705D01*
X328085Y1349756D01*
X331983Y1349756D01*
X333932Y1351705D01*
X333932Y1355603D01*
X330034Y1355603D01*
X337830Y1349756D02*
X337830Y1361450D01*
X345626Y1349756D01*
X345626Y1361450D01*
X349524Y1361450D02*
X349524Y1349756D01*
X355371Y1349756D01*
X357320Y1351705D01*
X357320Y1359501D01*
X355371Y1361450D01*
X349524Y1361450D01*
X367065Y1349756D02*
X369014Y1351705D01*
X367065Y1349756D02*
X363167Y1349756D01*
X361218Y1351705D01*
X361218Y1359501D01*
X363167Y1361450D01*
X367065Y1361450D01*
X369014Y1359501D01*
X369014Y1355603D01*
X367065Y1353654D01*
X363167Y1353654D01*
X363167Y1357552D01*
X367065Y1357552D01*
X367065Y1353654D01*
D21*
X372110Y185420D02*
X378460Y179070D01*
X372110Y185420D02*
X359410Y185420D01*
X353060Y179070D01*
X353060Y166370D01*
X359410Y160020D01*
X372110Y160020D01*
X378460Y166370D01*
X378460Y179070D01*
D20*
X354252Y197363D02*
X346456Y197363D01*
X350354Y201261D02*
X350354Y193465D01*
X358150Y199312D02*
X362048Y203210D01*
X362048Y191516D01*
X358150Y191516D02*
X365946Y191516D01*
X369844Y191516D02*
X377640Y191516D01*
X369844Y191516D02*
X377640Y199312D01*
X377640Y201261D01*
X375691Y203210D01*
X371793Y203210D01*
X369844Y201261D01*
X381538Y203210D02*
X381538Y195414D01*
X385436Y191516D01*
X389334Y195414D01*
X389334Y203210D01*
D18*
X410965Y328934D02*
X412405Y330374D01*
X410965Y328934D02*
X410965Y326053D01*
X412405Y324612D01*
X418167Y324612D01*
X419608Y326053D01*
X419608Y328934D01*
X418167Y330374D01*
X418167Y333967D02*
X419608Y335408D01*
X419608Y338289D01*
X418167Y339729D01*
X412405Y339729D01*
X410965Y338289D01*
X410965Y335408D01*
X412405Y333967D01*
X413846Y333967D01*
X415286Y335408D01*
X415286Y339729D01*
X375746Y326561D02*
X372865Y329442D01*
X381508Y329442D01*
X381508Y326561D02*
X381508Y332323D01*
X380067Y335916D02*
X374305Y335916D01*
X372865Y337357D01*
X372865Y340238D01*
X374305Y341679D01*
X380067Y341679D01*
X381508Y340238D01*
X381508Y337357D01*
X380067Y335916D01*
X374305Y341679D01*
X375746Y345272D02*
X380067Y345272D01*
X381508Y346712D01*
X381508Y351034D01*
X375746Y351034D01*
X372865Y354627D02*
X381508Y354627D01*
X372865Y354627D02*
X372865Y360389D01*
X377186Y357508D02*
X377186Y354627D01*
X412405Y266874D02*
X410965Y265434D01*
X410965Y262553D01*
X412405Y261112D01*
X418167Y261112D01*
X419608Y262553D01*
X419608Y265434D01*
X418167Y266874D01*
X413846Y270467D02*
X410965Y273348D01*
X419608Y273348D01*
X419608Y270467D02*
X419608Y276229D01*
X418167Y279822D02*
X412405Y279822D01*
X410965Y281263D01*
X410965Y284144D01*
X412405Y285585D01*
X418167Y285585D01*
X419608Y284144D01*
X419608Y281263D01*
X418167Y279822D01*
X412405Y285585D01*
X375746Y263061D02*
X372865Y265942D01*
X381508Y265942D01*
X381508Y263061D02*
X381508Y268823D01*
X380067Y272416D02*
X374305Y272416D01*
X372865Y273857D01*
X372865Y276738D01*
X374305Y278179D01*
X380067Y278179D01*
X381508Y276738D01*
X381508Y273857D01*
X380067Y272416D01*
X374305Y278179D01*
X375746Y281772D02*
X380067Y281772D01*
X381508Y283212D01*
X381508Y287534D01*
X375746Y287534D01*
X372865Y291127D02*
X381508Y291127D01*
X372865Y291127D02*
X372865Y296889D01*
X377186Y294008D02*
X377186Y291127D01*
X634485Y35564D02*
X635925Y37004D01*
X634485Y35564D02*
X634485Y32683D01*
X635925Y31242D01*
X641687Y31242D01*
X643128Y32683D01*
X643128Y35564D01*
X641687Y37004D01*
X637366Y40597D02*
X634485Y43478D01*
X643128Y43478D01*
X643128Y40597D02*
X643128Y46359D01*
X637366Y49952D02*
X634485Y52834D01*
X643128Y52834D01*
X643128Y55715D02*
X643128Y49952D01*
X649725Y36834D02*
X658368Y36834D01*
X654046Y32512D02*
X649725Y36834D01*
X654046Y38274D02*
X654046Y32512D01*
X656927Y41867D02*
X658368Y41867D01*
X656927Y41867D02*
X656927Y43308D01*
X658368Y43308D01*
X658368Y41867D01*
X649725Y46545D02*
X649725Y52307D01*
X651165Y52307D01*
X656927Y46545D01*
X658368Y46545D01*
X656927Y57341D02*
X654046Y57341D01*
X656927Y57341D02*
X658368Y58781D01*
X658368Y60222D01*
X656927Y61662D01*
X654046Y61662D01*
X656927Y57341D02*
X659809Y57341D01*
X661249Y55900D01*
X658368Y65255D02*
X649725Y65255D01*
X649725Y71017D01*
X654046Y68136D02*
X654046Y65255D01*
D21*
X596900Y1308100D02*
X520700Y1308100D01*
X596900Y1308100D02*
X596900Y1295400D01*
X647700Y1295400D01*
X647700Y685800D01*
X469900Y685800D01*
X469900Y1295400D01*
X520700Y1295400D01*
X520700Y1308100D01*
D20*
X527558Y1316907D02*
X527558Y1326652D01*
X527558Y1316907D02*
X529507Y1314958D01*
X533405Y1314958D01*
X535354Y1316907D01*
X535354Y1326652D01*
X539252Y1316907D02*
X541201Y1314958D01*
X545099Y1314958D01*
X547048Y1316907D01*
X547048Y1318856D01*
X545099Y1320805D01*
X541201Y1320805D01*
X539252Y1322754D01*
X539252Y1324703D01*
X541201Y1326652D01*
X545099Y1326652D01*
X547048Y1324703D01*
X543150Y1328601D02*
X543150Y1313009D01*
X550946Y1314958D02*
X558742Y1314958D01*
X550946Y1314958D02*
X558742Y1322754D01*
X558742Y1324703D01*
X556793Y1326652D01*
X552895Y1326652D01*
X550946Y1324703D01*
X532892Y880706D02*
X521198Y880706D01*
X521198Y876808D02*
X521198Y884604D01*
X521198Y888502D02*
X521198Y896298D01*
X521198Y888502D02*
X532892Y888502D01*
X532892Y896298D01*
X527045Y892400D02*
X527045Y888502D01*
X521198Y900196D02*
X521198Y907992D01*
X521198Y900196D02*
X532892Y900196D01*
X532892Y907992D01*
X527045Y904094D02*
X527045Y900196D01*
X532892Y911890D02*
X521198Y911890D01*
X532892Y919686D01*
X521198Y919686D01*
X521198Y929431D02*
X523147Y931380D01*
X521198Y929431D02*
X521198Y925533D01*
X523147Y923584D01*
X525096Y923584D01*
X527045Y925533D01*
X527045Y929431D01*
X528994Y931380D01*
X530943Y931380D01*
X532892Y929431D01*
X532892Y925533D01*
X530943Y923584D01*
X523147Y935278D02*
X521198Y935278D01*
X523147Y935278D02*
X527045Y939176D01*
X523147Y943074D01*
X521198Y943074D01*
X527045Y939176D02*
X532892Y939176D01*
X534841Y946972D02*
X534841Y954768D01*
X523147Y958666D02*
X521198Y960615D01*
X521198Y964513D01*
X523147Y966462D01*
X525096Y966462D01*
X527045Y964513D01*
X527045Y962564D01*
X527045Y964513D02*
X528994Y966462D01*
X530943Y966462D01*
X532892Y964513D01*
X532892Y960615D01*
X530943Y958666D01*
X530943Y970360D02*
X532892Y970360D01*
X530943Y970360D02*
X530943Y972309D01*
X532892Y972309D01*
X532892Y970360D01*
X521198Y976207D02*
X521198Y984003D01*
X521198Y976207D02*
X527045Y976207D01*
X525096Y980105D01*
X525096Y982054D01*
X527045Y984003D01*
X530943Y984003D01*
X532892Y982054D01*
X532892Y978156D01*
X530943Y976207D01*
D22*
X131318Y941070D02*
X131318Y1090930D01*
X-7112Y1090930D01*
X-7112Y941070D01*
X131318Y941070D01*
D24*
X112351Y952881D02*
X104513Y952881D01*
X112351Y952881D02*
X113919Y954449D01*
X113919Y957584D01*
X112351Y959152D01*
X104513Y959152D01*
X112351Y962236D02*
X113919Y963804D01*
X113919Y966939D01*
X112351Y968507D01*
X110784Y968507D01*
X109216Y966939D01*
X109216Y963804D01*
X107648Y962236D01*
X106081Y962236D01*
X104513Y963804D01*
X104513Y966939D01*
X106081Y968507D01*
X102945Y965372D02*
X115487Y965372D01*
X107648Y971591D02*
X104513Y974727D01*
X113919Y974727D01*
X113919Y977862D02*
X113919Y971591D01*
D18*
X981710Y965200D02*
X981710Y736600D01*
X923290Y736600D02*
X923290Y965200D01*
X923290Y736600D02*
X981710Y736600D01*
X981710Y965200D02*
X962660Y965200D01*
X942340Y965200D02*
X923290Y965200D01*
X942340Y965200D02*
X942343Y964953D01*
X942352Y964705D01*
X942367Y964458D01*
X942388Y964212D01*
X942415Y963966D01*
X942448Y963721D01*
X942487Y963476D01*
X942532Y963233D01*
X942583Y962991D01*
X942640Y962750D01*
X942702Y962511D01*
X942771Y962273D01*
X942845Y962037D01*
X942925Y961803D01*
X943010Y961571D01*
X943102Y961341D01*
X943198Y961113D01*
X943301Y960888D01*
X943408Y960665D01*
X943522Y960445D01*
X943640Y960228D01*
X943764Y960013D01*
X943893Y959802D01*
X944027Y959594D01*
X944166Y959389D01*
X944310Y959188D01*
X944458Y958990D01*
X944612Y958796D01*
X944770Y958606D01*
X944933Y958420D01*
X945100Y958238D01*
X945272Y958060D01*
X945448Y957886D01*
X945628Y957716D01*
X945813Y957551D01*
X946001Y957391D01*
X946193Y957235D01*
X946389Y957083D01*
X946588Y956937D01*
X946791Y956795D01*
X946998Y956659D01*
X947207Y956527D01*
X947420Y956401D01*
X947636Y956280D01*
X947854Y956164D01*
X948076Y956054D01*
X948300Y955949D01*
X948526Y955849D01*
X948755Y955755D01*
X948986Y955667D01*
X949220Y955584D01*
X949455Y955507D01*
X949692Y955436D01*
X949930Y955370D01*
X950170Y955311D01*
X950412Y955257D01*
X950655Y955209D01*
X950898Y955167D01*
X951143Y955131D01*
X951389Y955101D01*
X951635Y955077D01*
X951882Y955059D01*
X952129Y955047D01*
X952376Y955041D01*
X952624Y955041D01*
X952871Y955047D01*
X953118Y955059D01*
X953365Y955077D01*
X953611Y955101D01*
X953857Y955131D01*
X954102Y955167D01*
X954345Y955209D01*
X954588Y955257D01*
X954830Y955311D01*
X955070Y955370D01*
X955308Y955436D01*
X955545Y955507D01*
X955780Y955584D01*
X956014Y955667D01*
X956245Y955755D01*
X956474Y955849D01*
X956700Y955949D01*
X956924Y956054D01*
X957146Y956164D01*
X957364Y956280D01*
X957580Y956401D01*
X957793Y956527D01*
X958002Y956659D01*
X958209Y956795D01*
X958412Y956937D01*
X958611Y957083D01*
X958807Y957235D01*
X958999Y957391D01*
X959187Y957551D01*
X959372Y957716D01*
X959552Y957886D01*
X959728Y958060D01*
X959900Y958238D01*
X960067Y958420D01*
X960230Y958606D01*
X960388Y958796D01*
X960542Y958990D01*
X960690Y959188D01*
X960834Y959389D01*
X960973Y959594D01*
X961107Y959802D01*
X961236Y960013D01*
X961360Y960228D01*
X961478Y960445D01*
X961592Y960665D01*
X961699Y960888D01*
X961802Y961113D01*
X961898Y961341D01*
X961990Y961571D01*
X962075Y961803D01*
X962155Y962037D01*
X962229Y962273D01*
X962298Y962511D01*
X962360Y962750D01*
X962417Y962991D01*
X962468Y963233D01*
X962513Y963476D01*
X962552Y963721D01*
X962585Y963966D01*
X962612Y964212D01*
X962633Y964458D01*
X962648Y964705D01*
X962657Y964953D01*
X962660Y965200D01*
D22*
X926468Y968375D02*
X922655Y968375D01*
X924562Y968375D02*
X924562Y979815D01*
X926468Y979815D02*
X922655Y979815D01*
X936171Y979815D02*
X938077Y977908D01*
X936171Y979815D02*
X932358Y979815D01*
X930451Y977908D01*
X930451Y970282D01*
X932358Y968375D01*
X936171Y968375D01*
X938077Y970282D01*
X942145Y977908D02*
X944052Y979815D01*
X947865Y979815D01*
X949771Y977908D01*
X949771Y976002D01*
X947865Y974095D01*
X945958Y974095D01*
X947865Y974095D02*
X949771Y972188D01*
X949771Y970282D01*
X947865Y968375D01*
X944052Y968375D01*
X942145Y970282D01*
X946775Y853233D02*
X956308Y853233D01*
X958215Y855140D01*
X958215Y858953D01*
X956308Y860860D01*
X946775Y860860D01*
X946775Y864927D02*
X958215Y864927D01*
X958215Y872554D01*
X956308Y876621D02*
X948682Y876621D01*
X946775Y878528D01*
X946775Y882341D01*
X948682Y884248D01*
X956308Y884248D01*
X958215Y882341D01*
X958215Y878528D01*
X956308Y876621D01*
X954402Y880434D02*
X958215Y884248D01*
X958215Y888315D02*
X958215Y895941D01*
X958215Y888315D02*
X950589Y895941D01*
X948682Y895941D01*
X946775Y894035D01*
X946775Y890222D01*
X948682Y888315D01*
X948682Y900009D02*
X946775Y901916D01*
X946775Y905729D01*
X948682Y907635D01*
X950589Y907635D01*
X952495Y905729D01*
X954402Y907635D01*
X956308Y907635D01*
X958215Y905729D01*
X958215Y901916D01*
X956308Y900009D01*
X954402Y900009D01*
X952495Y901916D01*
X950589Y900009D01*
X948682Y900009D01*
X952495Y901916D02*
X952495Y905729D01*
X956308Y911703D02*
X948682Y911703D01*
X946775Y913610D01*
X946775Y917423D01*
X948682Y919329D01*
X956308Y919329D01*
X958215Y917423D01*
X958215Y913610D01*
X956308Y911703D01*
X948682Y919329D01*
X948682Y923397D02*
X946775Y925304D01*
X946775Y929117D01*
X948682Y931023D01*
X950589Y931023D01*
X952495Y929117D01*
X952495Y927210D01*
X952495Y929117D02*
X954402Y931023D01*
X956308Y931023D01*
X958215Y929117D01*
X958215Y925304D01*
X956308Y923397D01*
X958215Y935091D02*
X950589Y935091D01*
X946775Y938904D01*
X950589Y942717D01*
X958215Y942717D01*
X952495Y942717D02*
X952495Y935091D01*
D21*
X1289050Y977900D02*
X1301750Y977900D01*
X1308100Y971550D01*
X1308100Y958850D02*
X1301750Y952500D01*
X1263650Y977900D02*
X1257300Y971550D01*
X1263650Y977900D02*
X1276350Y977900D01*
X1282700Y971550D01*
X1282700Y958850D02*
X1276350Y952500D01*
X1263650Y952500D01*
X1257300Y958850D01*
X1282700Y971550D02*
X1289050Y977900D01*
X1282700Y958850D02*
X1289050Y952500D01*
X1301750Y952500D01*
X1225550Y977900D02*
X1212850Y977900D01*
X1225550Y977900D02*
X1231900Y971550D01*
X1231900Y958850D02*
X1225550Y952500D01*
X1231900Y971550D02*
X1238250Y977900D01*
X1250950Y977900D01*
X1257300Y971550D01*
X1257300Y958850D02*
X1250950Y952500D01*
X1238250Y952500D01*
X1231900Y958850D01*
X1187450Y977900D02*
X1181100Y971550D01*
X1187450Y977900D02*
X1200150Y977900D01*
X1206500Y971550D01*
X1206500Y958850D02*
X1200150Y952500D01*
X1187450Y952500D01*
X1181100Y958850D01*
X1206500Y971550D02*
X1212850Y977900D01*
X1206500Y958850D02*
X1212850Y952500D01*
X1225550Y952500D01*
X1162050Y977900D02*
X1155700Y971550D01*
X1162050Y977900D02*
X1174750Y977900D01*
X1181100Y971550D01*
X1181100Y958850D02*
X1174750Y952500D01*
X1162050Y952500D01*
X1155700Y958850D01*
X1466850Y977900D02*
X1479550Y977900D01*
X1485900Y971550D01*
X1485900Y958850D02*
X1479550Y952500D01*
X1441450Y977900D02*
X1435100Y971550D01*
X1441450Y977900D02*
X1454150Y977900D01*
X1460500Y971550D01*
X1460500Y958850D02*
X1454150Y952500D01*
X1441450Y952500D01*
X1435100Y958850D01*
X1460500Y971550D02*
X1466850Y977900D01*
X1460500Y958850D02*
X1466850Y952500D01*
X1479550Y952500D01*
X1403350Y977900D02*
X1390650Y977900D01*
X1403350Y977900D02*
X1409700Y971550D01*
X1409700Y958850D02*
X1403350Y952500D01*
X1409700Y971550D02*
X1416050Y977900D01*
X1428750Y977900D01*
X1435100Y971550D01*
X1435100Y958850D02*
X1428750Y952500D01*
X1416050Y952500D01*
X1409700Y958850D01*
X1365250Y977900D02*
X1358900Y971550D01*
X1365250Y977900D02*
X1377950Y977900D01*
X1384300Y971550D01*
X1384300Y958850D02*
X1377950Y952500D01*
X1365250Y952500D01*
X1358900Y958850D01*
X1384300Y971550D02*
X1390650Y977900D01*
X1384300Y958850D02*
X1390650Y952500D01*
X1403350Y952500D01*
X1327150Y977900D02*
X1314450Y977900D01*
X1327150Y977900D02*
X1333500Y971550D01*
X1333500Y958850D02*
X1327150Y952500D01*
X1333500Y971550D02*
X1339850Y977900D01*
X1352550Y977900D01*
X1358900Y971550D01*
X1358900Y958850D02*
X1352550Y952500D01*
X1339850Y952500D01*
X1333500Y958850D01*
X1314450Y977900D02*
X1308100Y971550D01*
X1308100Y958850D02*
X1314450Y952500D01*
X1327150Y952500D01*
X1485900Y971550D02*
X1492250Y977900D01*
X1504950Y977900D01*
X1511300Y971550D01*
X1511300Y958850D02*
X1504950Y952500D01*
X1492250Y952500D01*
X1485900Y958850D01*
X1511300Y971550D02*
X1517650Y977900D01*
X1530350Y977900D01*
X1536700Y971550D01*
X1536700Y958850D02*
X1530350Y952500D01*
X1517650Y952500D01*
X1511300Y958850D01*
X1536700Y971550D02*
X1543050Y977900D01*
X1555750Y977900D01*
X1562100Y971550D01*
X1562100Y958850D02*
X1555750Y952500D01*
X1543050Y952500D01*
X1536700Y958850D01*
X1562100Y971550D02*
X1568450Y977900D01*
X1581150Y977900D01*
X1587500Y971550D01*
X1587500Y958850D02*
X1581150Y952500D01*
X1568450Y952500D01*
X1562100Y958850D01*
X1587500Y971550D02*
X1593850Y977900D01*
X1606550Y977900D01*
X1612900Y971550D01*
X1612900Y958850D02*
X1606550Y952500D01*
X1593850Y952500D01*
X1587500Y958850D01*
X1612900Y971550D02*
X1619250Y977900D01*
X1631950Y977900D01*
X1638300Y971550D01*
X1638300Y958850D02*
X1631950Y952500D01*
X1619250Y952500D01*
X1612900Y958850D01*
X1638300Y971550D02*
X1644650Y977900D01*
X1657350Y977900D01*
X1663700Y971550D01*
X1663700Y958850D02*
X1657350Y952500D01*
X1644650Y952500D01*
X1638300Y958850D01*
X1663700Y971550D02*
X1670050Y977900D01*
X1682750Y977900D01*
X1689100Y971550D01*
X1689100Y958850D02*
X1682750Y952500D01*
X1670050Y952500D01*
X1663700Y958850D01*
X1689100Y971550D02*
X1695450Y977900D01*
X1708150Y977900D01*
X1714500Y971550D01*
X1714500Y958850D02*
X1708150Y952500D01*
X1695450Y952500D01*
X1689100Y958850D01*
X1714500Y971550D02*
X1720850Y977900D01*
X1733550Y977900D01*
X1739900Y971550D01*
X1739900Y958850D02*
X1733550Y952500D01*
X1720850Y952500D01*
X1714500Y958850D01*
X1739900Y971550D02*
X1746250Y977900D01*
X1758950Y977900D01*
X1765300Y971550D01*
X1765300Y958850D01*
X1758950Y952500D01*
X1746250Y952500D01*
X1739900Y958850D01*
X1155700Y958850D02*
X1155700Y971550D01*
D22*
X1155573Y986030D02*
X1155573Y995563D01*
X1155573Y986030D02*
X1157480Y984123D01*
X1161293Y984123D01*
X1163200Y986030D01*
X1163200Y995563D01*
X1167267Y986030D02*
X1169174Y984123D01*
X1172987Y984123D01*
X1174893Y986030D01*
X1174893Y987936D01*
X1172987Y989843D01*
X1169174Y989843D01*
X1167267Y991750D01*
X1167267Y993656D01*
X1169174Y995563D01*
X1172987Y995563D01*
X1174893Y993656D01*
X1171080Y997469D02*
X1171080Y982216D01*
X1178961Y995563D02*
X1186587Y995563D01*
X1186587Y993656D01*
X1178961Y986030D01*
X1178961Y984123D01*
D20*
X1156208Y945652D02*
X1156208Y933958D01*
X1160106Y941754D02*
X1156208Y945652D01*
X1160106Y941754D02*
X1164004Y945652D01*
X1164004Y933958D01*
X1167902Y933958D02*
X1175698Y933958D01*
X1167902Y933958D02*
X1175698Y941754D01*
X1175698Y943703D01*
X1173749Y945652D01*
X1169851Y945652D01*
X1167902Y943703D01*
X1185443Y945652D02*
X1185443Y933958D01*
X1179596Y939805D02*
X1185443Y945652D01*
X1187392Y939805D02*
X1179596Y939805D01*
D18*
X981710Y635000D02*
X981710Y406400D01*
X923290Y406400D02*
X923290Y635000D01*
X923290Y406400D02*
X981710Y406400D01*
X981710Y635000D02*
X962660Y635000D01*
X942340Y635000D02*
X923290Y635000D01*
X942340Y635000D02*
X942343Y634753D01*
X942352Y634505D01*
X942367Y634258D01*
X942388Y634012D01*
X942415Y633766D01*
X942448Y633521D01*
X942487Y633276D01*
X942532Y633033D01*
X942583Y632791D01*
X942640Y632550D01*
X942702Y632311D01*
X942771Y632073D01*
X942845Y631837D01*
X942925Y631603D01*
X943010Y631371D01*
X943102Y631141D01*
X943198Y630913D01*
X943301Y630688D01*
X943408Y630465D01*
X943522Y630245D01*
X943640Y630028D01*
X943764Y629813D01*
X943893Y629602D01*
X944027Y629394D01*
X944166Y629189D01*
X944310Y628988D01*
X944458Y628790D01*
X944612Y628596D01*
X944770Y628406D01*
X944933Y628220D01*
X945100Y628038D01*
X945272Y627860D01*
X945448Y627686D01*
X945628Y627516D01*
X945813Y627351D01*
X946001Y627191D01*
X946193Y627035D01*
X946389Y626883D01*
X946588Y626737D01*
X946791Y626595D01*
X946998Y626459D01*
X947207Y626327D01*
X947420Y626201D01*
X947636Y626080D01*
X947854Y625964D01*
X948076Y625854D01*
X948300Y625749D01*
X948526Y625649D01*
X948755Y625555D01*
X948986Y625467D01*
X949220Y625384D01*
X949455Y625307D01*
X949692Y625236D01*
X949930Y625170D01*
X950170Y625111D01*
X950412Y625057D01*
X950655Y625009D01*
X950898Y624967D01*
X951143Y624931D01*
X951389Y624901D01*
X951635Y624877D01*
X951882Y624859D01*
X952129Y624847D01*
X952376Y624841D01*
X952624Y624841D01*
X952871Y624847D01*
X953118Y624859D01*
X953365Y624877D01*
X953611Y624901D01*
X953857Y624931D01*
X954102Y624967D01*
X954345Y625009D01*
X954588Y625057D01*
X954830Y625111D01*
X955070Y625170D01*
X955308Y625236D01*
X955545Y625307D01*
X955780Y625384D01*
X956014Y625467D01*
X956245Y625555D01*
X956474Y625649D01*
X956700Y625749D01*
X956924Y625854D01*
X957146Y625964D01*
X957364Y626080D01*
X957580Y626201D01*
X957793Y626327D01*
X958002Y626459D01*
X958209Y626595D01*
X958412Y626737D01*
X958611Y626883D01*
X958807Y627035D01*
X958999Y627191D01*
X959187Y627351D01*
X959372Y627516D01*
X959552Y627686D01*
X959728Y627860D01*
X959900Y628038D01*
X960067Y628220D01*
X960230Y628406D01*
X960388Y628596D01*
X960542Y628790D01*
X960690Y628988D01*
X960834Y629189D01*
X960973Y629394D01*
X961107Y629602D01*
X961236Y629813D01*
X961360Y630028D01*
X961478Y630245D01*
X961592Y630465D01*
X961699Y630688D01*
X961802Y630913D01*
X961898Y631141D01*
X961990Y631371D01*
X962075Y631603D01*
X962155Y631837D01*
X962229Y632073D01*
X962298Y632311D01*
X962360Y632550D01*
X962417Y632791D01*
X962468Y633033D01*
X962513Y633276D01*
X962552Y633521D01*
X962585Y633766D01*
X962612Y634012D01*
X962633Y634258D01*
X962648Y634505D01*
X962657Y634753D01*
X962660Y635000D01*
D22*
X926468Y638175D02*
X922655Y638175D01*
X924562Y638175D02*
X924562Y649615D01*
X926468Y649615D02*
X922655Y649615D01*
X936171Y649615D02*
X938077Y647708D01*
X936171Y649615D02*
X932358Y649615D01*
X930451Y647708D01*
X930451Y640082D01*
X932358Y638175D01*
X936171Y638175D01*
X938077Y640082D01*
X947865Y638175D02*
X947865Y649615D01*
X942145Y643895D01*
X949771Y643895D01*
X946775Y523033D02*
X956308Y523033D01*
X958215Y524940D01*
X958215Y528753D01*
X956308Y530660D01*
X946775Y530660D01*
X946775Y534727D02*
X958215Y534727D01*
X958215Y542354D01*
X956308Y546421D02*
X948682Y546421D01*
X946775Y548328D01*
X946775Y552141D01*
X948682Y554048D01*
X956308Y554048D01*
X958215Y552141D01*
X958215Y548328D01*
X956308Y546421D01*
X954402Y550234D02*
X958215Y554048D01*
X958215Y558115D02*
X958215Y565741D01*
X958215Y558115D02*
X950589Y565741D01*
X948682Y565741D01*
X946775Y563835D01*
X946775Y560022D01*
X948682Y558115D01*
X948682Y569809D02*
X946775Y571716D01*
X946775Y575529D01*
X948682Y577435D01*
X950589Y577435D01*
X952495Y575529D01*
X954402Y577435D01*
X956308Y577435D01*
X958215Y575529D01*
X958215Y571716D01*
X956308Y569809D01*
X954402Y569809D01*
X952495Y571716D01*
X950589Y569809D01*
X948682Y569809D01*
X952495Y571716D02*
X952495Y575529D01*
X956308Y581503D02*
X948682Y581503D01*
X946775Y583410D01*
X946775Y587223D01*
X948682Y589129D01*
X956308Y589129D01*
X958215Y587223D01*
X958215Y583410D01*
X956308Y581503D01*
X948682Y589129D01*
X948682Y593197D02*
X946775Y595104D01*
X946775Y598917D01*
X948682Y600823D01*
X950589Y600823D01*
X952495Y598917D01*
X952495Y597010D01*
X952495Y598917D02*
X954402Y600823D01*
X956308Y600823D01*
X958215Y598917D01*
X958215Y595104D01*
X956308Y593197D01*
X958215Y604891D02*
X950589Y604891D01*
X946775Y608704D01*
X950589Y612517D01*
X958215Y612517D01*
X952495Y612517D02*
X952495Y604891D01*
D21*
X1289050Y647700D02*
X1301750Y647700D01*
X1308100Y641350D01*
X1308100Y628650D02*
X1301750Y622300D01*
X1263650Y647700D02*
X1257300Y641350D01*
X1263650Y647700D02*
X1276350Y647700D01*
X1282700Y641350D01*
X1282700Y628650D02*
X1276350Y622300D01*
X1263650Y622300D01*
X1257300Y628650D01*
X1282700Y641350D02*
X1289050Y647700D01*
X1282700Y628650D02*
X1289050Y622300D01*
X1301750Y622300D01*
X1225550Y647700D02*
X1212850Y647700D01*
X1225550Y647700D02*
X1231900Y641350D01*
X1231900Y628650D02*
X1225550Y622300D01*
X1231900Y641350D02*
X1238250Y647700D01*
X1250950Y647700D01*
X1257300Y641350D01*
X1257300Y628650D02*
X1250950Y622300D01*
X1238250Y622300D01*
X1231900Y628650D01*
X1187450Y647700D02*
X1181100Y641350D01*
X1187450Y647700D02*
X1200150Y647700D01*
X1206500Y641350D01*
X1206500Y628650D02*
X1200150Y622300D01*
X1187450Y622300D01*
X1181100Y628650D01*
X1206500Y641350D02*
X1212850Y647700D01*
X1206500Y628650D02*
X1212850Y622300D01*
X1225550Y622300D01*
X1162050Y647700D02*
X1155700Y641350D01*
X1162050Y647700D02*
X1174750Y647700D01*
X1181100Y641350D01*
X1181100Y628650D02*
X1174750Y622300D01*
X1162050Y622300D01*
X1155700Y628650D01*
X1466850Y647700D02*
X1479550Y647700D01*
X1485900Y641350D01*
X1485900Y628650D02*
X1479550Y622300D01*
X1441450Y647700D02*
X1435100Y641350D01*
X1441450Y647700D02*
X1454150Y647700D01*
X1460500Y641350D01*
X1460500Y628650D02*
X1454150Y622300D01*
X1441450Y622300D01*
X1435100Y628650D01*
X1460500Y641350D02*
X1466850Y647700D01*
X1460500Y628650D02*
X1466850Y622300D01*
X1479550Y622300D01*
X1403350Y647700D02*
X1390650Y647700D01*
X1403350Y647700D02*
X1409700Y641350D01*
X1409700Y628650D02*
X1403350Y622300D01*
X1409700Y641350D02*
X1416050Y647700D01*
X1428750Y647700D01*
X1435100Y641350D01*
X1435100Y628650D02*
X1428750Y622300D01*
X1416050Y622300D01*
X1409700Y628650D01*
X1365250Y647700D02*
X1358900Y641350D01*
X1365250Y647700D02*
X1377950Y647700D01*
X1384300Y641350D01*
X1384300Y628650D02*
X1377950Y622300D01*
X1365250Y622300D01*
X1358900Y628650D01*
X1384300Y641350D02*
X1390650Y647700D01*
X1384300Y628650D02*
X1390650Y622300D01*
X1403350Y622300D01*
X1327150Y647700D02*
X1314450Y647700D01*
X1327150Y647700D02*
X1333500Y641350D01*
X1333500Y628650D02*
X1327150Y622300D01*
X1333500Y641350D02*
X1339850Y647700D01*
X1352550Y647700D01*
X1358900Y641350D01*
X1358900Y628650D02*
X1352550Y622300D01*
X1339850Y622300D01*
X1333500Y628650D01*
X1314450Y647700D02*
X1308100Y641350D01*
X1308100Y628650D02*
X1314450Y622300D01*
X1327150Y622300D01*
X1485900Y641350D02*
X1492250Y647700D01*
X1504950Y647700D01*
X1511300Y641350D01*
X1511300Y628650D02*
X1504950Y622300D01*
X1492250Y622300D01*
X1485900Y628650D01*
X1511300Y641350D02*
X1517650Y647700D01*
X1530350Y647700D01*
X1536700Y641350D01*
X1536700Y628650D02*
X1530350Y622300D01*
X1517650Y622300D01*
X1511300Y628650D01*
X1536700Y641350D02*
X1543050Y647700D01*
X1555750Y647700D01*
X1562100Y641350D01*
X1562100Y628650D02*
X1555750Y622300D01*
X1543050Y622300D01*
X1536700Y628650D01*
X1562100Y641350D02*
X1568450Y647700D01*
X1581150Y647700D01*
X1587500Y641350D01*
X1587500Y628650D02*
X1581150Y622300D01*
X1568450Y622300D01*
X1562100Y628650D01*
X1587500Y641350D02*
X1593850Y647700D01*
X1606550Y647700D01*
X1612900Y641350D01*
X1612900Y628650D02*
X1606550Y622300D01*
X1593850Y622300D01*
X1587500Y628650D01*
X1612900Y641350D02*
X1619250Y647700D01*
X1631950Y647700D01*
X1638300Y641350D01*
X1638300Y628650D02*
X1631950Y622300D01*
X1619250Y622300D01*
X1612900Y628650D01*
X1638300Y641350D02*
X1644650Y647700D01*
X1657350Y647700D01*
X1663700Y641350D01*
X1663700Y628650D02*
X1657350Y622300D01*
X1644650Y622300D01*
X1638300Y628650D01*
X1663700Y641350D02*
X1670050Y647700D01*
X1682750Y647700D01*
X1689100Y641350D01*
X1689100Y628650D02*
X1682750Y622300D01*
X1670050Y622300D01*
X1663700Y628650D01*
X1689100Y641350D02*
X1695450Y647700D01*
X1708150Y647700D01*
X1714500Y641350D01*
X1714500Y628650D02*
X1708150Y622300D01*
X1695450Y622300D01*
X1689100Y628650D01*
X1714500Y641350D02*
X1720850Y647700D01*
X1733550Y647700D01*
X1739900Y641350D01*
X1739900Y628650D02*
X1733550Y622300D01*
X1720850Y622300D01*
X1714500Y628650D01*
X1739900Y641350D02*
X1746250Y647700D01*
X1758950Y647700D01*
X1765300Y641350D01*
X1765300Y628650D01*
X1758950Y622300D01*
X1746250Y622300D01*
X1739900Y628650D01*
X1155700Y628650D02*
X1155700Y641350D01*
D22*
X1155573Y655830D02*
X1155573Y665363D01*
X1155573Y655830D02*
X1157480Y653923D01*
X1161293Y653923D01*
X1163200Y655830D01*
X1163200Y665363D01*
X1167267Y655830D02*
X1169174Y653923D01*
X1172987Y653923D01*
X1174893Y655830D01*
X1174893Y657736D01*
X1172987Y659643D01*
X1169174Y659643D01*
X1167267Y661550D01*
X1167267Y663456D01*
X1169174Y665363D01*
X1172987Y665363D01*
X1174893Y663456D01*
X1171080Y667269D02*
X1171080Y652016D01*
X1178961Y655830D02*
X1180868Y653923D01*
X1184681Y653923D01*
X1186587Y655830D01*
X1186587Y663456D01*
X1184681Y665363D01*
X1180868Y665363D01*
X1178961Y663456D01*
X1178961Y661550D01*
X1180868Y659643D01*
X1186587Y659643D01*
D20*
X1156208Y615452D02*
X1156208Y603758D01*
X1160106Y611554D02*
X1156208Y615452D01*
X1160106Y611554D02*
X1164004Y615452D01*
X1164004Y603758D01*
X1167902Y603758D02*
X1175698Y603758D01*
X1167902Y603758D02*
X1175698Y611554D01*
X1175698Y613503D01*
X1173749Y615452D01*
X1169851Y615452D01*
X1167902Y613503D01*
X1185443Y615452D02*
X1185443Y603758D01*
X1179596Y609605D02*
X1185443Y615452D01*
X1187392Y609605D02*
X1179596Y609605D01*
D18*
X981710Y304800D02*
X981710Y76200D01*
X923290Y76200D02*
X923290Y304800D01*
X923290Y76200D02*
X981710Y76200D01*
X981710Y304800D02*
X962660Y304800D01*
X942340Y304800D02*
X923290Y304800D01*
X942340Y304800D02*
X942343Y304553D01*
X942352Y304305D01*
X942367Y304058D01*
X942388Y303812D01*
X942415Y303566D01*
X942448Y303321D01*
X942487Y303076D01*
X942532Y302833D01*
X942583Y302591D01*
X942640Y302350D01*
X942702Y302111D01*
X942771Y301873D01*
X942845Y301637D01*
X942925Y301403D01*
X943010Y301171D01*
X943102Y300941D01*
X943198Y300713D01*
X943301Y300488D01*
X943408Y300265D01*
X943522Y300045D01*
X943640Y299828D01*
X943764Y299613D01*
X943893Y299402D01*
X944027Y299194D01*
X944166Y298989D01*
X944310Y298788D01*
X944458Y298590D01*
X944612Y298396D01*
X944770Y298206D01*
X944933Y298020D01*
X945100Y297838D01*
X945272Y297660D01*
X945448Y297486D01*
X945628Y297316D01*
X945813Y297151D01*
X946001Y296991D01*
X946193Y296835D01*
X946389Y296683D01*
X946588Y296537D01*
X946791Y296395D01*
X946998Y296259D01*
X947207Y296127D01*
X947420Y296001D01*
X947636Y295880D01*
X947854Y295764D01*
X948076Y295654D01*
X948300Y295549D01*
X948526Y295449D01*
X948755Y295355D01*
X948986Y295267D01*
X949220Y295184D01*
X949455Y295107D01*
X949692Y295036D01*
X949930Y294970D01*
X950170Y294911D01*
X950412Y294857D01*
X950655Y294809D01*
X950898Y294767D01*
X951143Y294731D01*
X951389Y294701D01*
X951635Y294677D01*
X951882Y294659D01*
X952129Y294647D01*
X952376Y294641D01*
X952624Y294641D01*
X952871Y294647D01*
X953118Y294659D01*
X953365Y294677D01*
X953611Y294701D01*
X953857Y294731D01*
X954102Y294767D01*
X954345Y294809D01*
X954588Y294857D01*
X954830Y294911D01*
X955070Y294970D01*
X955308Y295036D01*
X955545Y295107D01*
X955780Y295184D01*
X956014Y295267D01*
X956245Y295355D01*
X956474Y295449D01*
X956700Y295549D01*
X956924Y295654D01*
X957146Y295764D01*
X957364Y295880D01*
X957580Y296001D01*
X957793Y296127D01*
X958002Y296259D01*
X958209Y296395D01*
X958412Y296537D01*
X958611Y296683D01*
X958807Y296835D01*
X958999Y296991D01*
X959187Y297151D01*
X959372Y297316D01*
X959552Y297486D01*
X959728Y297660D01*
X959900Y297838D01*
X960067Y298020D01*
X960230Y298206D01*
X960388Y298396D01*
X960542Y298590D01*
X960690Y298788D01*
X960834Y298989D01*
X960973Y299194D01*
X961107Y299402D01*
X961236Y299613D01*
X961360Y299828D01*
X961478Y300045D01*
X961592Y300265D01*
X961699Y300488D01*
X961802Y300713D01*
X961898Y300941D01*
X961990Y301171D01*
X962075Y301403D01*
X962155Y301637D01*
X962229Y301873D01*
X962298Y302111D01*
X962360Y302350D01*
X962417Y302591D01*
X962468Y302833D01*
X962513Y303076D01*
X962552Y303321D01*
X962585Y303566D01*
X962612Y303812D01*
X962633Y304058D01*
X962648Y304305D01*
X962657Y304553D01*
X962660Y304800D01*
D22*
X926468Y307975D02*
X922655Y307975D01*
X924562Y307975D02*
X924562Y319415D01*
X926468Y319415D02*
X922655Y319415D01*
X936171Y319415D02*
X938077Y317508D01*
X936171Y319415D02*
X932358Y319415D01*
X930451Y317508D01*
X930451Y309882D01*
X932358Y307975D01*
X936171Y307975D01*
X938077Y309882D01*
X942145Y319415D02*
X949771Y319415D01*
X942145Y319415D02*
X942145Y313695D01*
X945958Y315602D01*
X947865Y315602D01*
X949771Y313695D01*
X949771Y309882D01*
X947865Y307975D01*
X944052Y307975D01*
X942145Y309882D01*
X946775Y192833D02*
X956308Y192833D01*
X958215Y194740D01*
X958215Y198553D01*
X956308Y200460D01*
X946775Y200460D01*
X946775Y204527D02*
X958215Y204527D01*
X958215Y212154D01*
X956308Y216221D02*
X948682Y216221D01*
X946775Y218128D01*
X946775Y221941D01*
X948682Y223848D01*
X956308Y223848D01*
X958215Y221941D01*
X958215Y218128D01*
X956308Y216221D01*
X954402Y220034D02*
X958215Y223848D01*
X958215Y227915D02*
X958215Y235541D01*
X958215Y227915D02*
X950589Y235541D01*
X948682Y235541D01*
X946775Y233635D01*
X946775Y229822D01*
X948682Y227915D01*
X948682Y239609D02*
X946775Y241516D01*
X946775Y245329D01*
X948682Y247235D01*
X950589Y247235D01*
X952495Y245329D01*
X954402Y247235D01*
X956308Y247235D01*
X958215Y245329D01*
X958215Y241516D01*
X956308Y239609D01*
X954402Y239609D01*
X952495Y241516D01*
X950589Y239609D01*
X948682Y239609D01*
X952495Y241516D02*
X952495Y245329D01*
X956308Y251303D02*
X948682Y251303D01*
X946775Y253210D01*
X946775Y257023D01*
X948682Y258929D01*
X956308Y258929D01*
X958215Y257023D01*
X958215Y253210D01*
X956308Y251303D01*
X948682Y258929D01*
X948682Y262997D02*
X946775Y264904D01*
X946775Y268717D01*
X948682Y270623D01*
X950589Y270623D01*
X952495Y268717D01*
X952495Y266810D01*
X952495Y268717D02*
X954402Y270623D01*
X956308Y270623D01*
X958215Y268717D01*
X958215Y264904D01*
X956308Y262997D01*
X958215Y274691D02*
X950589Y274691D01*
X946775Y278504D01*
X950589Y282317D01*
X958215Y282317D01*
X952495Y282317D02*
X952495Y274691D01*
D21*
X1289050Y317500D02*
X1301750Y317500D01*
X1308100Y311150D01*
X1308100Y298450D02*
X1301750Y292100D01*
X1263650Y317500D02*
X1257300Y311150D01*
X1263650Y317500D02*
X1276350Y317500D01*
X1282700Y311150D01*
X1282700Y298450D02*
X1276350Y292100D01*
X1263650Y292100D01*
X1257300Y298450D01*
X1282700Y311150D02*
X1289050Y317500D01*
X1282700Y298450D02*
X1289050Y292100D01*
X1301750Y292100D01*
X1225550Y317500D02*
X1212850Y317500D01*
X1225550Y317500D02*
X1231900Y311150D01*
X1231900Y298450D02*
X1225550Y292100D01*
X1231900Y311150D02*
X1238250Y317500D01*
X1250950Y317500D01*
X1257300Y311150D01*
X1257300Y298450D02*
X1250950Y292100D01*
X1238250Y292100D01*
X1231900Y298450D01*
X1187450Y317500D02*
X1181100Y311150D01*
X1187450Y317500D02*
X1200150Y317500D01*
X1206500Y311150D01*
X1206500Y298450D02*
X1200150Y292100D01*
X1187450Y292100D01*
X1181100Y298450D01*
X1206500Y311150D02*
X1212850Y317500D01*
X1206500Y298450D02*
X1212850Y292100D01*
X1225550Y292100D01*
X1162050Y317500D02*
X1155700Y311150D01*
X1162050Y317500D02*
X1174750Y317500D01*
X1181100Y311150D01*
X1181100Y298450D02*
X1174750Y292100D01*
X1162050Y292100D01*
X1155700Y298450D01*
X1466850Y317500D02*
X1479550Y317500D01*
X1485900Y311150D01*
X1485900Y298450D02*
X1479550Y292100D01*
X1441450Y317500D02*
X1435100Y311150D01*
X1441450Y317500D02*
X1454150Y317500D01*
X1460500Y311150D01*
X1460500Y298450D02*
X1454150Y292100D01*
X1441450Y292100D01*
X1435100Y298450D01*
X1460500Y311150D02*
X1466850Y317500D01*
X1460500Y298450D02*
X1466850Y292100D01*
X1479550Y292100D01*
X1403350Y317500D02*
X1390650Y317500D01*
X1403350Y317500D02*
X1409700Y311150D01*
X1409700Y298450D02*
X1403350Y292100D01*
X1409700Y311150D02*
X1416050Y317500D01*
X1428750Y317500D01*
X1435100Y311150D01*
X1435100Y298450D02*
X1428750Y292100D01*
X1416050Y292100D01*
X1409700Y298450D01*
X1365250Y317500D02*
X1358900Y311150D01*
X1365250Y317500D02*
X1377950Y317500D01*
X1384300Y311150D01*
X1384300Y298450D02*
X1377950Y292100D01*
X1365250Y292100D01*
X1358900Y298450D01*
X1384300Y311150D02*
X1390650Y317500D01*
X1384300Y298450D02*
X1390650Y292100D01*
X1403350Y292100D01*
X1327150Y317500D02*
X1314450Y317500D01*
X1327150Y317500D02*
X1333500Y311150D01*
X1333500Y298450D02*
X1327150Y292100D01*
X1333500Y311150D02*
X1339850Y317500D01*
X1352550Y317500D01*
X1358900Y311150D01*
X1358900Y298450D02*
X1352550Y292100D01*
X1339850Y292100D01*
X1333500Y298450D01*
X1314450Y317500D02*
X1308100Y311150D01*
X1308100Y298450D02*
X1314450Y292100D01*
X1327150Y292100D01*
X1485900Y311150D02*
X1492250Y317500D01*
X1504950Y317500D01*
X1511300Y311150D01*
X1511300Y298450D02*
X1504950Y292100D01*
X1492250Y292100D01*
X1485900Y298450D01*
X1511300Y311150D02*
X1517650Y317500D01*
X1530350Y317500D01*
X1536700Y311150D01*
X1536700Y298450D02*
X1530350Y292100D01*
X1517650Y292100D01*
X1511300Y298450D01*
X1536700Y311150D02*
X1543050Y317500D01*
X1555750Y317500D01*
X1562100Y311150D01*
X1562100Y298450D02*
X1555750Y292100D01*
X1543050Y292100D01*
X1536700Y298450D01*
X1562100Y311150D02*
X1568450Y317500D01*
X1581150Y317500D01*
X1587500Y311150D01*
X1587500Y298450D02*
X1581150Y292100D01*
X1568450Y292100D01*
X1562100Y298450D01*
X1587500Y311150D02*
X1593850Y317500D01*
X1606550Y317500D01*
X1612900Y311150D01*
X1612900Y298450D02*
X1606550Y292100D01*
X1593850Y292100D01*
X1587500Y298450D01*
X1612900Y311150D02*
X1619250Y317500D01*
X1631950Y317500D01*
X1638300Y311150D01*
X1638300Y298450D02*
X1631950Y292100D01*
X1619250Y292100D01*
X1612900Y298450D01*
X1638300Y311150D02*
X1644650Y317500D01*
X1657350Y317500D01*
X1663700Y311150D01*
X1663700Y298450D02*
X1657350Y292100D01*
X1644650Y292100D01*
X1638300Y298450D01*
X1663700Y311150D02*
X1670050Y317500D01*
X1682750Y317500D01*
X1689100Y311150D01*
X1689100Y298450D02*
X1682750Y292100D01*
X1670050Y292100D01*
X1663700Y298450D01*
X1689100Y311150D02*
X1695450Y317500D01*
X1708150Y317500D01*
X1714500Y311150D01*
X1714500Y298450D02*
X1708150Y292100D01*
X1695450Y292100D01*
X1689100Y298450D01*
X1714500Y311150D02*
X1720850Y317500D01*
X1733550Y317500D01*
X1739900Y311150D01*
X1739900Y298450D02*
X1733550Y292100D01*
X1720850Y292100D01*
X1714500Y298450D01*
X1739900Y311150D02*
X1746250Y317500D01*
X1758950Y317500D01*
X1765300Y311150D01*
X1765300Y298450D01*
X1758950Y292100D01*
X1746250Y292100D01*
X1739900Y298450D01*
X1155700Y298450D02*
X1155700Y311150D01*
D22*
X1155573Y325630D02*
X1155573Y335163D01*
X1155573Y325630D02*
X1157480Y323723D01*
X1161293Y323723D01*
X1163200Y325630D01*
X1163200Y335163D01*
X1167267Y325630D02*
X1169174Y323723D01*
X1172987Y323723D01*
X1174893Y325630D01*
X1174893Y327536D01*
X1172987Y329443D01*
X1169174Y329443D01*
X1167267Y331350D01*
X1167267Y333256D01*
X1169174Y335163D01*
X1172987Y335163D01*
X1174893Y333256D01*
X1171080Y337069D02*
X1171080Y321816D01*
X1178961Y331350D02*
X1182774Y335163D01*
X1182774Y323723D01*
X1178961Y323723D02*
X1186587Y323723D01*
X1196375Y323723D02*
X1196375Y335163D01*
X1190655Y329443D01*
X1198281Y329443D01*
D20*
X1156208Y285252D02*
X1156208Y273558D01*
X1160106Y281354D02*
X1156208Y285252D01*
X1160106Y281354D02*
X1164004Y285252D01*
X1164004Y273558D01*
X1167902Y273558D02*
X1175698Y273558D01*
X1167902Y273558D02*
X1175698Y281354D01*
X1175698Y283303D01*
X1173749Y285252D01*
X1169851Y285252D01*
X1167902Y283303D01*
X1185443Y285252D02*
X1185443Y273558D01*
X1179596Y279405D02*
X1185443Y285252D01*
X1187392Y279405D02*
X1179596Y279405D01*
D18*
X1946910Y1066800D02*
X1946910Y1295400D01*
X1888490Y1295400D02*
X1888490Y1066800D01*
X1946910Y1066800D01*
X1946910Y1295400D02*
X1927860Y1295400D01*
X1907540Y1295400D02*
X1888490Y1295400D01*
X1907540Y1295400D02*
X1907543Y1295153D01*
X1907552Y1294905D01*
X1907567Y1294658D01*
X1907588Y1294412D01*
X1907615Y1294166D01*
X1907648Y1293921D01*
X1907687Y1293676D01*
X1907732Y1293433D01*
X1907783Y1293191D01*
X1907840Y1292950D01*
X1907902Y1292711D01*
X1907971Y1292473D01*
X1908045Y1292237D01*
X1908125Y1292003D01*
X1908210Y1291771D01*
X1908302Y1291541D01*
X1908398Y1291313D01*
X1908501Y1291088D01*
X1908608Y1290865D01*
X1908722Y1290645D01*
X1908840Y1290428D01*
X1908964Y1290213D01*
X1909093Y1290002D01*
X1909227Y1289794D01*
X1909366Y1289589D01*
X1909510Y1289388D01*
X1909658Y1289190D01*
X1909812Y1288996D01*
X1909970Y1288806D01*
X1910133Y1288620D01*
X1910300Y1288438D01*
X1910472Y1288260D01*
X1910648Y1288086D01*
X1910828Y1287916D01*
X1911013Y1287751D01*
X1911201Y1287591D01*
X1911393Y1287435D01*
X1911589Y1287283D01*
X1911788Y1287137D01*
X1911991Y1286995D01*
X1912198Y1286859D01*
X1912407Y1286727D01*
X1912620Y1286601D01*
X1912836Y1286480D01*
X1913054Y1286364D01*
X1913276Y1286254D01*
X1913500Y1286149D01*
X1913726Y1286049D01*
X1913955Y1285955D01*
X1914186Y1285867D01*
X1914420Y1285784D01*
X1914655Y1285707D01*
X1914892Y1285636D01*
X1915130Y1285570D01*
X1915370Y1285511D01*
X1915612Y1285457D01*
X1915855Y1285409D01*
X1916098Y1285367D01*
X1916343Y1285331D01*
X1916589Y1285301D01*
X1916835Y1285277D01*
X1917082Y1285259D01*
X1917329Y1285247D01*
X1917576Y1285241D01*
X1917824Y1285241D01*
X1918071Y1285247D01*
X1918318Y1285259D01*
X1918565Y1285277D01*
X1918811Y1285301D01*
X1919057Y1285331D01*
X1919302Y1285367D01*
X1919545Y1285409D01*
X1919788Y1285457D01*
X1920030Y1285511D01*
X1920270Y1285570D01*
X1920508Y1285636D01*
X1920745Y1285707D01*
X1920980Y1285784D01*
X1921214Y1285867D01*
X1921445Y1285955D01*
X1921674Y1286049D01*
X1921900Y1286149D01*
X1922124Y1286254D01*
X1922346Y1286364D01*
X1922564Y1286480D01*
X1922780Y1286601D01*
X1922993Y1286727D01*
X1923202Y1286859D01*
X1923409Y1286995D01*
X1923612Y1287137D01*
X1923811Y1287283D01*
X1924007Y1287435D01*
X1924199Y1287591D01*
X1924387Y1287751D01*
X1924572Y1287916D01*
X1924752Y1288086D01*
X1924928Y1288260D01*
X1925100Y1288438D01*
X1925267Y1288620D01*
X1925430Y1288806D01*
X1925588Y1288996D01*
X1925742Y1289190D01*
X1925890Y1289388D01*
X1926034Y1289589D01*
X1926173Y1289794D01*
X1926307Y1290002D01*
X1926436Y1290213D01*
X1926560Y1290428D01*
X1926678Y1290645D01*
X1926792Y1290865D01*
X1926899Y1291088D01*
X1927002Y1291313D01*
X1927098Y1291541D01*
X1927190Y1291771D01*
X1927275Y1292003D01*
X1927355Y1292237D01*
X1927429Y1292473D01*
X1927498Y1292711D01*
X1927560Y1292950D01*
X1927617Y1293191D01*
X1927668Y1293433D01*
X1927713Y1293676D01*
X1927752Y1293921D01*
X1927785Y1294166D01*
X1927812Y1294412D01*
X1927833Y1294658D01*
X1927848Y1294905D01*
X1927857Y1295153D01*
X1927860Y1295400D01*
D22*
X1891668Y1298575D02*
X1887855Y1298575D01*
X1889762Y1298575D02*
X1889762Y1310015D01*
X1891668Y1310015D02*
X1887855Y1310015D01*
X1901371Y1310015D02*
X1903277Y1308108D01*
X1901371Y1310015D02*
X1897558Y1310015D01*
X1895651Y1308108D01*
X1895651Y1300482D01*
X1897558Y1298575D01*
X1901371Y1298575D01*
X1903277Y1300482D01*
X1911158Y1308108D02*
X1914971Y1310015D01*
X1911158Y1308108D02*
X1907345Y1304295D01*
X1907345Y1300482D01*
X1909252Y1298575D01*
X1913065Y1298575D01*
X1914971Y1300482D01*
X1914971Y1302388D01*
X1913065Y1304295D01*
X1907345Y1304295D01*
X1911975Y1183433D02*
X1921508Y1183433D01*
X1923415Y1185340D01*
X1923415Y1189153D01*
X1921508Y1191060D01*
X1911975Y1191060D01*
X1911975Y1195127D02*
X1923415Y1195127D01*
X1923415Y1202754D01*
X1921508Y1206821D02*
X1913882Y1206821D01*
X1911975Y1208728D01*
X1911975Y1212541D01*
X1913882Y1214448D01*
X1921508Y1214448D01*
X1923415Y1212541D01*
X1923415Y1208728D01*
X1921508Y1206821D01*
X1919602Y1210634D02*
X1923415Y1214448D01*
X1923415Y1218515D02*
X1923415Y1226141D01*
X1923415Y1218515D02*
X1915789Y1226141D01*
X1913882Y1226141D01*
X1911975Y1224235D01*
X1911975Y1220422D01*
X1913882Y1218515D01*
X1913882Y1230209D02*
X1911975Y1232116D01*
X1911975Y1235929D01*
X1913882Y1237835D01*
X1915789Y1237835D01*
X1917695Y1235929D01*
X1919602Y1237835D01*
X1921508Y1237835D01*
X1923415Y1235929D01*
X1923415Y1232116D01*
X1921508Y1230209D01*
X1919602Y1230209D01*
X1917695Y1232116D01*
X1915789Y1230209D01*
X1913882Y1230209D01*
X1917695Y1232116D02*
X1917695Y1235929D01*
X1921508Y1241903D02*
X1913882Y1241903D01*
X1911975Y1243810D01*
X1911975Y1247623D01*
X1913882Y1249529D01*
X1921508Y1249529D01*
X1923415Y1247623D01*
X1923415Y1243810D01*
X1921508Y1241903D01*
X1913882Y1249529D01*
X1913882Y1253597D02*
X1911975Y1255504D01*
X1911975Y1259317D01*
X1913882Y1261223D01*
X1915789Y1261223D01*
X1917695Y1259317D01*
X1917695Y1257410D01*
X1917695Y1259317D02*
X1919602Y1261223D01*
X1921508Y1261223D01*
X1923415Y1259317D01*
X1923415Y1255504D01*
X1921508Y1253597D01*
X1923415Y1265291D02*
X1915789Y1265291D01*
X1911975Y1269104D01*
X1915789Y1272917D01*
X1923415Y1272917D01*
X1917695Y1272917D02*
X1917695Y1265291D01*
D21*
X2254250Y1308100D02*
X2266950Y1308100D01*
X2273300Y1301750D01*
X2273300Y1289050D02*
X2266950Y1282700D01*
X2228850Y1308100D02*
X2222500Y1301750D01*
X2228850Y1308100D02*
X2241550Y1308100D01*
X2247900Y1301750D01*
X2247900Y1289050D02*
X2241550Y1282700D01*
X2228850Y1282700D01*
X2222500Y1289050D01*
X2247900Y1301750D02*
X2254250Y1308100D01*
X2247900Y1289050D02*
X2254250Y1282700D01*
X2266950Y1282700D01*
X2190750Y1308100D02*
X2178050Y1308100D01*
X2190750Y1308100D02*
X2197100Y1301750D01*
X2197100Y1289050D02*
X2190750Y1282700D01*
X2197100Y1301750D02*
X2203450Y1308100D01*
X2216150Y1308100D01*
X2222500Y1301750D01*
X2222500Y1289050D02*
X2216150Y1282700D01*
X2203450Y1282700D01*
X2197100Y1289050D01*
X2152650Y1308100D02*
X2146300Y1301750D01*
X2152650Y1308100D02*
X2165350Y1308100D01*
X2171700Y1301750D01*
X2171700Y1289050D02*
X2165350Y1282700D01*
X2152650Y1282700D01*
X2146300Y1289050D01*
X2171700Y1301750D02*
X2178050Y1308100D01*
X2171700Y1289050D02*
X2178050Y1282700D01*
X2190750Y1282700D01*
X2127250Y1308100D02*
X2120900Y1301750D01*
X2127250Y1308100D02*
X2139950Y1308100D01*
X2146300Y1301750D01*
X2146300Y1289050D02*
X2139950Y1282700D01*
X2127250Y1282700D01*
X2120900Y1289050D01*
X2432050Y1308100D02*
X2444750Y1308100D01*
X2451100Y1301750D01*
X2451100Y1289050D02*
X2444750Y1282700D01*
X2406650Y1308100D02*
X2400300Y1301750D01*
X2406650Y1308100D02*
X2419350Y1308100D01*
X2425700Y1301750D01*
X2425700Y1289050D02*
X2419350Y1282700D01*
X2406650Y1282700D01*
X2400300Y1289050D01*
X2425700Y1301750D02*
X2432050Y1308100D01*
X2425700Y1289050D02*
X2432050Y1282700D01*
X2444750Y1282700D01*
X2368550Y1308100D02*
X2355850Y1308100D01*
X2368550Y1308100D02*
X2374900Y1301750D01*
X2374900Y1289050D02*
X2368550Y1282700D01*
X2374900Y1301750D02*
X2381250Y1308100D01*
X2393950Y1308100D01*
X2400300Y1301750D01*
X2400300Y1289050D02*
X2393950Y1282700D01*
X2381250Y1282700D01*
X2374900Y1289050D01*
X2330450Y1308100D02*
X2324100Y1301750D01*
X2330450Y1308100D02*
X2343150Y1308100D01*
X2349500Y1301750D01*
X2349500Y1289050D02*
X2343150Y1282700D01*
X2330450Y1282700D01*
X2324100Y1289050D01*
X2349500Y1301750D02*
X2355850Y1308100D01*
X2349500Y1289050D02*
X2355850Y1282700D01*
X2368550Y1282700D01*
X2292350Y1308100D02*
X2279650Y1308100D01*
X2292350Y1308100D02*
X2298700Y1301750D01*
X2298700Y1289050D02*
X2292350Y1282700D01*
X2298700Y1301750D02*
X2305050Y1308100D01*
X2317750Y1308100D01*
X2324100Y1301750D01*
X2324100Y1289050D02*
X2317750Y1282700D01*
X2305050Y1282700D01*
X2298700Y1289050D01*
X2279650Y1308100D02*
X2273300Y1301750D01*
X2273300Y1289050D02*
X2279650Y1282700D01*
X2292350Y1282700D01*
X2451100Y1301750D02*
X2457450Y1308100D01*
X2470150Y1308100D01*
X2476500Y1301750D01*
X2476500Y1289050D02*
X2470150Y1282700D01*
X2457450Y1282700D01*
X2451100Y1289050D01*
X2476500Y1301750D02*
X2482850Y1308100D01*
X2495550Y1308100D01*
X2501900Y1301750D01*
X2501900Y1289050D02*
X2495550Y1282700D01*
X2482850Y1282700D01*
X2476500Y1289050D01*
X2501900Y1301750D02*
X2508250Y1308100D01*
X2520950Y1308100D01*
X2527300Y1301750D01*
X2527300Y1289050D02*
X2520950Y1282700D01*
X2508250Y1282700D01*
X2501900Y1289050D01*
X2527300Y1301750D02*
X2533650Y1308100D01*
X2546350Y1308100D01*
X2552700Y1301750D01*
X2552700Y1289050D02*
X2546350Y1282700D01*
X2533650Y1282700D01*
X2527300Y1289050D01*
X2552700Y1301750D02*
X2559050Y1308100D01*
X2571750Y1308100D01*
X2578100Y1301750D01*
X2578100Y1289050D02*
X2571750Y1282700D01*
X2559050Y1282700D01*
X2552700Y1289050D01*
X2578100Y1301750D02*
X2584450Y1308100D01*
X2597150Y1308100D01*
X2603500Y1301750D01*
X2603500Y1289050D02*
X2597150Y1282700D01*
X2584450Y1282700D01*
X2578100Y1289050D01*
X2603500Y1301750D02*
X2609850Y1308100D01*
X2622550Y1308100D01*
X2628900Y1301750D01*
X2628900Y1289050D02*
X2622550Y1282700D01*
X2609850Y1282700D01*
X2603500Y1289050D01*
X2628900Y1301750D02*
X2635250Y1308100D01*
X2647950Y1308100D01*
X2654300Y1301750D01*
X2654300Y1289050D02*
X2647950Y1282700D01*
X2635250Y1282700D01*
X2628900Y1289050D01*
X2654300Y1301750D02*
X2660650Y1308100D01*
X2673350Y1308100D01*
X2679700Y1301750D01*
X2679700Y1289050D02*
X2673350Y1282700D01*
X2660650Y1282700D01*
X2654300Y1289050D01*
X2679700Y1301750D02*
X2686050Y1308100D01*
X2698750Y1308100D01*
X2705100Y1301750D01*
X2705100Y1289050D02*
X2698750Y1282700D01*
X2686050Y1282700D01*
X2679700Y1289050D01*
X2705100Y1301750D02*
X2711450Y1308100D01*
X2724150Y1308100D01*
X2730500Y1301750D01*
X2730500Y1289050D01*
X2724150Y1282700D01*
X2711450Y1282700D01*
X2705100Y1289050D01*
X2120900Y1289050D02*
X2120900Y1301750D01*
D22*
X2120773Y1316230D02*
X2120773Y1325763D01*
X2120773Y1316230D02*
X2122680Y1314323D01*
X2126493Y1314323D01*
X2128400Y1316230D01*
X2128400Y1325763D01*
X2132467Y1316230D02*
X2134374Y1314323D01*
X2138187Y1314323D01*
X2140093Y1316230D01*
X2140093Y1318136D01*
X2138187Y1320043D01*
X2134374Y1320043D01*
X2132467Y1321950D01*
X2132467Y1323856D01*
X2134374Y1325763D01*
X2138187Y1325763D01*
X2140093Y1323856D01*
X2136280Y1327669D02*
X2136280Y1312416D01*
X2144161Y1321950D02*
X2147974Y1325763D01*
X2147974Y1314323D01*
X2144161Y1314323D02*
X2151787Y1314323D01*
X2155855Y1325763D02*
X2163481Y1325763D01*
X2155855Y1325763D02*
X2155855Y1320043D01*
X2159668Y1321950D01*
X2161575Y1321950D01*
X2163481Y1320043D01*
X2163481Y1316230D01*
X2161575Y1314323D01*
X2157762Y1314323D01*
X2155855Y1316230D01*
D20*
X2121408Y1275852D02*
X2121408Y1264158D01*
X2125306Y1271954D02*
X2121408Y1275852D01*
X2125306Y1271954D02*
X2129204Y1275852D01*
X2129204Y1264158D01*
X2133102Y1264158D02*
X2140898Y1264158D01*
X2133102Y1264158D02*
X2140898Y1271954D01*
X2140898Y1273903D01*
X2138949Y1275852D01*
X2135051Y1275852D01*
X2133102Y1273903D01*
X2150643Y1275852D02*
X2150643Y1264158D01*
X2144796Y1270005D02*
X2150643Y1275852D01*
X2152592Y1270005D02*
X2144796Y1270005D01*
D18*
X1946910Y965200D02*
X1946910Y736600D01*
X1888490Y736600D02*
X1888490Y965200D01*
X1888490Y736600D02*
X1946910Y736600D01*
X1946910Y965200D02*
X1927860Y965200D01*
X1907540Y965200D02*
X1888490Y965200D01*
X1907540Y965200D02*
X1907543Y964953D01*
X1907552Y964705D01*
X1907567Y964458D01*
X1907588Y964212D01*
X1907615Y963966D01*
X1907648Y963721D01*
X1907687Y963476D01*
X1907732Y963233D01*
X1907783Y962991D01*
X1907840Y962750D01*
X1907902Y962511D01*
X1907971Y962273D01*
X1908045Y962037D01*
X1908125Y961803D01*
X1908210Y961571D01*
X1908302Y961341D01*
X1908398Y961113D01*
X1908501Y960888D01*
X1908608Y960665D01*
X1908722Y960445D01*
X1908840Y960228D01*
X1908964Y960013D01*
X1909093Y959802D01*
X1909227Y959594D01*
X1909366Y959389D01*
X1909510Y959188D01*
X1909658Y958990D01*
X1909812Y958796D01*
X1909970Y958606D01*
X1910133Y958420D01*
X1910300Y958238D01*
X1910472Y958060D01*
X1910648Y957886D01*
X1910828Y957716D01*
X1911013Y957551D01*
X1911201Y957391D01*
X1911393Y957235D01*
X1911589Y957083D01*
X1911788Y956937D01*
X1911991Y956795D01*
X1912198Y956659D01*
X1912407Y956527D01*
X1912620Y956401D01*
X1912836Y956280D01*
X1913054Y956164D01*
X1913276Y956054D01*
X1913500Y955949D01*
X1913726Y955849D01*
X1913955Y955755D01*
X1914186Y955667D01*
X1914420Y955584D01*
X1914655Y955507D01*
X1914892Y955436D01*
X1915130Y955370D01*
X1915370Y955311D01*
X1915612Y955257D01*
X1915855Y955209D01*
X1916098Y955167D01*
X1916343Y955131D01*
X1916589Y955101D01*
X1916835Y955077D01*
X1917082Y955059D01*
X1917329Y955047D01*
X1917576Y955041D01*
X1917824Y955041D01*
X1918071Y955047D01*
X1918318Y955059D01*
X1918565Y955077D01*
X1918811Y955101D01*
X1919057Y955131D01*
X1919302Y955167D01*
X1919545Y955209D01*
X1919788Y955257D01*
X1920030Y955311D01*
X1920270Y955370D01*
X1920508Y955436D01*
X1920745Y955507D01*
X1920980Y955584D01*
X1921214Y955667D01*
X1921445Y955755D01*
X1921674Y955849D01*
X1921900Y955949D01*
X1922124Y956054D01*
X1922346Y956164D01*
X1922564Y956280D01*
X1922780Y956401D01*
X1922993Y956527D01*
X1923202Y956659D01*
X1923409Y956795D01*
X1923612Y956937D01*
X1923811Y957083D01*
X1924007Y957235D01*
X1924199Y957391D01*
X1924387Y957551D01*
X1924572Y957716D01*
X1924752Y957886D01*
X1924928Y958060D01*
X1925100Y958238D01*
X1925267Y958420D01*
X1925430Y958606D01*
X1925588Y958796D01*
X1925742Y958990D01*
X1925890Y959188D01*
X1926034Y959389D01*
X1926173Y959594D01*
X1926307Y959802D01*
X1926436Y960013D01*
X1926560Y960228D01*
X1926678Y960445D01*
X1926792Y960665D01*
X1926899Y960888D01*
X1927002Y961113D01*
X1927098Y961341D01*
X1927190Y961571D01*
X1927275Y961803D01*
X1927355Y962037D01*
X1927429Y962273D01*
X1927498Y962511D01*
X1927560Y962750D01*
X1927617Y962991D01*
X1927668Y963233D01*
X1927713Y963476D01*
X1927752Y963721D01*
X1927785Y963966D01*
X1927812Y964212D01*
X1927833Y964458D01*
X1927848Y964705D01*
X1927857Y964953D01*
X1927860Y965200D01*
D22*
X1891668Y968375D02*
X1887855Y968375D01*
X1889762Y968375D02*
X1889762Y979815D01*
X1891668Y979815D02*
X1887855Y979815D01*
X1901371Y979815D02*
X1903277Y977908D01*
X1901371Y979815D02*
X1897558Y979815D01*
X1895651Y977908D01*
X1895651Y970282D01*
X1897558Y968375D01*
X1901371Y968375D01*
X1903277Y970282D01*
X1907345Y977908D02*
X1909252Y979815D01*
X1913065Y979815D01*
X1914971Y977908D01*
X1914971Y976002D01*
X1913065Y974095D01*
X1914971Y972188D01*
X1914971Y970282D01*
X1913065Y968375D01*
X1909252Y968375D01*
X1907345Y970282D01*
X1907345Y972188D01*
X1909252Y974095D01*
X1907345Y976002D01*
X1907345Y977908D01*
X1909252Y974095D02*
X1913065Y974095D01*
X1911975Y853233D02*
X1921508Y853233D01*
X1923415Y855140D01*
X1923415Y858953D01*
X1921508Y860860D01*
X1911975Y860860D01*
X1911975Y864927D02*
X1923415Y864927D01*
X1923415Y872554D01*
X1921508Y876621D02*
X1913882Y876621D01*
X1911975Y878528D01*
X1911975Y882341D01*
X1913882Y884248D01*
X1921508Y884248D01*
X1923415Y882341D01*
X1923415Y878528D01*
X1921508Y876621D01*
X1919602Y880434D02*
X1923415Y884248D01*
X1923415Y888315D02*
X1923415Y895941D01*
X1923415Y888315D02*
X1915789Y895941D01*
X1913882Y895941D01*
X1911975Y894035D01*
X1911975Y890222D01*
X1913882Y888315D01*
X1913882Y900009D02*
X1911975Y901916D01*
X1911975Y905729D01*
X1913882Y907635D01*
X1915789Y907635D01*
X1917695Y905729D01*
X1919602Y907635D01*
X1921508Y907635D01*
X1923415Y905729D01*
X1923415Y901916D01*
X1921508Y900009D01*
X1919602Y900009D01*
X1917695Y901916D01*
X1915789Y900009D01*
X1913882Y900009D01*
X1917695Y901916D02*
X1917695Y905729D01*
X1921508Y911703D02*
X1913882Y911703D01*
X1911975Y913610D01*
X1911975Y917423D01*
X1913882Y919329D01*
X1921508Y919329D01*
X1923415Y917423D01*
X1923415Y913610D01*
X1921508Y911703D01*
X1913882Y919329D01*
X1913882Y923397D02*
X1911975Y925304D01*
X1911975Y929117D01*
X1913882Y931023D01*
X1915789Y931023D01*
X1917695Y929117D01*
X1917695Y927210D01*
X1917695Y929117D02*
X1919602Y931023D01*
X1921508Y931023D01*
X1923415Y929117D01*
X1923415Y925304D01*
X1921508Y923397D01*
X1923415Y935091D02*
X1915789Y935091D01*
X1911975Y938904D01*
X1915789Y942717D01*
X1923415Y942717D01*
X1917695Y942717D02*
X1917695Y935091D01*
D21*
X2254250Y977900D02*
X2266950Y977900D01*
X2273300Y971550D01*
X2273300Y958850D02*
X2266950Y952500D01*
X2228850Y977900D02*
X2222500Y971550D01*
X2228850Y977900D02*
X2241550Y977900D01*
X2247900Y971550D01*
X2247900Y958850D02*
X2241550Y952500D01*
X2228850Y952500D01*
X2222500Y958850D01*
X2247900Y971550D02*
X2254250Y977900D01*
X2247900Y958850D02*
X2254250Y952500D01*
X2266950Y952500D01*
X2190750Y977900D02*
X2178050Y977900D01*
X2190750Y977900D02*
X2197100Y971550D01*
X2197100Y958850D02*
X2190750Y952500D01*
X2197100Y971550D02*
X2203450Y977900D01*
X2216150Y977900D01*
X2222500Y971550D01*
X2222500Y958850D02*
X2216150Y952500D01*
X2203450Y952500D01*
X2197100Y958850D01*
X2152650Y977900D02*
X2146300Y971550D01*
X2152650Y977900D02*
X2165350Y977900D01*
X2171700Y971550D01*
X2171700Y958850D02*
X2165350Y952500D01*
X2152650Y952500D01*
X2146300Y958850D01*
X2171700Y971550D02*
X2178050Y977900D01*
X2171700Y958850D02*
X2178050Y952500D01*
X2190750Y952500D01*
X2127250Y977900D02*
X2120900Y971550D01*
X2127250Y977900D02*
X2139950Y977900D01*
X2146300Y971550D01*
X2146300Y958850D02*
X2139950Y952500D01*
X2127250Y952500D01*
X2120900Y958850D01*
X2432050Y977900D02*
X2444750Y977900D01*
X2451100Y971550D01*
X2451100Y958850D02*
X2444750Y952500D01*
X2406650Y977900D02*
X2400300Y971550D01*
X2406650Y977900D02*
X2419350Y977900D01*
X2425700Y971550D01*
X2425700Y958850D02*
X2419350Y952500D01*
X2406650Y952500D01*
X2400300Y958850D01*
X2425700Y971550D02*
X2432050Y977900D01*
X2425700Y958850D02*
X2432050Y952500D01*
X2444750Y952500D01*
X2368550Y977900D02*
X2355850Y977900D01*
X2368550Y977900D02*
X2374900Y971550D01*
X2374900Y958850D02*
X2368550Y952500D01*
X2374900Y971550D02*
X2381250Y977900D01*
X2393950Y977900D01*
X2400300Y971550D01*
X2400300Y958850D02*
X2393950Y952500D01*
X2381250Y952500D01*
X2374900Y958850D01*
X2330450Y977900D02*
X2324100Y971550D01*
X2330450Y977900D02*
X2343150Y977900D01*
X2349500Y971550D01*
X2349500Y958850D02*
X2343150Y952500D01*
X2330450Y952500D01*
X2324100Y958850D01*
X2349500Y971550D02*
X2355850Y977900D01*
X2349500Y958850D02*
X2355850Y952500D01*
X2368550Y952500D01*
X2292350Y977900D02*
X2279650Y977900D01*
X2292350Y977900D02*
X2298700Y971550D01*
X2298700Y958850D02*
X2292350Y952500D01*
X2298700Y971550D02*
X2305050Y977900D01*
X2317750Y977900D01*
X2324100Y971550D01*
X2324100Y958850D02*
X2317750Y952500D01*
X2305050Y952500D01*
X2298700Y958850D01*
X2279650Y977900D02*
X2273300Y971550D01*
X2273300Y958850D02*
X2279650Y952500D01*
X2292350Y952500D01*
X2451100Y971550D02*
X2457450Y977900D01*
X2470150Y977900D01*
X2476500Y971550D01*
X2476500Y958850D02*
X2470150Y952500D01*
X2457450Y952500D01*
X2451100Y958850D01*
X2476500Y971550D02*
X2482850Y977900D01*
X2495550Y977900D01*
X2501900Y971550D01*
X2501900Y958850D02*
X2495550Y952500D01*
X2482850Y952500D01*
X2476500Y958850D01*
X2501900Y971550D02*
X2508250Y977900D01*
X2520950Y977900D01*
X2527300Y971550D01*
X2527300Y958850D02*
X2520950Y952500D01*
X2508250Y952500D01*
X2501900Y958850D01*
X2527300Y971550D02*
X2533650Y977900D01*
X2546350Y977900D01*
X2552700Y971550D01*
X2552700Y958850D02*
X2546350Y952500D01*
X2533650Y952500D01*
X2527300Y958850D01*
X2552700Y971550D02*
X2559050Y977900D01*
X2571750Y977900D01*
X2578100Y971550D01*
X2578100Y958850D02*
X2571750Y952500D01*
X2559050Y952500D01*
X2552700Y958850D01*
X2578100Y971550D02*
X2584450Y977900D01*
X2597150Y977900D01*
X2603500Y971550D01*
X2603500Y958850D02*
X2597150Y952500D01*
X2584450Y952500D01*
X2578100Y958850D01*
X2603500Y971550D02*
X2609850Y977900D01*
X2622550Y977900D01*
X2628900Y971550D01*
X2628900Y958850D02*
X2622550Y952500D01*
X2609850Y952500D01*
X2603500Y958850D01*
X2628900Y971550D02*
X2635250Y977900D01*
X2647950Y977900D01*
X2654300Y971550D01*
X2654300Y958850D02*
X2647950Y952500D01*
X2635250Y952500D01*
X2628900Y958850D01*
X2654300Y971550D02*
X2660650Y977900D01*
X2673350Y977900D01*
X2679700Y971550D01*
X2679700Y958850D02*
X2673350Y952500D01*
X2660650Y952500D01*
X2654300Y958850D01*
X2679700Y971550D02*
X2686050Y977900D01*
X2698750Y977900D01*
X2705100Y971550D01*
X2705100Y958850D02*
X2698750Y952500D01*
X2686050Y952500D01*
X2679700Y958850D01*
X2705100Y971550D02*
X2711450Y977900D01*
X2724150Y977900D01*
X2730500Y971550D01*
X2730500Y958850D01*
X2724150Y952500D01*
X2711450Y952500D01*
X2705100Y958850D01*
X2120900Y958850D02*
X2120900Y971550D01*
D22*
X2120773Y986030D02*
X2120773Y995563D01*
X2120773Y986030D02*
X2122680Y984123D01*
X2126493Y984123D01*
X2128400Y986030D01*
X2128400Y995563D01*
X2132467Y986030D02*
X2134374Y984123D01*
X2138187Y984123D01*
X2140093Y986030D01*
X2140093Y987936D01*
X2138187Y989843D01*
X2134374Y989843D01*
X2132467Y991750D01*
X2132467Y993656D01*
X2134374Y995563D01*
X2138187Y995563D01*
X2140093Y993656D01*
X2136280Y997469D02*
X2136280Y982216D01*
X2144161Y991750D02*
X2147974Y995563D01*
X2147974Y984123D01*
X2144161Y984123D02*
X2151787Y984123D01*
X2155855Y995563D02*
X2163481Y995563D01*
X2163481Y993656D01*
X2155855Y986030D01*
X2155855Y984123D01*
D20*
X2121408Y945652D02*
X2121408Y933958D01*
X2125306Y941754D02*
X2121408Y945652D01*
X2125306Y941754D02*
X2129204Y945652D01*
X2129204Y933958D01*
X2133102Y933958D02*
X2140898Y933958D01*
X2133102Y933958D02*
X2140898Y941754D01*
X2140898Y943703D01*
X2138949Y945652D01*
X2135051Y945652D01*
X2133102Y943703D01*
X2150643Y945652D02*
X2150643Y933958D01*
X2144796Y939805D02*
X2150643Y945652D01*
X2152592Y939805D02*
X2144796Y939805D01*
D18*
X1946910Y635000D02*
X1946910Y406400D01*
X1888490Y406400D02*
X1888490Y635000D01*
X1888490Y406400D02*
X1946910Y406400D01*
X1946910Y635000D02*
X1927860Y635000D01*
X1907540Y635000D02*
X1888490Y635000D01*
X1907540Y635000D02*
X1907543Y634753D01*
X1907552Y634505D01*
X1907567Y634258D01*
X1907588Y634012D01*
X1907615Y633766D01*
X1907648Y633521D01*
X1907687Y633276D01*
X1907732Y633033D01*
X1907783Y632791D01*
X1907840Y632550D01*
X1907902Y632311D01*
X1907971Y632073D01*
X1908045Y631837D01*
X1908125Y631603D01*
X1908210Y631371D01*
X1908302Y631141D01*
X1908398Y630913D01*
X1908501Y630688D01*
X1908608Y630465D01*
X1908722Y630245D01*
X1908840Y630028D01*
X1908964Y629813D01*
X1909093Y629602D01*
X1909227Y629394D01*
X1909366Y629189D01*
X1909510Y628988D01*
X1909658Y628790D01*
X1909812Y628596D01*
X1909970Y628406D01*
X1910133Y628220D01*
X1910300Y628038D01*
X1910472Y627860D01*
X1910648Y627686D01*
X1910828Y627516D01*
X1911013Y627351D01*
X1911201Y627191D01*
X1911393Y627035D01*
X1911589Y626883D01*
X1911788Y626737D01*
X1911991Y626595D01*
X1912198Y626459D01*
X1912407Y626327D01*
X1912620Y626201D01*
X1912836Y626080D01*
X1913054Y625964D01*
X1913276Y625854D01*
X1913500Y625749D01*
X1913726Y625649D01*
X1913955Y625555D01*
X1914186Y625467D01*
X1914420Y625384D01*
X1914655Y625307D01*
X1914892Y625236D01*
X1915130Y625170D01*
X1915370Y625111D01*
X1915612Y625057D01*
X1915855Y625009D01*
X1916098Y624967D01*
X1916343Y624931D01*
X1916589Y624901D01*
X1916835Y624877D01*
X1917082Y624859D01*
X1917329Y624847D01*
X1917576Y624841D01*
X1917824Y624841D01*
X1918071Y624847D01*
X1918318Y624859D01*
X1918565Y624877D01*
X1918811Y624901D01*
X1919057Y624931D01*
X1919302Y624967D01*
X1919545Y625009D01*
X1919788Y625057D01*
X1920030Y625111D01*
X1920270Y625170D01*
X1920508Y625236D01*
X1920745Y625307D01*
X1920980Y625384D01*
X1921214Y625467D01*
X1921445Y625555D01*
X1921674Y625649D01*
X1921900Y625749D01*
X1922124Y625854D01*
X1922346Y625964D01*
X1922564Y626080D01*
X1922780Y626201D01*
X1922993Y626327D01*
X1923202Y626459D01*
X1923409Y626595D01*
X1923612Y626737D01*
X1923811Y626883D01*
X1924007Y627035D01*
X1924199Y627191D01*
X1924387Y627351D01*
X1924572Y627516D01*
X1924752Y627686D01*
X1924928Y627860D01*
X1925100Y628038D01*
X1925267Y628220D01*
X1925430Y628406D01*
X1925588Y628596D01*
X1925742Y628790D01*
X1925890Y628988D01*
X1926034Y629189D01*
X1926173Y629394D01*
X1926307Y629602D01*
X1926436Y629813D01*
X1926560Y630028D01*
X1926678Y630245D01*
X1926792Y630465D01*
X1926899Y630688D01*
X1927002Y630913D01*
X1927098Y631141D01*
X1927190Y631371D01*
X1927275Y631603D01*
X1927355Y631837D01*
X1927429Y632073D01*
X1927498Y632311D01*
X1927560Y632550D01*
X1927617Y632791D01*
X1927668Y633033D01*
X1927713Y633276D01*
X1927752Y633521D01*
X1927785Y633766D01*
X1927812Y634012D01*
X1927833Y634258D01*
X1927848Y634505D01*
X1927857Y634753D01*
X1927860Y635000D01*
D22*
X1891668Y638175D02*
X1887855Y638175D01*
X1889762Y638175D02*
X1889762Y649615D01*
X1891668Y649615D02*
X1887855Y649615D01*
X1901371Y649615D02*
X1903277Y647708D01*
X1901371Y649615D02*
X1897558Y649615D01*
X1895651Y647708D01*
X1895651Y640082D01*
X1897558Y638175D01*
X1901371Y638175D01*
X1903277Y640082D01*
X1907345Y645802D02*
X1911158Y649615D01*
X1911158Y638175D01*
X1907345Y638175D02*
X1914971Y638175D01*
X1919039Y640082D02*
X1919039Y647708D01*
X1920946Y649615D01*
X1924759Y649615D01*
X1926665Y647708D01*
X1926665Y640082D01*
X1924759Y638175D01*
X1920946Y638175D01*
X1919039Y640082D01*
X1926665Y647708D01*
X1921508Y511339D02*
X1911975Y511339D01*
X1921508Y511339D02*
X1923415Y513246D01*
X1923415Y517059D01*
X1921508Y518966D01*
X1911975Y518966D01*
X1911975Y523033D02*
X1923415Y523033D01*
X1923415Y530660D01*
X1921508Y534727D02*
X1913882Y534727D01*
X1911975Y536634D01*
X1911975Y540447D01*
X1913882Y542354D01*
X1921508Y542354D01*
X1923415Y540447D01*
X1923415Y536634D01*
X1921508Y534727D01*
X1919602Y538540D02*
X1923415Y542354D01*
X1923415Y546421D02*
X1923415Y554047D01*
X1923415Y546421D02*
X1915789Y554047D01*
X1913882Y554047D01*
X1911975Y552141D01*
X1911975Y548328D01*
X1913882Y546421D01*
X1913882Y558115D02*
X1911975Y560022D01*
X1911975Y563835D01*
X1913882Y565741D01*
X1915789Y565741D01*
X1917695Y563835D01*
X1919602Y565741D01*
X1921508Y565741D01*
X1923415Y563835D01*
X1923415Y560022D01*
X1921508Y558115D01*
X1919602Y558115D01*
X1917695Y560022D01*
X1915789Y558115D01*
X1913882Y558115D01*
X1917695Y560022D02*
X1917695Y563835D01*
X1921508Y569809D02*
X1913882Y569809D01*
X1911975Y571716D01*
X1911975Y575529D01*
X1913882Y577435D01*
X1921508Y577435D01*
X1923415Y575529D01*
X1923415Y571716D01*
X1921508Y569809D01*
X1913882Y577435D01*
X1913882Y581503D02*
X1911975Y583410D01*
X1911975Y587223D01*
X1913882Y589129D01*
X1915789Y589129D01*
X1917695Y587223D01*
X1917695Y585316D01*
X1917695Y587223D02*
X1919602Y589129D01*
X1921508Y589129D01*
X1923415Y587223D01*
X1923415Y583410D01*
X1921508Y581503D01*
X1923415Y593197D02*
X1915789Y593197D01*
X1911975Y597010D01*
X1915789Y600823D01*
X1923415Y600823D01*
X1917695Y600823D02*
X1917695Y593197D01*
X1913882Y604891D02*
X1911975Y606797D01*
X1911975Y610611D01*
X1913882Y612517D01*
X1915789Y612517D01*
X1917695Y610611D01*
X1917695Y608704D01*
X1917695Y610611D02*
X1919602Y612517D01*
X1921508Y612517D01*
X1923415Y610611D01*
X1923415Y606797D01*
X1921508Y604891D01*
D21*
X2292350Y165100D02*
X2305050Y165100D01*
X2311400Y158750D01*
X2311400Y146050D02*
X2305050Y139700D01*
X2311400Y158750D02*
X2317750Y165100D01*
X2330450Y165100D01*
X2336800Y158750D01*
X2336800Y146050D02*
X2330450Y139700D01*
X2317750Y139700D01*
X2311400Y146050D01*
X2286000Y146050D02*
X2286000Y158750D01*
X2292350Y165100D01*
X2286000Y146050D02*
X2292350Y139700D01*
X2305050Y139700D01*
X2336800Y146050D02*
X2336800Y158750D01*
D22*
X2287440Y167005D02*
X2286635Y167810D01*
X2287440Y167005D02*
X2288245Y167005D01*
X2289050Y167810D01*
X2289050Y171835D01*
X2288245Y171835D02*
X2289855Y171835D01*
X2292248Y170225D02*
X2293858Y171835D01*
X2293858Y167005D01*
X2292248Y167005D02*
X2295468Y167005D01*
D21*
X2419350Y165100D02*
X2432050Y165100D01*
X2438400Y158750D01*
X2438400Y146050D02*
X2432050Y139700D01*
X2438400Y158750D02*
X2444750Y165100D01*
X2457450Y165100D01*
X2463800Y158750D01*
X2463800Y146050D02*
X2457450Y139700D01*
X2444750Y139700D01*
X2438400Y146050D01*
X2413000Y146050D02*
X2413000Y158750D01*
X2419350Y165100D01*
X2413000Y146050D02*
X2419350Y139700D01*
X2432050Y139700D01*
X2463800Y146050D02*
X2463800Y158750D01*
D22*
X2414440Y167005D02*
X2413635Y167810D01*
X2414440Y167005D02*
X2415245Y167005D01*
X2416050Y167810D01*
X2416050Y171835D01*
X2415245Y171835D02*
X2416855Y171835D01*
X2419248Y167005D02*
X2422468Y167005D01*
X2419248Y167005D02*
X2422468Y170225D01*
X2422468Y171030D01*
X2421663Y171835D01*
X2420053Y171835D01*
X2419248Y171030D01*
D21*
X2292350Y647700D02*
X2279650Y647700D01*
X2292350Y647700D02*
X2298700Y641350D01*
X2298700Y628650D02*
X2292350Y622300D01*
X2254250Y647700D02*
X2247900Y641350D01*
X2254250Y647700D02*
X2266950Y647700D01*
X2273300Y641350D01*
X2273300Y628650D02*
X2266950Y622300D01*
X2254250Y622300D01*
X2247900Y628650D01*
X2273300Y641350D02*
X2279650Y647700D01*
X2273300Y628650D02*
X2279650Y622300D01*
X2292350Y622300D01*
X2216150Y647700D02*
X2203450Y647700D01*
X2216150Y647700D02*
X2222500Y641350D01*
X2222500Y628650D02*
X2216150Y622300D01*
X2222500Y641350D02*
X2228850Y647700D01*
X2241550Y647700D01*
X2247900Y641350D01*
X2247900Y628650D02*
X2241550Y622300D01*
X2228850Y622300D01*
X2222500Y628650D01*
X2178050Y647700D02*
X2171700Y641350D01*
X2178050Y647700D02*
X2190750Y647700D01*
X2197100Y641350D01*
X2197100Y628650D02*
X2190750Y622300D01*
X2178050Y622300D01*
X2171700Y628650D01*
X2197100Y641350D02*
X2203450Y647700D01*
X2197100Y628650D02*
X2203450Y622300D01*
X2216150Y622300D01*
X2139950Y647700D02*
X2127250Y647700D01*
X2139950Y647700D02*
X2146300Y641350D01*
X2146300Y628650D02*
X2139950Y622300D01*
X2146300Y641350D02*
X2152650Y647700D01*
X2165350Y647700D01*
X2171700Y641350D01*
X2171700Y628650D02*
X2165350Y622300D01*
X2152650Y622300D01*
X2146300Y628650D01*
X2120900Y628650D02*
X2120900Y641350D01*
X2127250Y647700D01*
X2120900Y628650D02*
X2127250Y622300D01*
X2139950Y622300D01*
X2305050Y647700D02*
X2317750Y647700D01*
X2324100Y641350D01*
X2324100Y628650D01*
X2317750Y622300D01*
X2298700Y641350D02*
X2305050Y647700D01*
X2298700Y628650D02*
X2305050Y622300D01*
X2317750Y622300D01*
D22*
X2124755Y653630D02*
X2123950Y654435D01*
X2122340Y654435D01*
X2121535Y653630D01*
X2121535Y652825D01*
X2122340Y652020D01*
X2123950Y652020D01*
X2124755Y651215D01*
X2124755Y650410D01*
X2123950Y649605D01*
X2122340Y649605D01*
X2121535Y650410D01*
X2127148Y649605D02*
X2127148Y654435D01*
X2127148Y649605D02*
X2130368Y649605D01*
X2132761Y652825D02*
X2134371Y654435D01*
X2134371Y649605D01*
X2132761Y649605D02*
X2135981Y649605D01*
X88900Y800100D02*
X33020Y800100D01*
X33020Y876300D02*
X88900Y876300D01*
X33020Y876300D02*
X33020Y800100D01*
X88900Y863600D02*
X88900Y876300D01*
X88900Y863600D02*
X88900Y812800D01*
X88900Y800100D01*
X88900Y812800D02*
X76200Y812800D01*
X76200Y863600D01*
X88900Y863600D01*
D21*
X16800Y156500D02*
X16800Y40500D01*
X16800Y156500D02*
X78800Y156500D01*
X86800Y156500D01*
X86800Y40500D01*
X78800Y40500D01*
X16800Y40500D01*
X78800Y40500D02*
X78800Y156500D01*
D25*
X25273Y51563D02*
X24637Y50927D01*
X25273Y51563D02*
X25273Y52198D01*
X24637Y52834D01*
X21460Y52834D01*
X21460Y53469D02*
X21460Y52198D01*
X21460Y54669D02*
X25273Y54669D01*
X21460Y54669D02*
X21460Y56576D01*
X22095Y57211D01*
X23366Y57211D01*
X24002Y56576D01*
X24002Y54669D01*
X22095Y59682D02*
X21460Y60953D01*
X22095Y59682D02*
X23366Y58411D01*
X24637Y58411D01*
X25273Y59047D01*
X25273Y60318D01*
X24637Y60953D01*
X24002Y60953D01*
X23366Y60318D01*
X23366Y58411D01*
D18*
X441445Y36834D02*
X442885Y38274D01*
X441445Y36834D02*
X441445Y33953D01*
X442885Y32512D01*
X448647Y32512D01*
X450088Y33953D01*
X450088Y36834D01*
X448647Y38274D01*
X444326Y41867D02*
X441445Y44748D01*
X450088Y44748D01*
X450088Y41867D02*
X450088Y47629D01*
X460495Y38274D02*
X460495Y32512D01*
X460495Y38274D02*
X461935Y38274D01*
X467697Y32512D01*
X469138Y32512D01*
X467697Y43308D02*
X464816Y43308D01*
X467697Y43308D02*
X469138Y44748D01*
X469138Y46189D01*
X467697Y47629D01*
X464816Y47629D01*
X467697Y43308D02*
X470579Y43308D01*
X472019Y41867D01*
X469138Y51222D02*
X460495Y51222D01*
X460495Y56985D01*
X464816Y54104D02*
X464816Y51222D01*
M02*
