M48
;GenerationSoftware,Autodesk,EAGLE,9.1.1*%
;CreationDate,2018-10-12T17:39:06Z*%
FMAT,2
ICI,OFF
METRIC,TZ,000.000
T15C0.356
T14C0.508
T13C0.762
T12C0.800
T11C0.813
T10C0.900
T9C0.965
T8C1.000
T7C1.016
T6C1.200
T5C1.600
T4C2.200
T3C2.718
T2C3.000
T1C3.302
%
G90
M71
T1
X273050Y6350
X273050Y133350
X19050Y133350
X19050Y6350
T2
X32920Y9290
X32920Y3390
X37620Y6290
T3
X200025Y41275
X173355Y107315
X103505Y107315
X173355Y74295
X103505Y74295
X173355Y41275
X231775Y41275
X200025Y74295
X269875Y74295
X200025Y107315
X269875Y107315
X103505Y8255
X173355Y8255
X103505Y41275
T4
X5080Y106680
X5080Y133350
X5080Y123190
X5080Y96520
T5
X66040Y57150
X48260Y11430
X45720Y57150
X55880Y57150
X58420Y11430
X63500Y11430
T6
X5080Y48910
X5080Y24130
X5080Y27630
X5080Y31130
X5080Y41910
X5080Y45410
X5080Y6350
X5080Y9850
X5080Y13350
T7
X224790Y96520
X227330Y96520
X229870Y96520
X232410Y96520
X234950Y96520
X237490Y96520
X240030Y96520
X242570Y96520
X245110Y96520
X247650Y96520
X250190Y96520
X252730Y96520
X255270Y96520
X257810Y96520
X222250Y96520
X219710Y96520
X217170Y96520
X214630Y96520
X212090Y96520
X209550Y96520
X267970Y129540
X265430Y129540
X260350Y96520
X262890Y96520
X265430Y96520
X262890Y129540
X260350Y129540
X257810Y129540
X255270Y129540
X252730Y129540
X250190Y129540
X247650Y129540
X245110Y129540
X242570Y129540
X240030Y129540
X237490Y129540
X234950Y129540
X232410Y129540
X229870Y129540
X227330Y129540
X224790Y129540
X222250Y129540
X219710Y129540
X212090Y129540
X209550Y129540
X6350Y83820
X217170Y129540
X214630Y129540
X267970Y96520
X226060Y13970
X228600Y13970
X238760Y13970
X241300Y13970
X209550Y63500
X212090Y63500
X214630Y63500
X6350Y69850
X6350Y72390
X6350Y74930
X6350Y58420
X6350Y60960
X6350Y63500
X217170Y63500
X219710Y63500
X222250Y63500
X224790Y63500
X227330Y63500
X6350Y81280
X113030Y129540
X115570Y129540
X118110Y129540
X120650Y129540
X123190Y129540
X125730Y129540
X128270Y129540
X130810Y129540
X133350Y129540
X135890Y129540
X138430Y129540
X140970Y129540
X143510Y129540
X146050Y129540
X148590Y129540
X151130Y129540
X153670Y129540
X156210Y129540
X158750Y129540
X161290Y129540
X163830Y129540
X166370Y129540
X168910Y129540
X171450Y129540
X138430Y63500
X135890Y63500
X133350Y63500
X130810Y63500
X128270Y63500
X125730Y63500
X262255Y10922
X19558Y115697
X38354Y71374
X33909Y133096
X36576Y17272
X123190Y63500
X120650Y63500
X118110Y63500
X115570Y63500
X113030Y63500
X143510Y63500
X146050Y63500
X148590Y63500
X151130Y63500
X140970Y63500
X153670Y63500
X156210Y63500
X158750Y63500
X161290Y63500
X163830Y63500
X166370Y63500
X168910Y63500
X171450Y63500
X113030Y30480
X115570Y30480
X118110Y30480
X120650Y30480
X123190Y30480
X125730Y30480
X171450Y96520
X168910Y96520
X166370Y96520
X163830Y96520
X161290Y96520
X158750Y96520
X156210Y96520
X153670Y96520
X151130Y96520
X148590Y96520
X146050Y96520
X143510Y96520
X140970Y96520
X138430Y96520
X135890Y96520
X133350Y96520
X130810Y96520
X128270Y96520
X125730Y96520
X123190Y96520
X120650Y96520
X118110Y96520
X115570Y96520
X113030Y96520
X128270Y30480
X130810Y30480
X133350Y30480
X135890Y30480
X138430Y30480
X140970Y30480
X143510Y30480
X146050Y30480
X148590Y30480
X151130Y30480
X153670Y30480
X156210Y30480
X158750Y30480
X161290Y30480
X163830Y30480
X166370Y30480
X168910Y30480
X171450Y30480
X6350Y86360
T8
X34290Y110490
X31750Y110490
X29210Y110490
T9
X55880Y85090
X55880Y87630
X55880Y90170
X58420Y90170
X58420Y87630
X58420Y85090
X55880Y80010
X55880Y77470
X55880Y74930
X55880Y72390
X55880Y69850
X58420Y80010
X58420Y77470
X58420Y74930
X58420Y72390
X58420Y69850
X63500Y72390
X63500Y74930
X63500Y77470
X63500Y80010
X63500Y69850
X48260Y69850
X48260Y72390
X48260Y74930
X48260Y77470
X48260Y80010
X58420Y82550
X55880Y82550
X53340Y82550
X63500Y92710
X63500Y90170
X63500Y87630
X63500Y85090
X63500Y82550
X50800Y82550
X55880Y113030
X55880Y110490
X58420Y113030
X58420Y110490
X58420Y107950
X58420Y105410
X51435Y119380
X51435Y114300
X55880Y107950
X55880Y105410
X51435Y121920
X51435Y116840
X48260Y92710
X51435Y111760
X60960Y115570
X60960Y118110
X60960Y120650
X60960Y125730
X63500Y128270
X63500Y125730
X63500Y123190
X63500Y120650
X63500Y118110
X63500Y115570
X63500Y113030
X63500Y110490
X63500Y107950
X63500Y105410
X63500Y102870
X63500Y100330
X63500Y97790
X63500Y95250
X60960Y82550
X48260Y82550
X48260Y85090
X48260Y87630
X48260Y90170
X48260Y95250
X48260Y97790
X48260Y100330
X48260Y102870
X48260Y107950
X48260Y110490
X48260Y113030
X48260Y115570
X48260Y118110
X48260Y120650
X48260Y123190
X48260Y125730
X48260Y128270
X48260Y105410
T10
X17780Y57150
X30480Y64770
X17780Y64770
X17780Y72390
X30480Y72390
X30480Y57150
T11
X95250Y62230
X95250Y59690
X95250Y57150
X95250Y54610
X95250Y52070
X95250Y49530
X95250Y46990
X95250Y44450
X95250Y41910
X87630Y41910
X87630Y52070
X87630Y49530
X87630Y29210
X87630Y26670
X87630Y13970
X87630Y11430
X87630Y24130
X87630Y21590
X87630Y16510
X87630Y19050
X87630Y8890
X95250Y8890
X95250Y11430
X95250Y13970
X95250Y16510
X95250Y19050
X95250Y21590
X95250Y24130
X95250Y26670
X95250Y29210
X87630Y54610
X87630Y57150
X87630Y44450
X87630Y46990
X87630Y59690
X87630Y62230
X95250Y95250
X95250Y92710
X95250Y90170
X95250Y87630
X95250Y85090
X95250Y82550
X95250Y80010
X95250Y77470
X95250Y74930
X87630Y74930
X87630Y85090
X87630Y82550
X87630Y87630
X87630Y90170
X87630Y77470
X87630Y80010
X87630Y92710
X87630Y95250
X184150Y128270
X184150Y125730
X184150Y113030
X184150Y110490
X184150Y123190
X184150Y120650
X184150Y115570
X184150Y118110
X184150Y107950
X191770Y107950
X191770Y110490
X191770Y113030
X191770Y115570
X191770Y118110
X191770Y120650
X191770Y123190
X191770Y125730
X191770Y128270
X191770Y62230
X191770Y59690
X191770Y57150
X191770Y54610
X95250Y128270
X95250Y125730
X95250Y123190
X95250Y120650
X95250Y118110
X95250Y115570
X95250Y113030
X95250Y110490
X95250Y107950
X87630Y107950
X87630Y118110
X87630Y115570
X87630Y120650
X87630Y123190
X87630Y110490
X87630Y113030
X87630Y125730
X87630Y128270
X27940Y80010
X25400Y80010
X184150Y95250
X184150Y92710
X184150Y80010
X184150Y77470
X184150Y90170
X184150Y87630
X184150Y82550
X184150Y85090
X184150Y74930
X191770Y74930
X191770Y77470
X191770Y80010
X191770Y82550
X191770Y85090
X191770Y87630
X191770Y90170
X191770Y92710
X191770Y95250
X22860Y80010
X20320Y80010
X20320Y87630
X22860Y87630
X25400Y87630
X27940Y87630
X191770Y52070
X191770Y49530
X191770Y46990
X191770Y44450
X191770Y41910
X184150Y41910
X184150Y52070
X184150Y49530
X184150Y54610
X184150Y57150
X184150Y44450
X184150Y46990
X184150Y59690
X184150Y62230
T12
X10160Y99060
X10160Y101600
X10160Y128270
X10160Y125730
T13
X82550Y60960
T14
X55880Y64135
X92710Y132080
T15
X65329Y105258
X70510Y82093
X79959Y90221
X64719Y99060
X62078Y54762
X67564Y60960
X83617Y75794
X93066Y91135
X75997Y86258
X92354Y92964
X79350Y88595
X62078Y98857
X94082Y97231
X65735Y114808
X67056Y105969
X68682Y98755
X98654Y98755
X92354Y81585
X150774Y89306
X73457Y91338
X95402Y96520
X98247Y76505
X59842Y81077
X54458Y76403
X78334Y54661
X56591Y100178
X68072Y94183
X78740Y86970
X66650Y121310
X57302Y100889
X165506Y88595
X87782Y98044
X90932Y75286
M30